<mxfile host="app.diagrams.net" modified="2022-07-08T09:20:00.146Z" agent="5.0 (Macintosh; Intel Mac OS X 10_15_7) AppleWebKit/537.36 (KHTML, like Gecko) Chrome/102.0.0.0 Safari/537.36" etag="d5Ck7VqoM5blrYWvF54b" version="20.0.4" type="github" pages="3">
  <diagram id="o0IBLR_WmbubAZ78KdnO" name="Domain Primitive">
    <mxGraphModel dx="786" dy="1071" grid="1" gridSize="10" guides="1" tooltips="1" connect="1" arrows="1" fold="1" page="1" pageScale="1" pageWidth="827" pageHeight="1169" math="0" shadow="0">
      <root>
        <mxCell id="0" />
        <mxCell id="1" parent="0" />
        <UserObject label="参考文章" link="https://zhuanlan.zhihu.com/p/340911587" id="xhAw2geh87z7_WKdA8rC-1">
          <mxCell style="fontColor=#0000EE;fontStyle=4;rounded=1;overflow=hidden;spacing=10;sketch=1;" parent="1" vertex="1">
            <mxGeometry x="130" y="90" width="150" height="40" as="geometry" />
          </mxCell>
        </UserObject>
        <mxCell id="xhAw2geh87z7_WKdA8rC-2" value="&lt;span style=&quot;color: rgb(33, 37, 41); font-size: 14px; background-color: rgb(255, 255, 255);&quot;&gt;DP是一个完整的概念整体，具备精准的定义&lt;br&gt;DP是一个传统意义上的ValueObject 无状态且不可变的&lt;br&gt;DP可以是业务最小组成部分，DP之间可以是组合关系&lt;br&gt;&lt;/span&gt;" style="rounded=1;whiteSpace=wrap;html=1;sketch=1;fontFamily=Helvetica;fontSize=14;align=left;" parent="1" vertex="1">
          <mxGeometry x="330" y="60" width="380" height="120" as="geometry" />
        </mxCell>
        <mxCell id="xhAw2geh87z7_WKdA8rC-4" value="三个原则" style="rounded=1;whiteSpace=wrap;html=1;sketch=1;fontFamily=Helvetica;fontSize=14;align=left;" parent="1" vertex="1">
          <mxGeometry x="130" y="715" width="100" height="50" as="geometry" />
        </mxCell>
        <mxCell id="xhAw2geh87z7_WKdA8rC-6" value="四个维度" style="rounded=1;whiteSpace=wrap;html=1;sketch=1;fontFamily=Helvetica;fontSize=14;align=left;" parent="1" vertex="1">
          <mxGeometry x="130" y="410" width="100" height="60" as="geometry" />
        </mxCell>
        <mxCell id="xhAw2geh87z7_WKdA8rC-40" value="" style="edgeStyle=orthogonalEdgeStyle;rounded=0;sketch=1;orthogonalLoop=1;jettySize=auto;html=1;fontFamily=Helvetica;fontSize=14;" parent="1" source="xhAw2geh87z7_WKdA8rC-9" target="xhAw2geh87z7_WKdA8rC-13" edge="1">
          <mxGeometry relative="1" as="geometry" />
        </mxCell>
        <mxCell id="xhAw2geh87z7_WKdA8rC-41" value="" style="edgeStyle=orthogonalEdgeStyle;rounded=0;sketch=1;orthogonalLoop=1;jettySize=auto;html=1;fontFamily=Helvetica;fontSize=14;" parent="1" source="xhAw2geh87z7_WKdA8rC-9" target="xhAw2geh87z7_WKdA8rC-13" edge="1">
          <mxGeometry relative="1" as="geometry" />
        </mxCell>
        <mxCell id="xhAw2geh87z7_WKdA8rC-43" value="" style="edgeStyle=orthogonalEdgeStyle;rounded=0;sketch=1;orthogonalLoop=1;jettySize=auto;html=1;fontFamily=Helvetica;fontSize=14;" parent="1" source="xhAw2geh87z7_WKdA8rC-9" target="xhAw2geh87z7_WKdA8rC-42" edge="1">
          <mxGeometry relative="1" as="geometry" />
        </mxCell>
        <mxCell id="xhAw2geh87z7_WKdA8rC-9" value="&lt;meta charset=&quot;utf-8&quot;&gt;&lt;span style=&quot;color: rgb(33, 37, 41); font-family: system-ui, -apple-system, &amp;quot;Segoe UI&amp;quot;, Roboto, &amp;quot;Helvetica Neue&amp;quot;, Arial, &amp;quot;Noto Sans&amp;quot;, &amp;quot;Liberation Sans&amp;quot;, sans-serif, &amp;quot;Apple Color Emoji&amp;quot;, &amp;quot;Segoe UI Emoji&amp;quot;, &amp;quot;Segoe UI Symbol&amp;quot;, &amp;quot;Noto Color Emoji&amp;quot;; font-size: 16px; font-style: normal; font-variant-ligatures: normal; font-variant-caps: normal; font-weight: 400; letter-spacing: normal; orphans: 2; text-align: start; text-indent: 0px; text-transform: none; widows: 2; word-spacing: 0px; -webkit-text-stroke-width: 0px; background-color: rgb(255, 255, 255); text-decoration-thickness: initial; text-decoration-style: initial; text-decoration-color: initial; float: none; display: inline !important;&quot;&gt;接口的清晰度&lt;/span&gt;" style="whiteSpace=wrap;html=1;fontSize=14;align=left;rounded=1;sketch=1;" parent="1" vertex="1">
          <mxGeometry x="300" y="320" width="120" height="60" as="geometry" />
        </mxCell>
        <mxCell id="xhAw2geh87z7_WKdA8rC-45" value="" style="edgeStyle=orthogonalEdgeStyle;rounded=0;sketch=1;orthogonalLoop=1;jettySize=auto;html=1;fontFamily=Helvetica;fontSize=14;" parent="1" source="xhAw2geh87z7_WKdA8rC-13" target="xhAw2geh87z7_WKdA8rC-44" edge="1">
          <mxGeometry relative="1" as="geometry" />
        </mxCell>
        <mxCell id="xhAw2geh87z7_WKdA8rC-13" value="&lt;span style=&quot;color: rgb(33, 37, 41); font-family: system-ui, -apple-system, &amp;quot;Segoe UI&amp;quot;, Roboto, &amp;quot;Helvetica Neue&amp;quot;, Arial, &amp;quot;Noto Sans&amp;quot;, &amp;quot;Liberation Sans&amp;quot;, sans-serif, &amp;quot;Apple Color Emoji&amp;quot;, &amp;quot;Segoe UI Emoji&amp;quot;, &amp;quot;Segoe UI Symbol&amp;quot;, &amp;quot;Noto Color Emoji&amp;quot;; font-size: 16px; background-color: rgb(255, 255, 255);&quot;&gt;数据验证和错误处理&lt;/span&gt;" style="whiteSpace=wrap;html=1;fontSize=14;align=left;rounded=1;sketch=1;" parent="1" vertex="1">
          <mxGeometry x="300" y="380" width="170" height="60" as="geometry" />
        </mxCell>
        <mxCell id="xhAw2geh87z7_WKdA8rC-47" value="" style="edgeStyle=orthogonalEdgeStyle;rounded=0;sketch=1;orthogonalLoop=1;jettySize=auto;html=1;fontFamily=Helvetica;fontSize=14;" parent="1" source="xhAw2geh87z7_WKdA8rC-15" target="xhAw2geh87z7_WKdA8rC-46" edge="1">
          <mxGeometry relative="1" as="geometry" />
        </mxCell>
        <mxCell id="xhAw2geh87z7_WKdA8rC-15" value="&lt;span style=&quot;color: rgb(33, 37, 41); font-family: system-ui, -apple-system, &amp;quot;Segoe UI&amp;quot;, Roboto, &amp;quot;Helvetica Neue&amp;quot;, Arial, &amp;quot;Noto Sans&amp;quot;, &amp;quot;Liberation Sans&amp;quot;, sans-serif, &amp;quot;Apple Color Emoji&amp;quot;, &amp;quot;Segoe UI Emoji&amp;quot;, &amp;quot;Segoe UI Symbol&amp;quot;, &amp;quot;Noto Color Emoji&amp;quot;; font-size: 16px; background-color: rgb(255, 255, 255);&quot;&gt;业务逻辑代码的清晰度&lt;/span&gt;" style="whiteSpace=wrap;html=1;fontSize=14;align=left;rounded=1;sketch=1;" parent="1" vertex="1">
          <mxGeometry x="300" y="440" width="170" height="60" as="geometry" />
        </mxCell>
        <mxCell id="xhAw2geh87z7_WKdA8rC-49" value="" style="edgeStyle=orthogonalEdgeStyle;rounded=0;sketch=1;orthogonalLoop=1;jettySize=auto;html=1;fontFamily=Helvetica;fontSize=14;" parent="1" source="xhAw2geh87z7_WKdA8rC-16" target="xhAw2geh87z7_WKdA8rC-48" edge="1">
          <mxGeometry relative="1" as="geometry" />
        </mxCell>
        <mxCell id="xhAw2geh87z7_WKdA8rC-16" value="&lt;font face=&quot;system-ui, -apple-system, Segoe UI, Roboto, Helvetica Neue, Arial, Noto Sans, Liberation Sans, sans-serif, Apple Color Emoji, Segoe UI Emoji, Segoe UI Symbol, Noto Color Emoji&quot; color=&quot;#212529&quot;&gt;&lt;span style=&quot;font-size: 16px;&quot;&gt;可测试性&lt;/span&gt;&lt;/font&gt;" style="whiteSpace=wrap;html=1;fontSize=14;align=left;rounded=1;sketch=1;" parent="1" vertex="1">
          <mxGeometry x="300" y="500" width="170" height="60" as="geometry" />
        </mxCell>
        <mxCell id="xhAw2geh87z7_WKdA8rC-18" value="&lt;span style=&quot;box-sizing: border-box; font-weight: bolder; color: rgb(33, 37, 41); font-family: system-ui, -apple-system, &amp;quot;Segoe UI&amp;quot;, Roboto, &amp;quot;Helvetica Neue&amp;quot;, Arial, &amp;quot;Noto Sans&amp;quot;, &amp;quot;Liberation Sans&amp;quot;, sans-serif, &amp;quot;Apple Color Emoji&amp;quot;, &amp;quot;Segoe UI Emoji&amp;quot;, &amp;quot;Segoe UI Symbol&amp;quot;, &amp;quot;Noto Color Emoji&amp;quot;; font-size: 16px; background-color: rgb(255, 255, 255);&quot;&gt;将隐性的概念显性化&lt;/span&gt;" style="whiteSpace=wrap;html=1;fontSize=14;align=left;rounded=1;sketch=1;" parent="1" vertex="1">
          <mxGeometry x="300" y="650" width="180" height="60" as="geometry" />
        </mxCell>
        <mxCell id="xhAw2geh87z7_WKdA8rC-23" value="&lt;pre style=&quot;box-sizing: border-box; font-family: var(--bs-font-monospace); font-size: 0.875em; direction: ltr; unicode-bidi: bidi-override; display: block; margin-bottom: 1.25rem; overflow: auto; background: rgb(233, 236, 239); padding: 1rem; max-height: 35rem; line-height: 1.5; position: relative; font-style: normal; font-variant-ligatures: normal; font-variant-caps: normal; font-weight: 400; letter-spacing: normal; orphans: 2; text-align: start; text-indent: 0px; text-transform: none; widows: 2; word-spacing: 0px; -webkit-text-stroke-width: 0px; text-decoration-thickness: initial; text-decoration-style: initial; text-decoration-color: initial; margin-top: 0px !important;&quot; class=&quot;hljs language-typescript&quot;&gt;&lt;font color=&quot;#d73a49&quot;&gt;通过手机号码获取区号与手机号码的校验 封装为DP&lt;/font&gt;&lt;/pre&gt;&lt;pre style=&quot;box-sizing: border-box; font-family: var(--bs-font-monospace); font-size: 0.875em; direction: ltr; unicode-bidi: bidi-override; display: block; margin-top: 0px !important; margin-bottom: 1.25rem; overflow: auto; color: rgb(36, 41, 46); background: rgb(233, 236, 239); padding: 1rem; max-height: 35rem; line-height: 1.5; position: relative; font-style: normal; font-variant-ligatures: normal; font-variant-caps: normal; font-weight: 400; letter-spacing: normal; orphans: 2; text-align: start; text-indent: 0px; text-transform: none; widows: 2; word-spacing: 0px; -webkit-text-stroke-width: 0px; text-decoration-thickness: initial; text-decoration-style: initial; text-decoration-color: initial;&quot; class=&quot;hljs language-typescript&quot;&gt;&lt;span style=&quot;box-sizing: border-box; color: rgb(215, 58, 73);&quot; class=&quot;hljs-keyword&quot;&gt;public&lt;/span&gt; &lt;span style=&quot;box-sizing: border-box; color: rgb(215, 58, 73);&quot; class=&quot;hljs-keyword&quot;&gt;class&lt;/span&gt; &lt;span style=&quot;box-sizing: border-box; color: rgb(111, 66, 193);&quot; class=&quot;hljs-title class_&quot;&gt;PhoneNumber&lt;/span&gt; {&lt;br&gt;&lt;br&gt;    &lt;span style=&quot;box-sizing: border-box; color: rgb(215, 58, 73);&quot; class=&quot;hljs-keyword&quot;&gt;private&lt;/span&gt; final &lt;span style=&quot;box-sizing: border-box; color: rgb(111, 66, 193);&quot; class=&quot;hljs-title class_&quot;&gt;String&lt;/span&gt; &lt;span style=&quot;box-sizing: border-box; color: rgb(227, 98, 9);&quot; class=&quot;hljs-built_in&quot;&gt;number&lt;/span&gt;;&lt;br&gt;    &lt;span style=&quot;box-sizing: border-box; color: rgb(215, 58, 73);&quot; class=&quot;hljs-keyword&quot;&gt;public&lt;/span&gt; &lt;span style=&quot;box-sizing: border-box; color: rgb(111, 66, 193);&quot; class=&quot;hljs-title class_&quot;&gt;String&lt;/span&gt; &lt;span style=&quot;box-sizing: border-box; color: rgb(111, 66, 193);&quot; class=&quot;hljs-title function_&quot;&gt;getNumber&lt;/span&gt;(&lt;span style=&quot;box-sizing: border-box;&quot; class=&quot;hljs-params&quot;&gt;&lt;/span&gt;) {&lt;br&gt;        &lt;span style=&quot;box-sizing: border-box; color: rgb(215, 58, 73);&quot; class=&quot;hljs-keyword&quot;&gt;return&lt;/span&gt; &lt;span style=&quot;box-sizing: border-box; color: rgb(227, 98, 9);&quot; class=&quot;hljs-built_in&quot;&gt;number&lt;/span&gt;;&lt;br&gt;    }&lt;br&gt;&lt;br&gt;    &lt;span style=&quot;box-sizing: border-box; color: rgb(215, 58, 73);&quot; class=&quot;hljs-keyword&quot;&gt;public&lt;/span&gt; &lt;span style=&quot;box-sizing: border-box; color: rgb(111, 66, 193);&quot; class=&quot;hljs-title class_&quot;&gt;PhoneNumber&lt;/span&gt;(&lt;span style=&quot;box-sizing: border-box; color: rgb(111, 66, 193);&quot; class=&quot;hljs-title class_&quot;&gt;String&lt;/span&gt; &lt;span style=&quot;box-sizing: border-box; color: rgb(227, 98, 9);&quot; class=&quot;hljs-built_in&quot;&gt;number&lt;/span&gt;) {&lt;br&gt;        &lt;span style=&quot;box-sizing: border-box; color: rgb(215, 58, 73);&quot; class=&quot;hljs-keyword&quot;&gt;if&lt;/span&gt; (&lt;span style=&quot;box-sizing: border-box; color: rgb(227, 98, 9);&quot; class=&quot;hljs-built_in&quot;&gt;number&lt;/span&gt; == &lt;span style=&quot;box-sizing: border-box; color: rgb(0, 92, 197);&quot; class=&quot;hljs-literal&quot;&gt;null&lt;/span&gt;) {&lt;br&gt;            &lt;span style=&quot;box-sizing: border-box; color: rgb(215, 58, 73);&quot; class=&quot;hljs-keyword&quot;&gt;throw&lt;/span&gt; &lt;span style=&quot;box-sizing: border-box; color: rgb(215, 58, 73);&quot; class=&quot;hljs-keyword&quot;&gt;new&lt;/span&gt; &lt;span style=&quot;box-sizing: border-box; color: rgb(111, 66, 193);&quot; class=&quot;hljs-title class_&quot;&gt;ValidationException&lt;/span&gt;(&lt;span style=&quot;box-sizing: border-box; color: rgb(3, 47, 98);&quot; class=&quot;hljs-string&quot;&gt;&quot;number不能为空&quot;&lt;/span&gt;);&lt;br&gt;        } &lt;span style=&quot;box-sizing: border-box; color: rgb(215, 58, 73);&quot; class=&quot;hljs-keyword&quot;&gt;else&lt;/span&gt; &lt;span style=&quot;box-sizing: border-box; color: rgb(215, 58, 73);&quot; class=&quot;hljs-keyword&quot;&gt;if&lt;/span&gt; (&lt;span style=&quot;box-sizing: border-box; color: rgb(111, 66, 193);&quot; class=&quot;hljs-title function_&quot;&gt;isValid&lt;/span&gt;(&lt;span style=&quot;box-sizing: border-box; color: rgb(227, 98, 9);&quot; class=&quot;hljs-built_in&quot;&gt;number&lt;/span&gt;)) {&lt;br&gt;            &lt;span style=&quot;box-sizing: border-box; color: rgb(215, 58, 73);&quot; class=&quot;hljs-keyword&quot;&gt;throw&lt;/span&gt; &lt;span style=&quot;box-sizing: border-box; color: rgb(215, 58, 73);&quot; class=&quot;hljs-keyword&quot;&gt;new&lt;/span&gt; &lt;span style=&quot;box-sizing: border-box; color: rgb(111, 66, 193);&quot; class=&quot;hljs-title class_&quot;&gt;ValidationException&lt;/span&gt;(&lt;span style=&quot;box-sizing: border-box; color: rgb(3, 47, 98);&quot; class=&quot;hljs-string&quot;&gt;&quot;number格式错误&quot;&lt;/span&gt;);&lt;br&gt;        }&lt;br&gt;        &lt;span style=&quot;box-sizing: border-box; color: rgb(215, 58, 73);&quot; class=&quot;hljs-variable language_&quot;&gt;this&lt;/span&gt;.&lt;span style=&quot;box-sizing: border-box;&quot; class=&quot;hljs-property&quot;&gt;number&lt;/span&gt; = &lt;span style=&quot;box-sizing: border-box; color: rgb(227, 98, 9);&quot; class=&quot;hljs-built_in&quot;&gt;number&lt;/span&gt;;&lt;br&gt;    }&lt;br&gt;&lt;br&gt;    &lt;span style=&quot;box-sizing: border-box; color: rgb(215, 58, 73);&quot; class=&quot;hljs-keyword&quot;&gt;public&lt;/span&gt; &lt;span style=&quot;box-sizing: border-box; color: rgb(111, 66, 193);&quot; class=&quot;hljs-title class_&quot;&gt;String&lt;/span&gt; &lt;span style=&quot;box-sizing: border-box; color: rgb(111, 66, 193);&quot; class=&quot;hljs-title function_&quot;&gt;getAreaCode&lt;/span&gt;(&lt;span style=&quot;box-sizing: border-box;&quot; class=&quot;hljs-params&quot;&gt;&lt;/span&gt;) {&lt;br&gt;        &lt;span style=&quot;box-sizing: border-box; color: rgb(215, 58, 73);&quot; class=&quot;hljs-keyword&quot;&gt;for&lt;/span&gt; (int i = &lt;span style=&quot;box-sizing: border-box; color: rgb(0, 92, 197);&quot; class=&quot;hljs-number&quot;&gt;0&lt;/span&gt;; i &amp;lt; &lt;span style=&quot;box-sizing: border-box; color: rgb(227, 98, 9);&quot; class=&quot;hljs-built_in&quot;&gt;number&lt;/span&gt;.&lt;span style=&quot;box-sizing: border-box; color: rgb(111, 66, 193);&quot; class=&quot;hljs-title function_&quot;&gt;length&lt;/span&gt;(); i++) {&lt;br&gt;            &lt;span style=&quot;box-sizing: border-box; color: rgb(111, 66, 193);&quot; class=&quot;hljs-title class_&quot;&gt;String&lt;/span&gt; prefix = &lt;span style=&quot;box-sizing: border-box; color: rgb(227, 98, 9);&quot; class=&quot;hljs-built_in&quot;&gt;number&lt;/span&gt;.&lt;span style=&quot;box-sizing: border-box; color: rgb(111, 66, 193);&quot; class=&quot;hljs-title function_&quot;&gt;substring&lt;/span&gt;(&lt;span style=&quot;box-sizing: border-box; color: rgb(0, 92, 197);&quot; class=&quot;hljs-number&quot;&gt;0&lt;/span&gt;, i);&lt;br&gt;            &lt;span style=&quot;box-sizing: border-box; color: rgb(215, 58, 73);&quot; class=&quot;hljs-keyword&quot;&gt;if&lt;/span&gt; (&lt;span style=&quot;box-sizing: border-box; color: rgb(111, 66, 193);&quot; class=&quot;hljs-title function_&quot;&gt;isAreaCode&lt;/span&gt;(prefix)) {&lt;br&gt;                &lt;span style=&quot;box-sizing: border-box; color: rgb(215, 58, 73);&quot; class=&quot;hljs-keyword&quot;&gt;return&lt;/span&gt; prefix;&lt;br&gt;            }&lt;br&gt;        }&lt;br&gt;        &lt;span style=&quot;box-sizing: border-box; color: rgb(215, 58, 73);&quot; class=&quot;hljs-keyword&quot;&gt;return&lt;/span&gt; &lt;span style=&quot;box-sizing: border-box; color: rgb(0, 92, 197);&quot; class=&quot;hljs-literal&quot;&gt;null&lt;/span&gt;;&lt;br&gt;    }&lt;br&gt;&lt;br&gt;    &lt;span style=&quot;box-sizing: border-box; color: rgb(215, 58, 73);&quot; class=&quot;hljs-keyword&quot;&gt;private&lt;/span&gt; &lt;span style=&quot;box-sizing: border-box; color: rgb(215, 58, 73);&quot; class=&quot;hljs-keyword&quot;&gt;static&lt;/span&gt; &lt;span style=&quot;box-sizing: border-box; color: rgb(227, 98, 9);&quot; class=&quot;hljs-built_in&quot;&gt;boolean&lt;/span&gt; &lt;span style=&quot;box-sizing: border-box; color: rgb(111, 66, 193);&quot; class=&quot;hljs-title function_&quot;&gt;isAreaCode&lt;/span&gt;(&lt;span style=&quot;box-sizing: border-box;&quot; class=&quot;hljs-params&quot;&gt;&lt;span style=&quot;box-sizing: border-box; color: rgb(227, 98, 9);&quot; class=&quot;hljs-built_in&quot;&gt;String&lt;/span&gt; prefix&lt;/span&gt;) {&lt;br&gt;        &lt;span style=&quot;box-sizing: border-box; color: rgb(111, 66, 193);&quot; class=&quot;hljs-title class_&quot;&gt;String&lt;/span&gt;[] areas = &lt;span style=&quot;box-sizing: border-box; color: rgb(215, 58, 73);&quot; class=&quot;hljs-keyword&quot;&gt;new&lt;/span&gt; &lt;span style=&quot;box-sizing: border-box; color: rgb(111, 66, 193);&quot; class=&quot;hljs-title class_&quot;&gt;String&lt;/span&gt;[]{&lt;span style=&quot;box-sizing: border-box; color: rgb(3, 47, 98);&quot; class=&quot;hljs-string&quot;&gt;&quot;0571&quot;&lt;/span&gt;, &lt;span style=&quot;box-sizing: border-box; color: rgb(3, 47, 98);&quot; class=&quot;hljs-string&quot;&gt;&quot;021&quot;&lt;/span&gt;, &lt;span style=&quot;box-sizing: border-box; color: rgb(3, 47, 98);&quot; class=&quot;hljs-string&quot;&gt;&quot;010&quot;&lt;/span&gt;};&lt;br&gt;        &lt;span style=&quot;box-sizing: border-box; color: rgb(215, 58, 73);&quot; class=&quot;hljs-keyword&quot;&gt;return&lt;/span&gt; &lt;span style=&quot;box-sizing: border-box; color: rgb(111, 66, 193);&quot; class=&quot;hljs-title class_&quot;&gt;Arrays&lt;/span&gt;.&lt;span style=&quot;box-sizing: border-box; color: rgb(111, 66, 193);&quot; class=&quot;hljs-title function_&quot;&gt;asList&lt;/span&gt;(areas).&lt;span style=&quot;box-sizing: border-box; color: rgb(111, 66, 193);&quot; class=&quot;hljs-title function_&quot;&gt;contains&lt;/span&gt;(prefix);&lt;br&gt;    }&lt;br&gt;&lt;br&gt;    &lt;span style=&quot;box-sizing: border-box; color: rgb(215, 58, 73);&quot; class=&quot;hljs-keyword&quot;&gt;public&lt;/span&gt; &lt;span style=&quot;box-sizing: border-box; color: rgb(215, 58, 73);&quot; class=&quot;hljs-keyword&quot;&gt;static&lt;/span&gt; &lt;span style=&quot;box-sizing: border-box; color: rgb(227, 98, 9);&quot; class=&quot;hljs-built_in&quot;&gt;boolean&lt;/span&gt; &lt;span style=&quot;box-sizing: border-box; color: rgb(111, 66, 193);&quot; class=&quot;hljs-title function_&quot;&gt;isValid&lt;/span&gt;(&lt;span style=&quot;box-sizing: border-box;&quot; class=&quot;hljs-params&quot;&gt;&lt;span style=&quot;box-sizing: border-box; color: rgb(227, 98, 9);&quot; class=&quot;hljs-built_in&quot;&gt;String&lt;/span&gt; &lt;span style=&quot;box-sizing: border-box; color: rgb(227, 98, 9);&quot; class=&quot;hljs-built_in&quot;&gt;number&lt;/span&gt;&lt;/span&gt;) {&lt;br&gt;        &lt;span style=&quot;box-sizing: border-box; color: rgb(111, 66, 193);&quot; class=&quot;hljs-title class_&quot;&gt;String&lt;/span&gt; pattern = &lt;span style=&quot;box-sizing: border-box; color: rgb(3, 47, 98);&quot; class=&quot;hljs-string&quot;&gt;&quot;^0?[1-9]{2,3}-?\\d{8}$&quot;&lt;/span&gt;;&lt;br&gt;        &lt;span style=&quot;box-sizing: border-box; color: rgb(215, 58, 73);&quot; class=&quot;hljs-keyword&quot;&gt;return&lt;/span&gt; &lt;span style=&quot;box-sizing: border-box; color: rgb(227, 98, 9);&quot; class=&quot;hljs-built_in&quot;&gt;number&lt;/span&gt;.&lt;span style=&quot;box-sizing: border-box; color: rgb(111, 66, 193);&quot; class=&quot;hljs-title function_&quot;&gt;matches&lt;/span&gt;(pattern);&lt;br&gt;    }&lt;br&gt;&lt;br&gt;}&lt;/pre&gt;" style="text;whiteSpace=wrap;html=1;fontSize=14;fontFamily=Helvetica;" parent="1" vertex="1">
          <mxGeometry x="841" y="100" width="400" height="600" as="geometry" />
        </mxCell>
        <mxCell id="xhAw2geh87z7_WKdA8rC-24" value="&lt;meta charset=&quot;utf-8&quot;&gt;&lt;pre style=&quot;box-sizing: border-box; font-family: var(--bs-font-monospace); font-size: 0.875em; direction: ltr; unicode-bidi: bidi-override; display: block; margin-top: 0px !important; margin-bottom: 1.25rem; overflow: auto; color: rgb(36, 41, 46); background: rgb(233, 236, 239); padding: 1rem; max-height: 35rem; line-height: 1.5; position: relative; font-style: normal; font-variant-ligatures: normal; font-variant-caps: normal; font-weight: 400; letter-spacing: normal; orphans: 2; text-align: start; text-indent: 0px; text-transform: none; widows: 2; word-spacing: 0px; -webkit-text-stroke-width: 0px; text-decoration-thickness: initial; text-decoration-style: initial; text-decoration-color: initial;&quot; class=&quot;hljs language-pgsql&quot;&gt;&lt;span style=&quot;box-sizing: border-box; color: rgb(227, 98, 9);&quot; class=&quot;hljs-built_in&quot;&gt;public&lt;/span&gt; &lt;span style=&quot;box-sizing: border-box; color: rgb(215, 58, 73);&quot; class=&quot;hljs-keyword&quot;&gt;class&lt;/span&gt; &lt;span style=&quot;box-sizing: border-box; color: rgb(215, 58, 73);&quot; class=&quot;hljs-keyword&quot;&gt;User&lt;/span&gt; {&#xa;    UserId userId;&#xa;    &lt;span style=&quot;box-sizing: border-box; color: rgb(215, 58, 73);&quot; class=&quot;hljs-type&quot;&gt;Name&lt;/span&gt; &lt;span style=&quot;box-sizing: border-box; color: rgb(215, 58, 73);&quot; class=&quot;hljs-type&quot;&gt;name&lt;/span&gt;;&#xa;    PhoneNumber phone;&#xa;    Address address;&#xa;    RepId repId;&#xa;}&#xa;&#xa;&lt;span style=&quot;box-sizing: border-box; color: rgb(227, 98, 9);&quot; class=&quot;hljs-built_in&quot;&gt;public&lt;/span&gt; &lt;span style=&quot;box-sizing: border-box; color: rgb(215, 58, 73);&quot; class=&quot;hljs-keyword&quot;&gt;User&lt;/span&gt; register(&#xa;  @&lt;span style=&quot;box-sizing: border-box; color: rgb(215, 58, 73);&quot; class=&quot;hljs-keyword&quot;&gt;NotNull&lt;/span&gt; &lt;span style=&quot;box-sizing: border-box; color: rgb(215, 58, 73);&quot; class=&quot;hljs-type&quot;&gt;Name&lt;/span&gt; &lt;span style=&quot;box-sizing: border-box; color: rgb(215, 58, 73);&quot; class=&quot;hljs-type&quot;&gt;name&lt;/span&gt;,&#xa;  @&lt;span style=&quot;box-sizing: border-box; color: rgb(215, 58, 73);&quot; class=&quot;hljs-keyword&quot;&gt;NotNull&lt;/span&gt; PhoneNumber phone,&#xa;  @&lt;span style=&quot;box-sizing: border-box; color: rgb(215, 58, 73);&quot; class=&quot;hljs-keyword&quot;&gt;NotNull&lt;/span&gt; Address address&#xa;) {&#xa;    // 找到区域内的SalesRep&#xa;    SalesRep rep = salesRepRepo.findRep(phone.getAreaCode());&#xa;&#xa;    // 最后创建用户，落盘，然后返回，这部分代码实际上也能用Builder解决&#xa;    &lt;span style=&quot;box-sizing: border-box; color: rgb(215, 58, 73);&quot; class=&quot;hljs-keyword&quot;&gt;User&lt;/span&gt; &lt;span style=&quot;box-sizing: border-box; color: rgb(215, 58, 73);&quot; class=&quot;hljs-keyword&quot;&gt;user&lt;/span&gt; = &lt;span style=&quot;box-sizing: border-box; color: rgb(227, 98, 9);&quot; class=&quot;hljs-built_in&quot;&gt;new&lt;/span&gt; &lt;span style=&quot;box-sizing: border-box; color: rgb(215, 58, 73);&quot; class=&quot;hljs-keyword&quot;&gt;User&lt;/span&gt;();&#xa;    &lt;span style=&quot;box-sizing: border-box; color: rgb(215, 58, 73);&quot; class=&quot;hljs-keyword&quot;&gt;user&lt;/span&gt;.name = &lt;span style=&quot;box-sizing: border-box; color: rgb(215, 58, 73);&quot; class=&quot;hljs-type&quot;&gt;name&lt;/span&gt;;&#xa;    &lt;span style=&quot;box-sizing: border-box; color: rgb(215, 58, 73);&quot; class=&quot;hljs-keyword&quot;&gt;user&lt;/span&gt;.phone = phone;&#xa;    &lt;span style=&quot;box-sizing: border-box; color: rgb(215, 58, 73);&quot; class=&quot;hljs-keyword&quot;&gt;user&lt;/span&gt;.address = address;&#xa;    &lt;span style=&quot;box-sizing: border-box; color: rgb(215, 58, 73);&quot; class=&quot;hljs-keyword&quot;&gt;if&lt;/span&gt; (rep != &lt;span style=&quot;box-sizing: border-box; color: rgb(215, 58, 73);&quot; class=&quot;hljs-keyword&quot;&gt;null&lt;/span&gt;) {&#xa;        &lt;span style=&quot;box-sizing: border-box; color: rgb(215, 58, 73);&quot; class=&quot;hljs-keyword&quot;&gt;user&lt;/span&gt;.repId = rep.repId;&#xa;    }&#xa;&#xa;    &lt;span style=&quot;box-sizing: border-box; color: rgb(215, 58, 73);&quot; class=&quot;hljs-keyword&quot;&gt;return&lt;/span&gt; userRepo.saveUser(&lt;span style=&quot;box-sizing: border-box; color: rgb(215, 58, 73);&quot; class=&quot;hljs-keyword&quot;&gt;user&lt;/span&gt;);&#xa;}&lt;/pre&gt;" style="text;whiteSpace=wrap;html=1;fontSize=14;fontFamily=Helvetica;" parent="1" vertex="1">
          <mxGeometry x="1210" y="100" width="470" height="570" as="geometry" />
        </mxCell>
        <mxCell id="xhAw2geh87z7_WKdA8rC-26" value="&lt;span style=&quot;box-sizing: border-box; font-weight: bolder; color: rgb(33, 37, 41); font-family: system-ui, -apple-system, &amp;quot;Segoe UI&amp;quot;, Roboto, &amp;quot;Helvetica Neue&amp;quot;, Arial, &amp;quot;Noto Sans&amp;quot;, &amp;quot;Liberation Sans&amp;quot;, sans-serif, &amp;quot;Apple Color Emoji&amp;quot;, &amp;quot;Segoe UI Emoji&amp;quot;, &amp;quot;Segoe UI Symbol&amp;quot;, &amp;quot;Noto Color Emoji&amp;quot;; font-size: 16px; background-color: rgb(255, 255, 255);&quot;&gt;将 隐性的 上下文 显性化&lt;/span&gt;" style="rounded=1;whiteSpace=wrap;html=1;sketch=1;fontFamily=Helvetica;fontSize=14;align=left;" parent="1" vertex="1">
          <mxGeometry x="300" y="710" width="210" height="60" as="geometry" />
        </mxCell>
        <mxCell id="xhAw2geh87z7_WKdA8rC-28" value="&lt;pre style=&quot;box-sizing: border-box; font-family: var(--bs-font-monospace); font-size: 0.875em; direction: ltr; unicode-bidi: bidi-override; display: block; margin-bottom: 1.25rem; overflow: auto; background: rgb(233, 236, 239); padding: 1rem; max-height: 35rem; line-height: 1.5; position: relative; font-style: normal; font-variant-ligatures: normal; font-variant-caps: normal; font-weight: 400; letter-spacing: normal; orphans: 2; text-align: start; text-indent: 0px; text-transform: none; widows: 2; word-spacing: 0px; -webkit-text-stroke-width: 0px; text-decoration-thickness: initial; text-decoration-style: initial; text-decoration-color: initial; margin-top: 0px !important; color: rgb(36, 41, 46);&quot; class=&quot;hljs language-kotlin&quot;&gt;金额与货币类型 封装为DP&lt;/pre&gt;&lt;pre style=&quot;box-sizing: border-box; font-family: var(--bs-font-monospace); font-size: 0.875em; direction: ltr; unicode-bidi: bidi-override; display: block; margin-top: 0px !important; margin-bottom: 1.25rem; overflow: auto; color: rgb(36, 41, 46); background: rgb(233, 236, 239); padding: 1rem; max-height: 35rem; line-height: 1.5; position: relative; font-style: normal; font-variant-ligatures: normal; font-variant-caps: normal; font-weight: 400; letter-spacing: normal; orphans: 2; text-align: start; text-indent: 0px; text-transform: none; widows: 2; word-spacing: 0px; -webkit-text-stroke-width: 0px; text-decoration-thickness: initial; text-decoration-style: initial; text-decoration-color: initial;&quot; class=&quot;hljs language-kotlin&quot;&gt;&lt;span style=&quot;box-sizing: border-box; color: rgb(0, 92, 197);&quot; class=&quot;hljs-meta&quot;&gt;@Value&lt;/span&gt;&lt;br&gt;&lt;span style=&quot;box-sizing: border-box; color: rgb(215, 58, 73);&quot; class=&quot;hljs-keyword&quot;&gt;public&lt;/span&gt; &lt;span style=&quot;box-sizing: border-box;&quot; class=&quot;hljs-class&quot;&gt;&lt;span style=&quot;box-sizing: border-box; color: rgb(215, 58, 73);&quot; class=&quot;hljs-keyword&quot;&gt;class&lt;/span&gt; &lt;span style=&quot;box-sizing: border-box; color: rgb(111, 66, 193);&quot; class=&quot;hljs-title&quot;&gt;Money&lt;/span&gt; &lt;/span&gt;{&lt;br&gt;    &lt;span style=&quot;box-sizing: border-box; color: rgb(215, 58, 73);&quot; class=&quot;hljs-keyword&quot;&gt;private&lt;/span&gt; BigDecimal amount;&lt;br&gt;    &lt;span style=&quot;box-sizing: border-box; color: rgb(215, 58, 73);&quot; class=&quot;hljs-keyword&quot;&gt;private&lt;/span&gt; Currency currency;&lt;br&gt;    &lt;span style=&quot;box-sizing: border-box; color: rgb(215, 58, 73);&quot; class=&quot;hljs-keyword&quot;&gt;public&lt;/span&gt; Money(BigDecimal amount, Currency currency) {&lt;br&gt;        &lt;span style=&quot;box-sizing: border-box; color: rgb(215, 58, 73);&quot; class=&quot;hljs-keyword&quot;&gt;this&lt;/span&gt;.amount = amount;&lt;br&gt;        &lt;span style=&quot;box-sizing: border-box; color: rgb(215, 58, 73);&quot; class=&quot;hljs-keyword&quot;&gt;this&lt;/span&gt;.currency = currency;&lt;br&gt;    }&lt;br&gt;}&lt;/pre&gt;" style="text;whiteSpace=wrap;html=1;fontSize=14;fontFamily=Helvetica;" parent="1" vertex="1">
          <mxGeometry x="841" y="750" width="380" height="240" as="geometry" />
        </mxCell>
        <mxCell id="xhAw2geh87z7_WKdA8rC-29" value="&lt;span style=&quot;box-sizing: border-box; font-weight: bolder; color: rgb(33, 37, 41); font-family: system-ui, -apple-system, &amp;quot;Segoe UI&amp;quot;, Roboto, &amp;quot;Helvetica Neue&amp;quot;, Arial, &amp;quot;Noto Sans&amp;quot;, &amp;quot;Liberation Sans&amp;quot;, sans-serif, &amp;quot;Apple Color Emoji&amp;quot;, &amp;quot;Segoe UI Emoji&amp;quot;, &amp;quot;Segoe UI Symbol&amp;quot;, &amp;quot;Noto Color Emoji&amp;quot;; font-size: 16px; background-color: rgb(255, 255, 255);&quot;&gt;封装 多对象 行为&lt;/span&gt;" style="rounded=1;whiteSpace=wrap;html=1;sketch=1;fontFamily=Helvetica;fontSize=14;align=left;" parent="1" vertex="1">
          <mxGeometry x="300" y="770" width="160" height="60" as="geometry" />
        </mxCell>
        <mxCell id="xhAw2geh87z7_WKdA8rC-30" value="&lt;pre style=&quot;box-sizing: border-box; font-family: var(--bs-font-monospace); font-size: 0.875em; direction: ltr; unicode-bidi: bidi-override; display: block; margin-top: 0px !important; margin-bottom: 1.25rem; overflow: auto; color: rgb(36, 41, 46); background: rgb(233, 236, 239); padding: 1rem; max-height: 35rem; line-height: 1.5; position: relative; font-style: normal; font-variant-ligatures: normal; font-variant-caps: normal; font-weight: 400; letter-spacing: normal; orphans: 2; text-align: start; text-indent: 0px; text-transform: none; widows: 2; word-spacing: 0px; -webkit-text-stroke-width: 0px; text-decoration-thickness: initial; text-decoration-style: initial; text-decoration-color: initial;&quot; class=&quot;hljs language-reasonml&quot;&gt;转帐汇率计算功能 封装为DP&lt;/pre&gt;&lt;pre style=&quot;box-sizing: border-box; font-family: var(--bs-font-monospace); font-size: 0.875em; direction: ltr; unicode-bidi: bidi-override; display: block; margin-top: 0px !important; margin-bottom: 1.25rem; overflow: auto; color: rgb(36, 41, 46); background: rgb(233, 236, 239); padding: 1rem; max-height: 35rem; line-height: 1.5; position: relative; font-style: normal; font-variant-ligatures: normal; font-variant-caps: normal; font-weight: 400; letter-spacing: normal; orphans: 2; text-align: start; text-indent: 0px; text-transform: none; widows: 2; word-spacing: 0px; -webkit-text-stroke-width: 0px; text-decoration-thickness: initial; text-decoration-style: initial; text-decoration-color: initial;&quot; class=&quot;hljs language-reasonml&quot;&gt;@Value&lt;br&gt;public &lt;span style=&quot;box-sizing: border-box; color: rgb(215, 58, 73);&quot; class=&quot;hljs-keyword&quot;&gt;class&lt;/span&gt; ExchangeRate {&lt;br&gt;    &lt;span style=&quot;box-sizing: border-box; color: rgb(215, 58, 73);&quot; class=&quot;hljs-keyword&quot;&gt;private&lt;/span&gt; BigDecimal rate;&lt;br&gt;    &lt;span style=&quot;box-sizing: border-box; color: rgb(215, 58, 73);&quot; class=&quot;hljs-keyword&quot;&gt;private&lt;/span&gt; Currency from;&lt;br&gt;    &lt;span style=&quot;box-sizing: border-box; color: rgb(215, 58, 73);&quot; class=&quot;hljs-keyword&quot;&gt;private&lt;/span&gt; Currency &lt;span style=&quot;box-sizing: border-box; color: rgb(215, 58, 73);&quot; class=&quot;hljs-keyword&quot;&gt;to&lt;/span&gt;;&lt;br&gt;&lt;br&gt;    public &lt;span style=&quot;box-sizing: border-box;&quot; class=&quot;hljs-constructor&quot;&gt;ExchangeRate(BigDecimal &lt;span style=&quot;box-sizing: border-box;&quot; class=&quot;hljs-params&quot;&gt;rate&lt;/span&gt;, Currency &lt;span style=&quot;box-sizing: border-box;&quot; class=&quot;hljs-params&quot;&gt;from&lt;/span&gt;, Currency &lt;span style=&quot;box-sizing: border-box;&quot; class=&quot;hljs-params&quot;&gt;to&lt;/span&gt;)&lt;/span&gt; {&lt;br&gt;        this.rate = rate;&lt;br&gt;        this.from = from;&lt;br&gt;        this.&lt;span style=&quot;box-sizing: border-box; color: rgb(215, 58, 73);&quot; class=&quot;hljs-keyword&quot;&gt;to&lt;/span&gt; = &lt;span style=&quot;box-sizing: border-box; color: rgb(215, 58, 73);&quot; class=&quot;hljs-keyword&quot;&gt;to&lt;/span&gt;;&lt;br&gt;    }&lt;br&gt;&lt;br&gt;    public Money exchange(Money fromMoney) {&lt;br&gt;        not&lt;span style=&quot;box-sizing: border-box;&quot; class=&quot;hljs-constructor&quot;&gt;Null(&lt;span style=&quot;box-sizing: border-box;&quot; class=&quot;hljs-params&quot;&gt;fromMoney&lt;/span&gt;)&lt;/span&gt;;&lt;br&gt;        is&lt;span style=&quot;box-sizing: border-box;&quot; class=&quot;hljs-constructor&quot;&gt;True(&lt;span style=&quot;box-sizing: border-box;&quot; class=&quot;hljs-params&quot;&gt;this&lt;/span&gt;.&lt;span style=&quot;box-sizing: border-box;&quot; class=&quot;hljs-params&quot;&gt;from&lt;/span&gt;.&lt;span style=&quot;box-sizing: border-box;&quot; class=&quot;hljs-params&quot;&gt;equals&lt;/span&gt;(&lt;span style=&quot;box-sizing: border-box;&quot; class=&quot;hljs-params&quot;&gt;fromMoney&lt;/span&gt;.&lt;span style=&quot;box-sizing: border-box;&quot; class=&quot;hljs-params&quot;&gt;getCurrency&lt;/span&gt;()&lt;/span&gt;));&lt;br&gt;        BigDecimal targetAmount = fromMoney.get&lt;span style=&quot;box-sizing: border-box;&quot; class=&quot;hljs-constructor&quot;&gt;Amount()&lt;/span&gt;.multiply(rate);&lt;br&gt;        return &lt;span style=&quot;box-sizing: border-box; color: rgb(215, 58, 73);&quot; class=&quot;hljs-keyword&quot;&gt;new&lt;/span&gt; &lt;span style=&quot;box-sizing: border-box;&quot; class=&quot;hljs-constructor&quot;&gt;Money(&lt;span style=&quot;box-sizing: border-box;&quot; class=&quot;hljs-params&quot;&gt;targetAmount&lt;/span&gt;, &lt;span style=&quot;box-sizing: border-box;&quot; class=&quot;hljs-params&quot;&gt;to&lt;/span&gt;)&lt;/span&gt;;&lt;br&gt;    }&lt;br&gt;}&lt;/pre&gt;" style="text;whiteSpace=wrap;html=1;fontSize=14;fontFamily=Helvetica;" parent="1" vertex="1">
          <mxGeometry x="841" y="1040" width="450" height="420" as="geometry" />
        </mxCell>
        <mxCell id="xhAw2geh87z7_WKdA8rC-35" value="" style="endArrow=none;dashed=1;html=1;rounded=0;sketch=1;fontFamily=Helvetica;fontSize=14;exitX=1;exitY=0.5;exitDx=0;exitDy=0;entryX=0;entryY=0.25;entryDx=0;entryDy=0;" parent="1" source="xhAw2geh87z7_WKdA8rC-26" target="xhAw2geh87z7_WKdA8rC-28" edge="1">
          <mxGeometry width="50" height="50" relative="1" as="geometry">
            <mxPoint x="630" y="950" as="sourcePoint" />
            <mxPoint x="830" y="740" as="targetPoint" />
          </mxGeometry>
        </mxCell>
        <mxCell id="xhAw2geh87z7_WKdA8rC-36" value="" style="endArrow=none;dashed=1;html=1;rounded=0;sketch=1;fontFamily=Helvetica;fontSize=14;entryX=1;entryY=0.5;entryDx=0;entryDy=0;exitX=-0.009;exitY=0.119;exitDx=0;exitDy=0;exitPerimeter=0;" parent="1" source="xhAw2geh87z7_WKdA8rC-30" target="xhAw2geh87z7_WKdA8rC-29" edge="1">
          <mxGeometry width="50" height="50" relative="1" as="geometry">
            <mxPoint x="510" y="970" as="sourcePoint" />
            <mxPoint x="560" y="920" as="targetPoint" />
          </mxGeometry>
        </mxCell>
        <mxCell id="xhAw2geh87z7_WKdA8rC-38" value="" style="endArrow=none;dashed=1;html=1;rounded=0;sketch=1;fontFamily=Helvetica;fontSize=14;exitX=1;exitY=0.5;exitDx=0;exitDy=0;" parent="1" source="xhAw2geh87z7_WKdA8rC-18" edge="1">
          <mxGeometry width="50" height="50" relative="1" as="geometry">
            <mxPoint x="640" y="630" as="sourcePoint" />
            <mxPoint x="830" y="420" as="targetPoint" />
          </mxGeometry>
        </mxCell>
        <mxCell id="xhAw2geh87z7_WKdA8rC-42" value="接口参数是否容易混淆" style="ellipse;whiteSpace=wrap;html=1;fontSize=14;align=left;rounded=1;sketch=1;" parent="1" vertex="1">
          <mxGeometry x="500" y="315" width="190" height="70" as="geometry" />
        </mxCell>
        <mxCell id="xhAw2geh87z7_WKdA8rC-44" value="方法是否参杂业务无法的判断" style="ellipse;whiteSpace=wrap;html=1;fontSize=14;align=left;rounded=1;sketch=1;" parent="1" vertex="1">
          <mxGeometry x="550" y="380" width="120" height="60" as="geometry" />
        </mxCell>
        <mxCell id="xhAw2geh87z7_WKdA8rC-46" value="业务是否包含无关的逻辑" style="ellipse;whiteSpace=wrap;html=1;fontSize=14;align=left;rounded=1;sketch=1;" parent="1" vertex="1">
          <mxGeometry x="575" y="440" width="120" height="60" as="geometry" />
        </mxCell>
        <mxCell id="xhAw2geh87z7_WKdA8rC-48" value="测试案例是否为指数性增加" style="ellipse;whiteSpace=wrap;html=1;fontSize=14;align=left;rounded=1;sketch=1;" parent="1" vertex="1">
          <mxGeometry x="510" y="500" width="120" height="60" as="geometry" />
        </mxCell>
        <mxCell id="xhAw2geh87z7_WKdA8rC-63" value="" style="shape=table;html=1;whiteSpace=wrap;startSize=0;container=1;collapsible=0;childLayout=tableLayout;sketch=1;fontFamily=Helvetica;fontSize=14;" parent="1" vertex="1">
          <mxGeometry x="60" y="1140" width="530" height="311" as="geometry" />
        </mxCell>
        <mxCell id="xhAw2geh87z7_WKdA8rC-64" value="" style="shape=tableRow;horizontal=0;startSize=0;swimlaneHead=0;swimlaneBody=0;top=0;left=0;bottom=0;right=0;collapsible=0;dropTarget=0;fillColor=none;points=[[0,0.5],[1,0.5]];portConstraint=eastwest;sketch=1;fontFamily=Helvetica;fontSize=14;" parent="xhAw2geh87z7_WKdA8rC-63" vertex="1">
          <mxGeometry width="530" height="78" as="geometry" />
        </mxCell>
        <mxCell id="xhAw2geh87z7_WKdA8rC-65" value="" style="shape=partialRectangle;html=1;whiteSpace=wrap;connectable=0;fillColor=none;top=0;left=0;bottom=0;right=0;overflow=hidden;sketch=1;fontFamily=Helvetica;fontSize=14;" parent="xhAw2geh87z7_WKdA8rC-64" vertex="1">
          <mxGeometry width="130" height="78" as="geometry">
            <mxRectangle width="130" height="78" as="alternateBounds" />
          </mxGeometry>
        </mxCell>
        <mxCell id="xhAw2geh87z7_WKdA8rC-66" value="DTO" style="shape=partialRectangle;html=1;whiteSpace=wrap;connectable=0;fillColor=none;top=0;left=0;bottom=0;right=0;overflow=hidden;sketch=1;fontFamily=Helvetica;fontSize=14;" parent="xhAw2geh87z7_WKdA8rC-64" vertex="1">
          <mxGeometry x="130" width="224" height="78" as="geometry">
            <mxRectangle width="224" height="78" as="alternateBounds" />
          </mxGeometry>
        </mxCell>
        <mxCell id="xhAw2geh87z7_WKdA8rC-67" value="PO" style="shape=partialRectangle;html=1;whiteSpace=wrap;connectable=0;fillColor=none;top=0;left=0;bottom=0;right=0;overflow=hidden;sketch=1;fontFamily=Helvetica;fontSize=14;" parent="xhAw2geh87z7_WKdA8rC-64" vertex="1">
          <mxGeometry x="354" width="176" height="78" as="geometry">
            <mxRectangle width="176" height="78" as="alternateBounds" />
          </mxGeometry>
        </mxCell>
        <mxCell id="xhAw2geh87z7_WKdA8rC-68" value="" style="shape=tableRow;horizontal=0;startSize=0;swimlaneHead=0;swimlaneBody=0;top=0;left=0;bottom=0;right=0;collapsible=0;dropTarget=0;fillColor=none;points=[[0,0.5],[1,0.5]];portConstraint=eastwest;sketch=1;fontFamily=Helvetica;fontSize=14;" parent="xhAw2geh87z7_WKdA8rC-63" vertex="1">
          <mxGeometry y="78" width="530" height="77" as="geometry" />
        </mxCell>
        <mxCell id="xhAw2geh87z7_WKdA8rC-69" value="功能" style="shape=partialRectangle;html=1;whiteSpace=wrap;connectable=0;fillColor=none;top=0;left=0;bottom=0;right=0;overflow=hidden;sketch=1;fontFamily=Helvetica;fontSize=14;" parent="xhAw2geh87z7_WKdA8rC-68" vertex="1">
          <mxGeometry width="130" height="77" as="geometry">
            <mxRectangle width="130" height="77" as="alternateBounds" />
          </mxGeometry>
        </mxCell>
        <mxCell id="xhAw2geh87z7_WKdA8rC-70" value="数据传输" style="shape=partialRectangle;html=1;whiteSpace=wrap;connectable=0;fillColor=none;top=0;left=0;bottom=0;right=0;overflow=hidden;sketch=1;fontFamily=Helvetica;fontSize=14;" parent="xhAw2geh87z7_WKdA8rC-68" vertex="1">
          <mxGeometry x="130" width="224" height="77" as="geometry">
            <mxRectangle width="224" height="77" as="alternateBounds" />
          </mxGeometry>
        </mxCell>
        <mxCell id="xhAw2geh87z7_WKdA8rC-71" value="代表业务域中的概念" style="shape=partialRectangle;html=1;whiteSpace=wrap;connectable=0;fillColor=none;top=0;left=0;bottom=0;right=0;overflow=hidden;sketch=1;fontFamily=Helvetica;fontSize=14;" parent="xhAw2geh87z7_WKdA8rC-68" vertex="1">
          <mxGeometry x="354" width="176" height="77" as="geometry">
            <mxRectangle width="176" height="77" as="alternateBounds" />
          </mxGeometry>
        </mxCell>
        <mxCell id="xhAw2geh87z7_WKdA8rC-72" value="" style="shape=tableRow;horizontal=0;startSize=0;swimlaneHead=0;swimlaneBody=0;top=0;left=0;bottom=0;right=0;collapsible=0;dropTarget=0;fillColor=none;points=[[0,0.5],[1,0.5]];portConstraint=eastwest;sketch=1;fontFamily=Helvetica;fontSize=14;" parent="xhAw2geh87z7_WKdA8rC-63" vertex="1">
          <mxGeometry y="155" width="530" height="78" as="geometry" />
        </mxCell>
        <mxCell id="xhAw2geh87z7_WKdA8rC-73" value="数据的关联" style="shape=partialRectangle;html=1;whiteSpace=wrap;connectable=0;fillColor=none;top=0;left=0;bottom=0;right=0;overflow=hidden;sketch=1;fontFamily=Helvetica;fontSize=14;" parent="xhAw2geh87z7_WKdA8rC-72" vertex="1">
          <mxGeometry width="130" height="78" as="geometry">
            <mxRectangle width="130" height="78" as="alternateBounds" />
          </mxGeometry>
        </mxCell>
        <mxCell id="xhAw2geh87z7_WKdA8rC-74" value="无关联，按需存放数据" style="shape=partialRectangle;html=1;whiteSpace=wrap;connectable=0;fillColor=none;top=0;left=0;bottom=0;right=0;overflow=hidden;sketch=1;fontFamily=Helvetica;fontSize=14;" parent="xhAw2geh87z7_WKdA8rC-72" vertex="1">
          <mxGeometry x="130" width="224" height="78" as="geometry">
            <mxRectangle width="224" height="78" as="alternateBounds" />
          </mxGeometry>
        </mxCell>
        <mxCell id="xhAw2geh87z7_WKdA8rC-75" value="数据之间高相关性" style="shape=partialRectangle;html=1;whiteSpace=wrap;connectable=0;fillColor=none;top=0;left=0;bottom=0;right=0;overflow=hidden;pointerEvents=1;sketch=1;fontFamily=Helvetica;fontSize=14;" parent="xhAw2geh87z7_WKdA8rC-72" vertex="1">
          <mxGeometry x="354" width="176" height="78" as="geometry">
            <mxRectangle width="176" height="78" as="alternateBounds" />
          </mxGeometry>
        </mxCell>
        <mxCell id="xhAw2geh87z7_WKdA8rC-76" value="" style="shape=tableRow;horizontal=0;startSize=0;swimlaneHead=0;swimlaneBody=0;top=0;left=0;bottom=0;right=0;collapsible=0;dropTarget=0;fillColor=none;points=[[0,0.5],[1,0.5]];portConstraint=eastwest;sketch=1;fontFamily=Helvetica;fontSize=14;" parent="xhAw2geh87z7_WKdA8rC-63" vertex="1">
          <mxGeometry y="233" width="530" height="78" as="geometry" />
        </mxCell>
        <mxCell id="xhAw2geh87z7_WKdA8rC-77" value="行为&lt;span style=&quot;white-space: pre;&quot;&gt;&lt;/span&gt;" style="shape=partialRectangle;html=1;whiteSpace=wrap;connectable=0;fillColor=none;top=0;left=0;bottom=0;right=0;overflow=hidden;sketch=1;fontFamily=Helvetica;fontSize=14;" parent="xhAw2geh87z7_WKdA8rC-76" vertex="1">
          <mxGeometry width="130" height="78" as="geometry">
            <mxRectangle width="130" height="78" as="alternateBounds" />
          </mxGeometry>
        </mxCell>
        <mxCell id="xhAw2geh87z7_WKdA8rC-78" value="无行为" style="shape=partialRectangle;html=1;whiteSpace=wrap;connectable=0;fillColor=none;top=0;left=0;bottom=0;right=0;overflow=hidden;sketch=1;fontFamily=Helvetica;fontSize=14;" parent="xhAw2geh87z7_WKdA8rC-76" vertex="1">
          <mxGeometry x="130" width="224" height="78" as="geometry">
            <mxRectangle width="224" height="78" as="alternateBounds" />
          </mxGeometry>
        </mxCell>
        <mxCell id="xhAw2geh87z7_WKdA8rC-79" value="拥有业务域的行为逻辑" style="shape=partialRectangle;html=1;whiteSpace=wrap;connectable=0;fillColor=none;top=0;left=0;bottom=0;right=0;overflow=hidden;pointerEvents=1;sketch=1;fontFamily=Helvetica;fontSize=14;" parent="xhAw2geh87z7_WKdA8rC-76" vertex="1">
          <mxGeometry x="354" width="176" height="78" as="geometry">
            <mxRectangle width="176" height="78" as="alternateBounds" />
          </mxGeometry>
        </mxCell>
      </root>
    </mxGraphModel>
  </diagram>
  <diagram id="e6WRcSk255Bg2cV_zGF1" name="Entity &amp; Domain Service">
    <mxGraphModel dx="786" dy="1071" grid="1" gridSize="10" guides="1" tooltips="1" connect="1" arrows="1" fold="1" page="1" pageScale="1" pageWidth="827" pageHeight="1169" math="0" shadow="0">
      <root>
        <mxCell id="0" />
        <mxCell id="1" parent="0" />
        <mxCell id="JNcnS_u63ziuaeYBeUZ9-3" value="&lt;br&gt;由外部依赖的变化导致内部系统改造的程度判断代码的可维护性" style="rounded=1;whiteSpace=wrap;html=1;sketch=1;fontFamily=Helvetica;fontSize=14;" parent="1" vertex="1">
          <mxGeometry x="330" y="440" width="350" height="120" as="geometry" />
        </mxCell>
        <UserObject label="参考文章" link="https://zhuanlan.zhihu.com/p/343388831" id="ubuPuly70hXiZkEZ4ams-1">
          <mxCell style="fontColor=#0000EE;fontStyle=4;rounded=1;overflow=hidden;spacing=10;sketch=1;" parent="1" vertex="1">
            <mxGeometry x="130" y="90" width="150" height="40" as="geometry" />
          </mxCell>
        </UserObject>
        <mxCell id="wv85PT69GQOxw_p691W_-2" value="Entity 领域实体类&lt;br&gt;&lt;br&gt;拥有状态、可以内聚DP" style="rounded=1;whiteSpace=wrap;html=1;sketch=1;fontFamily=Helvetica;fontSize=14;" parent="1" vertex="1">
          <mxGeometry x="360" y="50" width="290" height="110" as="geometry" />
        </mxCell>
        <mxCell id="oEX1PyAN_TCCJpofBaqS-1" value="" style="shape=table;html=1;whiteSpace=wrap;startSize=0;container=1;collapsible=0;childLayout=tableLayout;sketch=1;fontFamily=Helvetica;fontSize=14;" parent="1" vertex="1">
          <mxGeometry x="240" y="1100" width="530" height="311" as="geometry" />
        </mxCell>
        <mxCell id="oEX1PyAN_TCCJpofBaqS-2" value="" style="shape=tableRow;horizontal=0;startSize=0;swimlaneHead=0;swimlaneBody=0;top=0;left=0;bottom=0;right=0;collapsible=0;dropTarget=0;fillColor=none;points=[[0,0.5],[1,0.5]];portConstraint=eastwest;sketch=1;fontFamily=Helvetica;fontSize=14;" parent="oEX1PyAN_TCCJpofBaqS-1" vertex="1">
          <mxGeometry width="530" height="78" as="geometry" />
        </mxCell>
        <mxCell id="oEX1PyAN_TCCJpofBaqS-3" value="" style="shape=partialRectangle;html=1;whiteSpace=wrap;connectable=0;fillColor=none;top=0;left=0;bottom=0;right=0;overflow=hidden;sketch=1;fontFamily=Helvetica;fontSize=14;" parent="oEX1PyAN_TCCJpofBaqS-2" vertex="1">
          <mxGeometry width="130" height="78" as="geometry">
            <mxRectangle width="130" height="78" as="alternateBounds" />
          </mxGeometry>
        </mxCell>
        <mxCell id="oEX1PyAN_TCCJpofBaqS-4" value="数据库DO" style="shape=partialRectangle;html=1;whiteSpace=wrap;connectable=0;fillColor=none;top=0;left=0;bottom=0;right=0;overflow=hidden;sketch=1;fontFamily=Helvetica;fontSize=14;" parent="oEX1PyAN_TCCJpofBaqS-2" vertex="1">
          <mxGeometry x="130" width="224" height="78" as="geometry">
            <mxRectangle width="224" height="78" as="alternateBounds" />
          </mxGeometry>
        </mxCell>
        <mxCell id="oEX1PyAN_TCCJpofBaqS-5" value="领域Entity" style="shape=partialRectangle;html=1;whiteSpace=wrap;connectable=0;fillColor=none;top=0;left=0;bottom=0;right=0;overflow=hidden;sketch=1;fontFamily=Helvetica;fontSize=14;" parent="oEX1PyAN_TCCJpofBaqS-2" vertex="1">
          <mxGeometry x="354" width="176" height="78" as="geometry">
            <mxRectangle width="176" height="78" as="alternateBounds" />
          </mxGeometry>
        </mxCell>
        <mxCell id="oEX1PyAN_TCCJpofBaqS-6" value="" style="shape=tableRow;horizontal=0;startSize=0;swimlaneHead=0;swimlaneBody=0;top=0;left=0;bottom=0;right=0;collapsible=0;dropTarget=0;fillColor=none;points=[[0,0.5],[1,0.5]];portConstraint=eastwest;sketch=1;fontFamily=Helvetica;fontSize=14;" parent="oEX1PyAN_TCCJpofBaqS-1" vertex="1">
          <mxGeometry y="78" width="530" height="77" as="geometry" />
        </mxCell>
        <mxCell id="oEX1PyAN_TCCJpofBaqS-7" value="功能" style="shape=partialRectangle;html=1;whiteSpace=wrap;connectable=0;fillColor=none;top=0;left=0;bottom=0;right=0;overflow=hidden;sketch=1;fontFamily=Helvetica;fontSize=14;" parent="oEX1PyAN_TCCJpofBaqS-6" vertex="1">
          <mxGeometry width="130" height="77" as="geometry">
            <mxRectangle width="130" height="77" as="alternateBounds" />
          </mxGeometry>
        </mxCell>
        <mxCell id="oEX1PyAN_TCCJpofBaqS-8" value="单纯的数据库表映射" style="shape=partialRectangle;html=1;whiteSpace=wrap;connectable=0;fillColor=none;top=0;left=0;bottom=0;right=0;overflow=hidden;sketch=1;fontFamily=Helvetica;fontSize=14;" parent="oEX1PyAN_TCCJpofBaqS-6" vertex="1">
          <mxGeometry x="130" width="224" height="77" as="geometry">
            <mxRectangle width="224" height="77" as="alternateBounds" />
          </mxGeometry>
        </mxCell>
        <mxCell id="oEX1PyAN_TCCJpofBaqS-9" value="&lt;span style=&quot;color: rgb(18, 18, 18); font-family: -apple-system, &amp;quot;system-ui&amp;quot;, &amp;quot;Helvetica Neue&amp;quot;, &amp;quot;PingFang SC&amp;quot;, &amp;quot;Microsoft YaHei&amp;quot;, &amp;quot;Source Han Sans SC&amp;quot;, &amp;quot;Noto Sans CJK SC&amp;quot;, &amp;quot;WenQuanYi Micro Hei&amp;quot;, sans-serif; font-size: medium; text-align: left; background-color: rgb(255, 255, 255);&quot;&gt;领域逻辑的实体类&lt;/span&gt;" style="shape=partialRectangle;html=1;whiteSpace=wrap;connectable=0;fillColor=none;top=0;left=0;bottom=0;right=0;overflow=hidden;sketch=1;fontFamily=Helvetica;fontSize=14;" parent="oEX1PyAN_TCCJpofBaqS-6" vertex="1">
          <mxGeometry x="354" width="176" height="77" as="geometry">
            <mxRectangle width="176" height="77" as="alternateBounds" />
          </mxGeometry>
        </mxCell>
        <mxCell id="oEX1PyAN_TCCJpofBaqS-10" value="" style="shape=tableRow;horizontal=0;startSize=0;swimlaneHead=0;swimlaneBody=0;top=0;left=0;bottom=0;right=0;collapsible=0;dropTarget=0;fillColor=none;points=[[0,0.5],[1,0.5]];portConstraint=eastwest;sketch=1;fontFamily=Helvetica;fontSize=14;" parent="oEX1PyAN_TCCJpofBaqS-1" vertex="1">
          <mxGeometry y="155" width="530" height="78" as="geometry" />
        </mxCell>
        <mxCell id="oEX1PyAN_TCCJpofBaqS-11" value="数据的关联" style="shape=partialRectangle;html=1;whiteSpace=wrap;connectable=0;fillColor=none;top=0;left=0;bottom=0;right=0;overflow=hidden;sketch=1;fontFamily=Helvetica;fontSize=14;" parent="oEX1PyAN_TCCJpofBaqS-10" vertex="1">
          <mxGeometry width="130" height="78" as="geometry">
            <mxRectangle width="130" height="78" as="alternateBounds" />
          </mxGeometry>
        </mxCell>
        <mxCell id="oEX1PyAN_TCCJpofBaqS-12" value="&lt;span style=&quot;color: rgb(18, 18, 18); font-family: -apple-system, &amp;quot;system-ui&amp;quot;, &amp;quot;Helvetica Neue&amp;quot;, &amp;quot;PingFang SC&amp;quot;, &amp;quot;Microsoft YaHei&amp;quot;, &amp;quot;Source Han Sans SC&amp;quot;, &amp;quot;Noto Sans CJK SC&amp;quot;, &amp;quot;WenQuanYi Micro Hei&amp;quot;, sans-serif; font-size: medium; text-align: left; background-color: rgb(255, 255, 255);&quot;&gt;每个字段对应表的&lt;/span&gt;&lt;span style=&quot;color: rgb(18, 18, 18); font-family: -apple-system, &amp;quot;system-ui&amp;quot;, &amp;quot;Helvetica Neue&amp;quot;, &amp;quot;PingFang SC&amp;quot;, &amp;quot;Microsoft YaHei&amp;quot;, &amp;quot;Source Han Sans SC&amp;quot;, &amp;quot;Noto Sans CJK SC&amp;quot;, &amp;quot;WenQuanYi Micro Hei&amp;quot;, sans-serif; font-size: medium; text-align: left; background-color: rgb(255, 255, 255);&quot;&gt;column&lt;/span&gt;" style="shape=partialRectangle;html=1;whiteSpace=wrap;connectable=0;fillColor=none;top=0;left=0;bottom=0;right=0;overflow=hidden;sketch=1;fontFamily=Helvetica;fontSize=14;" parent="oEX1PyAN_TCCJpofBaqS-10" vertex="1">
          <mxGeometry x="130" width="224" height="78" as="geometry">
            <mxRectangle width="224" height="78" as="alternateBounds" />
          </mxGeometry>
        </mxCell>
        <mxCell id="oEX1PyAN_TCCJpofBaqS-13" value="数据之间高相关性" style="shape=partialRectangle;html=1;whiteSpace=wrap;connectable=0;fillColor=none;top=0;left=0;bottom=0;right=0;overflow=hidden;pointerEvents=1;sketch=1;fontFamily=Helvetica;fontSize=14;" parent="oEX1PyAN_TCCJpofBaqS-10" vertex="1">
          <mxGeometry x="354" width="176" height="78" as="geometry">
            <mxRectangle width="176" height="78" as="alternateBounds" />
          </mxGeometry>
        </mxCell>
        <mxCell id="oEX1PyAN_TCCJpofBaqS-14" value="" style="shape=tableRow;horizontal=0;startSize=0;swimlaneHead=0;swimlaneBody=0;top=0;left=0;bottom=0;right=0;collapsible=0;dropTarget=0;fillColor=none;points=[[0,0.5],[1,0.5]];portConstraint=eastwest;sketch=1;fontFamily=Helvetica;fontSize=14;" parent="oEX1PyAN_TCCJpofBaqS-1" vertex="1">
          <mxGeometry y="233" width="530" height="78" as="geometry" />
        </mxCell>
        <mxCell id="oEX1PyAN_TCCJpofBaqS-15" value="行为&lt;span style=&quot;white-space: pre;&quot;&gt;&lt;/span&gt;" style="shape=partialRectangle;html=1;whiteSpace=wrap;connectable=0;fillColor=none;top=0;left=0;bottom=0;right=0;overflow=hidden;sketch=1;fontFamily=Helvetica;fontSize=14;" parent="oEX1PyAN_TCCJpofBaqS-14" vertex="1">
          <mxGeometry width="130" height="78" as="geometry">
            <mxRectangle width="130" height="78" as="alternateBounds" />
          </mxGeometry>
        </mxCell>
        <mxCell id="oEX1PyAN_TCCJpofBaqS-16" value="无行为" style="shape=partialRectangle;html=1;whiteSpace=wrap;connectable=0;fillColor=none;top=0;left=0;bottom=0;right=0;overflow=hidden;sketch=1;fontFamily=Helvetica;fontSize=14;" parent="oEX1PyAN_TCCJpofBaqS-14" vertex="1">
          <mxGeometry x="130" width="224" height="78" as="geometry">
            <mxRectangle width="224" height="78" as="alternateBounds" />
          </mxGeometry>
        </mxCell>
        <mxCell id="oEX1PyAN_TCCJpofBaqS-17" value="拥有业务域的行为逻辑" style="shape=partialRectangle;html=1;whiteSpace=wrap;connectable=0;fillColor=none;top=0;left=0;bottom=0;right=0;overflow=hidden;pointerEvents=1;sketch=1;fontFamily=Helvetica;fontSize=14;" parent="oEX1PyAN_TCCJpofBaqS-14" vertex="1">
          <mxGeometry x="354" width="176" height="78" as="geometry">
            <mxRectangle width="176" height="78" as="alternateBounds" />
          </mxGeometry>
        </mxCell>
        <mxCell id="oEX1PyAN_TCCJpofBaqS-18" value="对外部依赖的耦合，外部依赖的不合理会腐蚀内部系统，这时引入了一个防腐层（ACL）的概念，用来&lt;span style=&quot;color: rgb(18, 18, 18); font-size: 14px; text-align: start; background-color: rgb(255, 255, 255);&quot;&gt;有效的隔离外部依赖和内部逻辑。&lt;br&gt;功能：&lt;/span&gt;&lt;span style=&quot;color: rgb(18, 18, 18); font-family: -apple-system, &amp;quot;system-ui&amp;quot;, &amp;quot;Helvetica Neue&amp;quot;, &amp;quot;PingFang SC&amp;quot;, &amp;quot;Microsoft YaHei&amp;quot;, &amp;quot;Source Han Sans SC&amp;quot;, &amp;quot;Noto Sans CJK SC&amp;quot;, &amp;quot;WenQuanYi Micro Hei&amp;quot;, sans-serif; font-size: medium; text-align: left; background-color: rgb(255, 255, 255);&quot;&gt;适配器、缓存、兜底、易测试&lt;/span&gt;&lt;span style=&quot;color: rgb(18, 18, 18); font-size: 14px; text-align: start; background-color: rgb(255, 255, 255);&quot;&gt;&lt;br&gt;&lt;/span&gt;" style="rounded=1;whiteSpace=wrap;html=1;sketch=1;fontFamily=Helvetica;fontSize=14;" parent="1" vertex="1">
          <mxGeometry x="340" y="620" width="330" height="120" as="geometry" />
        </mxCell>
        <mxCell id="oEX1PyAN_TCCJpofBaqS-19" value="&lt;br&gt;由内部逻辑的变化导致内部系统改造的程度判断代码的可拓展性" style="rounded=1;whiteSpace=wrap;html=1;sketch=1;fontFamily=Helvetica;fontSize=14;" parent="1" vertex="1">
          <mxGeometry x="330" y="320" width="350" height="120" as="geometry" />
        </mxCell>
        <mxCell id="oEX1PyAN_TCCJpofBaqS-20" value="Domain Service&lt;br&gt;&lt;br&gt;涉及多个Entity状态改变的服务" style="rounded=1;whiteSpace=wrap;html=1;sketch=1;fontFamily=Helvetica;fontSize=14;" parent="1" vertex="1">
          <mxGeometry x="360" y="160" width="290" height="110" as="geometry" />
        </mxCell>
        <mxCell id="oEX1PyAN_TCCJpofBaqS-21" value="&lt;span style=&quot;font-weight: 600; font-synthesis: style; color: rgb(18, 18, 18); font-family: -apple-system, &amp;quot;system-ui&amp;quot;, &amp;quot;Helvetica Neue&amp;quot;, &amp;quot;PingFang SC&amp;quot;, &amp;quot;Microsoft YaHei&amp;quot;, &amp;quot;Source Han Sans SC&amp;quot;, &amp;quot;Noto Sans CJK SC&amp;quot;, &amp;quot;WenQuanYi Micro Hei&amp;quot;, sans-serif; font-size: medium; text-align: start; background-color: rgb(255, 255, 255);&quot;&gt;用Domain Primitive封装跟实体无关的无状态计算逻辑&lt;/span&gt;" style="rounded=1;whiteSpace=wrap;html=1;sketch=1;fontFamily=Helvetica;fontSize=14;" parent="1" vertex="1">
          <mxGeometry x="280" y="830" width="430" height="60" as="geometry" />
        </mxCell>
        <mxCell id="oEX1PyAN_TCCJpofBaqS-22" value="&lt;h3 style=&quot;margin: calc(1.90909em) 0px calc(1.27273em); font-variant-numeric: inherit; font-variant-east-asian: inherit; font-stretch: inherit; font-size: 1.1em; line-height: 1.5; font-family: -apple-system, &amp;quot;system-ui&amp;quot;, &amp;quot;Helvetica Neue&amp;quot;, &amp;quot;PingFang SC&amp;quot;, &amp;quot;Microsoft YaHei&amp;quot;, &amp;quot;Source Han Sans SC&amp;quot;, &amp;quot;Noto Sans CJK SC&amp;quot;, &amp;quot;WenQuanYi Micro Hei&amp;quot;, sans-serif; clear: left; font-synthesis: style; color: rgb(18, 18, 18); text-align: start; background-color: rgb(255, 255, 255);&quot;&gt;&lt;span style=&quot;font-synthesis: style;&quot;&gt;用Entity封装单对象的有状态的行为，包括业务校验&lt;/span&gt;&lt;/h3&gt;" style="rounded=1;whiteSpace=wrap;html=1;sketch=1;fontFamily=Helvetica;fontSize=14;" parent="1" vertex="1">
          <mxGeometry x="280" y="890" width="430" height="60" as="geometry" />
        </mxCell>
        <mxCell id="oEX1PyAN_TCCJpofBaqS-23" value="&lt;h3 style=&quot;margin: calc(1.90909em) 0px calc(1.27273em); font-variant-numeric: inherit; font-variant-east-asian: inherit; font-stretch: inherit; line-height: 1.5; clear: left; font-synthesis: style; text-align: start; background-color: rgb(255, 255, 255);&quot;&gt;&lt;font face=&quot;-apple-system, system-ui, Helvetica Neue, PingFang SC, Microsoft YaHei, Source Han Sans SC, Noto Sans CJK SC, WenQuanYi Micro Hei, sans-serif&quot; color=&quot;#121212&quot;&gt;&lt;span style=&quot;font-size: 15.4px;&quot;&gt;用Domain Service封装多对象逻辑&lt;/span&gt;&lt;/font&gt;&lt;/h3&gt;" style="rounded=1;whiteSpace=wrap;html=1;sketch=1;fontFamily=Helvetica;fontSize=14;" parent="1" vertex="1">
          <mxGeometry x="280" y="950" width="430" height="60" as="geometry" />
        </mxCell>
        <mxCell id="oEX1PyAN_TCCJpofBaqS-24" value="" style="shape=image;verticalLabelPosition=bottom;labelBackgroundColor=default;verticalAlign=top;aspect=fixed;imageAspect=0;image=https://pic1.zhimg.com/v2-44ebd98e1697c75e119aa1d94a8f7768_r.jpg;" parent="1" vertex="1">
          <mxGeometry x="1950" y="110" width="520" height="284" as="geometry" />
        </mxCell>
        <mxCell id="oEX1PyAN_TCCJpofBaqS-25" value="" style="shape=image;verticalLabelPosition=bottom;labelBackgroundColor=default;verticalAlign=top;aspect=fixed;imageAspect=0;image=https://pic3.zhimg.com/v2-5182bc6ecf7fe977b5968d9181a414aa_r.jpg;" parent="1" vertex="1">
          <mxGeometry x="1940" y="570" width="520" height="282" as="geometry" />
        </mxCell>
        <mxCell id="oEX1PyAN_TCCJpofBaqS-26" value="&lt;meta charset=&quot;utf-8&quot;&gt;&lt;pre style=&quot;margin: 0px; padding: calc(0.888889em); font-size: 0.9em; word-break: initial; overflow-wrap: initial; overflow: auto; background: rgb(246, 246, 246); border-radius: 4px; color: rgb(18, 18, 18); font-style: normal; font-variant-ligatures: normal; font-variant-caps: normal; font-weight: 400; letter-spacing: normal; orphans: 2; text-align: start; text-indent: 0px; text-transform: none; widows: 2; word-spacing: 0px; -webkit-text-stroke-width: 0px; text-decoration-thickness: initial; text-decoration-style: initial; text-decoration-color: initial;&quot;&gt;&lt;code style=&quot;margin: 0px; padding: 0px; border-radius: 0px; font-family: Menlo, Monaco, Consolas, &amp;quot;Andale Mono&amp;quot;, &amp;quot;lucida console&amp;quot;, &amp;quot;Courier New&amp;quot;, monospace; font-size: inherit; background-color: inherit;&quot; class=&quot;language-text&quot;&gt;public class TransferServiceImplNew implements TransferService {&#xa;&#xa;    private AccountRepository accountRepository;&#xa;    private AuditMessageProducer auditMessageProducer;&#xa;    private ExchangeRateService exchangeRateService;&#xa;    private AccountTransferService accountTransferService;&#xa;&#xa;    @Override&#xa;    public Result&amp;lt;Boolean&amp;gt; transfer(Long sourceUserId, String targetAccountNumber, BigDecimal targetAmount, String targetCurrency) {&#xa;        // 参数校验&#xa;        Money targetMoney = new Money(targetAmount, new Currency(targetCurrency));&#xa;&#xa;        // 读数据&#xa;        Account sourceAccount = accountRepository.find(new UserId(sourceUserId));&#xa;        Account targetAccount = accountRepository.find(new AccountNumber(targetAccountNumber));&#xa;        ExchangeRate exchangeRate = exchangeRateService.getExchangeRate(sourceAccount.getCurrency(), targetMoney.getCurrency());&#xa;&#xa;        // 业务逻辑&#xa;        accountTransferService.transfer(sourceAccount, targetAccount, targetMoney, exchangeRate);&#xa;&#xa;        // 保存数据&#xa;        accountRepository.save(sourceAccount);&#xa;        accountRepository.save(targetAccount);&#xa;&#xa;        // 发送审计消息&#xa;        AuditMessage message = new AuditMessage(sourceAccount, targetAccount, targetMoney);&#xa;        auditMessageProducer.send(message);&#xa;&#xa;        return Result.success(true);&#xa;    }&#xa;}&lt;/code&gt;&lt;/pre&gt;" style="text;whiteSpace=wrap;html=1;fontSize=14;fontFamily=Helvetica;" parent="1" vertex="1">
          <mxGeometry x="880" y="1060" width="1020" height="500" as="geometry" />
        </mxCell>
        <mxCell id="oEX1PyAN_TCCJpofBaqS-29" value="改造后" style="edgeStyle=orthogonalEdgeStyle;rounded=0;sketch=1;orthogonalLoop=1;jettySize=auto;html=1;entryX=0.5;entryY=0;entryDx=0;entryDy=0;fontFamily=Helvetica;fontSize=14;" parent="1" source="oEX1PyAN_TCCJpofBaqS-28" target="oEX1PyAN_TCCJpofBaqS-26" edge="1">
          <mxGeometry relative="1" as="geometry" />
        </mxCell>
        <mxCell id="oEX1PyAN_TCCJpofBaqS-28" value="&lt;meta charset=&quot;utf-8&quot;&gt;&lt;pre style=&quot;margin: 0px; padding: calc(0.888889em); font-size: 0.9em; word-break: initial; overflow-wrap: initial; overflow: auto; background: rgb(246, 246, 246); border-radius: 4px; color: rgb(18, 18, 18); font-style: normal; font-variant-ligatures: normal; font-variant-caps: normal; font-weight: 400; letter-spacing: normal; orphans: 2; text-align: start; text-indent: 0px; text-transform: none; widows: 2; word-spacing: 0px; -webkit-text-stroke-width: 0px; text-decoration-thickness: initial; text-decoration-style: initial; text-decoration-color: initial;&quot;&gt;&lt;code style=&quot;margin: 0px; padding: 0px; border-radius: 0px; font-family: Menlo, Monaco, Consolas, &amp;quot;Andale Mono&amp;quot;, &amp;quot;lucida console&amp;quot;, &amp;quot;Courier New&amp;quot;, monospace; font-size: inherit; background-color: inherit;&quot; class=&quot;language-text&quot;&gt;public class TransferController {&#xa;&#xa;    private TransferService transferService;&#xa;&#xa;    public Result&amp;lt;Boolean&amp;gt; transfer(String targetAccountNumber, BigDecimal amount, HttpSession session) {&#xa;        Long userId = (Long) session.getAttribute(&quot;userId&quot;);&#xa;        return transferService.transfer(userId, targetAccountNumber, amount, &quot;CNY&quot;);&#xa;    }&#xa;}&#xa;&#xa;public class TransferServiceImpl implements TransferService {&#xa;&#xa;    private static final String TOPIC_AUDIT_LOG = &quot;TOPIC_AUDIT_LOG&quot;;&#xa;    private AccountMapper accountDAO;&#xa;    private KafkaTemplate&amp;lt;String, String&amp;gt; kafkaTemplate;&#xa;    private YahooForexService yahooForex;&#xa;&#xa;    @Override&#xa;    public Result&amp;lt;Boolean&amp;gt; transfer(Long sourceUserId, String targetAccountNumber, BigDecimal targetAmount, String targetCurrency) {&#xa;        // 1. 从数据库读取数据，忽略所有校验逻辑如账号是否存在等&#xa;        AccountDO sourceAccountDO = accountDAO.selectByUserId(sourceUserId);&#xa;        AccountDO targetAccountDO = accountDAO.selectByAccountNumber(targetAccountNumber);&#xa;&#xa;        // 2. 业务参数校验&#xa;        if (!targetAccountDO.getCurrency().equals(targetCurrency)) {&#xa;            throw new InvalidCurrencyException();&#xa;        }&#xa;&#xa;        // 3. 获取外部数据，并且包含一定的业务逻辑&#xa;        // exchange rate = 1 source currency = X target currency&#xa;        BigDecimal exchangeRate = BigDecimal.ONE;&#xa;        if (sourceAccountDO.getCurrency().equals(targetCurrency)) {&#xa;            exchangeRate = yahooForex.getExchangeRate(sourceAccountDO.getCurrency(), targetCurrency);&#xa;        }&#xa;        BigDecimal sourceAmount = targetAmount.divide(exchangeRate, RoundingMode.DOWN);&#xa;&#xa;        // 4. 业务参数校验&#xa;        if (sourceAccountDO.getAvailable().compareTo(sourceAmount) &amp;lt; 0) {&#xa;            throw new InsufficientFundsException();&#xa;        }&#xa;&#xa;        if (sourceAccountDO.getDailyLimit().compareTo(sourceAmount) &amp;lt; 0) {&#xa;            throw new DailyLimitExceededException();&#xa;        }&#xa;&#xa;        // 5. 计算新值，并且更新字段&#xa;        BigDecimal newSource = sourceAccountDO.getAvailable().subtract(sourceAmount);&#xa;        BigDecimal newTarget = targetAccountDO.getAvailable().add(targetAmount);&#xa;        sourceAccountDO.setAvailable(newSource);&#xa;        targetAccountDO.setAvailable(newTarget);&#xa;&#xa;        // 6. 更新到数据库&#xa;        accountDAO.update(sourceAccountDO);&#xa;        accountDAO.update(targetAccountDO);&#xa;&#xa;        // 7. 发送审计消息&#xa;        String message = sourceUserId + &quot;,&quot; + targetAccountNumber + &quot;,&quot; + targetAmount + &quot;,&quot; + targetCurrency;&#xa;        kafkaTemplate.send(TOPIC_AUDIT_LOG, message);&#xa;&#xa;        return Result.success(true);&#xa;    }&#xa;&#xa;}&lt;/code&gt;&lt;/pre&gt;" style="text;whiteSpace=wrap;html=1;fontSize=14;fontFamily=Helvetica;" parent="1" vertex="1">
          <mxGeometry x="880" width="1030" height="970" as="geometry" />
        </mxCell>
        <mxCell id="G_hBddSE8_SuVt-HWnIo-1" value="" style="edgeStyle=orthogonalEdgeStyle;rounded=0;orthogonalLoop=1;jettySize=auto;html=1;" parent="1" source="G_hBddSE8_SuVt-HWnIo-3" target="G_hBddSE8_SuVt-HWnIo-4" edge="1">
          <mxGeometry relative="1" as="geometry" />
        </mxCell>
        <mxCell id="G_hBddSE8_SuVt-HWnIo-2" value="" style="edgeStyle=orthogonalEdgeStyle;rounded=0;orthogonalLoop=1;jettySize=auto;html=1;" parent="1" source="G_hBddSE8_SuVt-HWnIo-3" target="G_hBddSE8_SuVt-HWnIo-5" edge="1">
          <mxGeometry relative="1" as="geometry" />
        </mxCell>
        <mxCell id="G_hBddSE8_SuVt-HWnIo-3" value="什么是状态&lt;br&gt;举例：教室座位是否有编号，学生进入教室是否按号就坐" style="rounded=1;whiteSpace=wrap;html=1;" parent="1" vertex="1">
          <mxGeometry x="470" y="1470" width="120" height="60" as="geometry" />
        </mxCell>
        <mxCell id="G_hBddSE8_SuVt-HWnIo-4" value="该对象是否存在生命周期" style="whiteSpace=wrap;html=1;rounded=1;" parent="1" vertex="1">
          <mxGeometry x="360" y="1590" width="160" height="40" as="geometry" />
        </mxCell>
        <mxCell id="G_hBddSE8_SuVt-HWnIo-5" value="程序是否需要追踪该对象的变化事件" style="whiteSpace=wrap;html=1;rounded=1;" parent="1" vertex="1">
          <mxGeometry x="580" y="1580" width="120" height="60" as="geometry" />
        </mxCell>
        <mxCell id="SoXAvrAE_Sf0-WpB5VaT-1" value="" style="shape=image;verticalLabelPosition=bottom;labelBackgroundColor=default;verticalAlign=top;aspect=fixed;imageAspect=0;image=data:image/png,iVBORw0KGgoAAAANSUhEUgAAAycAAAJ0CAIAAACHpssTAAABRmlDQ1BJQ0MgUHJvZmlsZQAAKJFjYGASSSwoyGFhYGDIzSspCnJ3UoiIjFJgf8bAxiDOwMMgw8CTmFxc4BgQ4ANUwgCjUcG3awyMIPqyLsgs3/qiGZ6/nWJ+N6wKXn5BWglTPQrgSkktTgbSf4A4PbmgqISBgTEFyFYuLykAsTuAbJEioKOA7DkgdjqEvQHEToKwj4DVhAQ5A9k3gGyB5IxEoBmML4BsnSQk8XQkNtReEOB1cfXxUXAxMjEydAkm4F6SQUlqRQmIds4vqCzKTM8oUXAEhlKqgmdesp6OgpGBkREDAyjMIao/i4HDklHsFEIs7xEDg/lcIGMpQizJlYFhVwPQG/sQYqrrgV55zMBw8FRBYlEi3AGM31iK04yNIGyeIgYG1h///3+WZWBg38XA8Lfo///fc////7uEgYH5JgPDgUIAwo9g2C/auqwAAABsZVhJZk1NACoAAAAIAAQBGgAFAAAAAQAAAD4BGwAFAAAAAQAAAEYBKAADAAAAAQACAACHaQAEAAAAAQAAAE4AAAAAAAAASAAAAAEAAABIAAAAAQACoAIABAAAAAEAAAMnoAMABAAAAAEAAAJ0AAAAAJX63yUAAAAJcEhZcwAACxMAAAsTAQCanBgAAEAASURBVHgB7J0FgF3F9cbfe6txJUiQhJDiXtwJUGiLQ5EChVC0uHspWgoFihUr7gUKBNegyR8tSYEQQgRLiHtW3/v/7j27k5v7dHff7r63+w3h7tyZM2fOfFfme2fkRhOJRERBCAgBISAEhIAQEAJCoJURiLWyfqkXAkJACAgBISAEhIAQ8BAQ69J9IASEgBAQAkJACAiBtkBArKstUFYdQkAICAEhIASEgBAQ69I9IASEgBAQAkJACAiBtkBArKstUFYdQkAICAEhIASEgBAQ69I9IASEgBAQAkJACAiBtkBArKstUFYdQkAICAEhIASEgBAoFQRCQAgIASEgBISAEBACuSBgu5xGo1GEM+94ajIhnWJdIUB0KgSEgBAQAkJACAgBh0A8kmgcGExEEnH4VjwarY9EopF4or6+vo5DdEEkVhqLlkWjFdFIRWkiEosmIqXxSKQ2kihr2KXL42kRsS4HqyJCQAgIASEgBISAEFgGgcAHfBJ1dfG6uvpEPB5P1PF/Ih6rrauvqa+Px2oS0fpYrL60BLZV162ksqIMFpaIRqBpiUg04fxe0cz+sWVq1okQEAJCQAgIASEgBDoTAjisCJ6TK1JfU1tdUx2vqUssqUnU1ZbEopVlZSWRkgjjjXWJCJJQsUhicWWsvFtlaUW55/uiLP+XxCJR318m1uXDqYMQEAJCQAgIASEgBJIQqGWYMBGprquuSVTXVlUuWhBJREs/Gzd7zGfzPv+0bMzY8fMXxuuqZvXq3231NQb+avfe627Ye/UV+kTqI/2Xi3Ypi1SWwL081oUXDI+XWFcSwEoQAkJACAgBISAEOjcCDCza2CIzs6rq44uqqhbX1S2a3/2HyYmbbhn11ZSa6qqS0pLl44nySLRrPF5TUlpTH19YWzOzsjIxdHD3k0/aYp21Yl0rIt3L6ivKouWxSAU+L8YcNcLYue8rtV4ICAEhIASEgBBYBgGjXBwZMayNxhfXJeYvWjJ3YeTjUUtuuum92fMrFsdXKC/vGUl0iZVUJhIljC7G40tiJTC1JfX1i+uqJq+wXJcTjttk+2379OtR3a2itEtZtGs0Fi0R61oGZ50IASEgBISAEBACnR0Bm8vFdHkmyy+oXjyvOrZoScndd45847XojKq+iZL+kUgvb6Y87itvulaMyfUJps5z7g0jwsFqI/VzupV9v/uu1Scdu0vvHiXdKmM9SyKlJYw0KggBISAEhIAQEAJCQAgsRSDOdhFsDrGoqramunLJ/Mr/e2/BiyMW/1T1i0T5wERpt3isNB4ricdiiDHLnp0iIGreksWoV7CupLKubPn5dWv+57nYO+8vXLi4ZPGS+KL6CDtMiHUtxVgxISAEhIAQEAJCQAgkIvXxeHVdXXVtbWLJkti4rxI33/z2wsSgkpKKRKLc+xeNehtHsFNXor4uXs0Rt5c/LsloYwlZLGWMlZYnSle8/h8jx45jZlhJTX1dTcPOXQJYCAgBISAEhIAQEAJCwEfA32UrzgaoNdV1tbV1Dzw4asacaKS0bzTKBqglUKr6eL1HuvBzRXF4sS2ER7MoitOLf8wHY5QRyVh57wWLutx+x+g58+tq45G6pdutCmghIASEgBAQAkJACAiBAALwqymTZ34+bmZJ17VKSirZoAviBMOCXsGrFlfNnz/nx3lzf6qrWxKBU7FdRENguwk28IrVxUvLuqw56bv4hCmzltQm6uM12pu+ESL9FQJCQAgIASEgBDo9AgwPljCGWF8Wr6muidd+PCFRX7JaoqRvXaRbrTd/C3bFxqjsUD91v31W3/s3/ZnM9dhT9W+9+XO0pEckUsbsrmiiwuNlLGyMVVRFymrj/b+bGN14nZqaujLN6+r095cAEAJCQAgIASEgBPy95aFKPmFiknx9TU1tl6693nqjti7eLR4pq4vXeGsVEUgwVLikW2VtfW30xBPHHHP06L79uvfqyUR6CBlZHi3ztqv3NqYviUDh4qXvvJ3o0qUrHxQS69KNJgSEgBAQAkJACAgBhwCT5JmWFa+rj9fVRr8ZPzESK6/j3Pukoj/jy+NU0ZLSipKScthZrLRk0aJEaVlZKd+/NtLmfXYRfgXr4sigYtl///sZ26pW12iE0YGsiBAQAkJACAgBISAEPAS8pYmxaLS8LFK1pKa+SyKOx8pbpsi4IU4sPFgVc+dV9+69+IE7NoFh/fuVBTOmzy4t6xWNlXm5XoByeZO4vM8AxbouqYr17tV10bw58nX54OggBISAEBACQkAIdGoEYEQN//yxwYTHmkrj9XFmytd723JF2G4r5v2LJKpr5q6z7gorrxo79Nixx5z+/UYbl669Tv+qqjnxxOJYJG4er7injTWNTPSK1SW6sFlXSVS7pHbqO0yNFwJCQAgIASEgBJZBAOcU28t707I8r1aiogIWVecPFrJHF/tBeBO7apbMP/jQ5W68/qdorPeiRfErLp1w4tEDV1i+R+9eUW8k0ts/gkBByhGtrawgDacXm0woCAEhIASEgBAQAkJACCyDgMe+qmsSQ9YYzAR5HFywJj6lGPUIVaKyW5+ZUxdXVUfLynqUlnWvi3S98Y6Fm26+0gYb9YWZQa4QgnD57K0uEV+8zrq/qK6GhPnur2Vq0YkQEAJCQAgIASEgBDo3AnHf07VwQdX2O/YqidR4PiqfdEUiNdFYHVPp/3lXTaykSzzBvqnl0UjlzOkzSkq7zJ8736dbUDRYF56tulhiYSwya8sta5kfphHGzn1PqfVCQAgIASEgBITAsgh4n/PxBgZL2Y2+NFa9ySbdykpnJBJzE3HvSz/+0GE0VlIZZ+v5ki6sT4xEyxKxLgurur/88vSPP+NDQJXsVO9PEOMLjfNj9fMrS+ZttElFRVmivLyLRhiXBVtn7YeAdzfb/dx+NqhmISAEhIAQ6OQIeCOLHuGKlpSVdO1escrK/dffcI2a6qlMz4onvE//+FPkWajo0TJvoWICxxburvJYrLK8rBsdGfQsytpFhhr54HXd4tVXH7TG0AEleLqiHhtTyCcCbcMbPHrSCgRlEVuOBNQuXrw4n9Bk0xX3f0Zkk1K+EBACQkAICIHWRSAaw5EVqSjzaFTXLrHDDhvUr0+8rnqm78Typnj51TOI6E/y8k5xjsHDOPWHFhtm07Pr17y+veoPOXhIj25QuGhpCYoV8o2AERc4RD37rLVCqK3lA098aIBVrPkJpurRRx/99a9//e2333qELpH4+uuvd99992+++SY/dWTTQo1MPyRkFgy1mtNQCsVJAXkonFOFchI5uhRFhIAQEAJCQAikRoC+IuqPL0ailaVl3brG11krcsLxG/YomxWrqWETiJjnyfKWJnr/cGnBuLxA/4XfC39WtC5RUs9porokPvH4YwZtvVmsWyzSrTRSUeI5xxTyg4B16vglq6qqxo8fX1dXN3jw4N69e3ueyryGsrKyefPmcezSpUseld90002TJ09esmSJ6Zw0adK77767cOHCvNoeVgZos2bN+uGHH2iRVd2zZ891112XY1jUPw/RstCpFUlOpEXWqJQ6lSgEhIAQEAJCIIxAFHdXvCwe7VbOL/mSXbbvM3Fc7QsvfLykdtVYoh9ftYZwJaIxfyyRTVMhat7uEtE4PrLS0khNpG5OWeLb3Yd123mnAeVlNeWxivKS0pKSErGuMM7NPsfV6H0rIBLZZ599/vvf/+JuWX755f/3v/81W2G6gvChP/zhD4ceeuhxxx0Ha8kjn+CGKC8vD9a79tprB09bGMfh5PMfj4bW1NT8/e9/f/bZZ+fPn0985513HjRoENzr3//+d/fu3ceMGRNsmsUvueQSJP/6179yik/u888/Hzt2LKpgaQcccAARgwKFIHPHHXcYdYMBv/rqq3PnzoXVgdsvfvGLFrZCxYWAEBACQqDDI4DDhG0iSnF3xUqiFTE6rT/8fuu1frH4tls/XrBoWjS6fCLSFUpWEi2vZztURD3HVzwarymLLqqv+qZPz7ojj9x015169umeqCwrqSiNl3rbq8rXlccbJxrh8+QHHXTQd99999FHH82ZM2e33XZ74IEHDj/88DwSI+ydPn06ZG7FFVdErfGYfDWitJQPSZWZNpgNkcrKymTlbrTOvEqh1lEQASsVFDBTcZ7Blv7zn/889thjTCPr1avXm2++OWTIEFfLTjvttMcee7hTeNXPP/8Mf0KYUj/99NPjjz/OhDP8fCRyxKcIo9p7773ff/99WCPGgP/rr7++/vrrQ3wxplu3bj169IBN4lTjioh1OWwVEQJCQAgIgQwIQKVKvAnz3iSv3t0r4vWRnXdYbsig3a+6+q3vpn1fVdMlUtI/VsLgYWWULboStWyemqifV1o6d9WB8XPO3mODDSKVZYmulbFS3F8xb8KXN3CZoT5lNRWBDz/8EA7x3nvvrbLKKhUVFQwvugG7pqrKKo9nCBnjRlmFUwpQNkSYoCbwGEsPZQU1uCG8lLVTEPZj8kEB4oy94m1i4PK0006DGBFnjhr0EWGTpKwxKlcdRY499ljE+vTpM2PGDJjWrbfeOnDgQCL9+vXDK4b3C2EKvvjii/fddx/2458DdpjcDTfcwCUg9OnTt7KyYurUqcsttxwVZWiaq1cRISAEhIAQ6LwIsNYwyncXE7GSWDmDht6SxkhJj4olbIc6JHrXHTuO+Xr2mDEL3h9dPe7L/y1aXBqLx/r267PG6stvt02/9dZZZcO1evXsFi0vj5eXxspifAbI+xKQN20Z4kUnpJAvBLbffvvhw4ejDS/LtGnTcMCENOPvqa6uxn/DDCqyzGlkMnh04BPkuiJTpkzBM+SdstOtHywLpw4uIgYxvRw/fPrpp/AMqMnTTz/90YcfkbZgwYIrr7wSdrLffvvhWzIlMBgCp99//72pckc8Rpttttk666wzc+ZM03n11VdzhzgBIsgwAvjUU0/tuuuuq622Gn6j119/g3STf+ihh3784UdOacjFF1+MwPHHH89gKCkuIDlhwgRsI4X4FltsseWWW1oup0Rw46211lrgYInUaOl2ijCMCu5lpxzJNYdWMIXBR2p3mi0LSYITU0QICAEhIASEQI4IMHBSW5uoqkksWBKfuTD+/czqb6dVTZpZ//XUuslz41MWxKfMi0+cGf92mvdv4k9V30+fO3PugvlLFtbg/KrzKqnz+/FEPXtJKOQJgU8++QRCA+tCH94g3CpPPvlkUDe442W57rrrYC2vvfqayyKdOMzpT3/6EzOQ7PS2225jrG2bbbZxYi7CICDOJIgXKffddz/s51e/+hU+Nsbg/vznP598yslouOyyy+A3TIQaOXLkSSedBOFAGPfb9ddfjzxuIfiQU+gijDC6eV0Iu3SLMJB38MEHX3jhheeffz6DfT/++OPFF19EFtyI42GHHfbEE09AE/FgvfXWW2edddbtt9/+zDPPBJXQ/NVXXx0HVTDR4mQxAshkNQYEf//731uijRgGhREj0ECCpTvHmxODh1l7XQoR/2NYXoIrGMxVXAgIASEgBIRAOgRYXo+vq9z7F+1SHu3ZtaxP97LK0rrKktpoTW20mmNVWXxxRcmi7hVLevaI9+pe2a1rZZeyitISvGWeVkYq6bz4XyOM6UBuWjp9OTyDwbKhQ4dayWQ2gC8KNwxM6He/+92SqiUrrbTSv/71L3ZnoCwXgxE0wldfffXb3/4WLxfk7JBDDkEAn9kKK6wwZ/ac2YRZs+fOm/vll19CdKBucAtmLDH1aocddsBTxVgbVVD7G2+88fDDDzOEh2cI9xveIzMJ5dAymBNi2267LV6rzTffHDvRw5EQZF1wO8ZJKWjmEWGOGhqYnA69w6nGUOD+++9PrpsK1q9/vxEjRrDlxMSJE5Hfc889aaNVbXo4Wl20FxtoBTWiAZ6E5r/85S9vv/02hmHVGmuscfTRR+Oos4JQLG5XC96N6w8p4rcDKObPrewH9Fg6EYKJkYKHa+bMGcCI2RlWR5pyHYWAEBACQkAIpESAzgfuxcAjI4Z0OBXlZfGuXsT/InZZJI4DIu5therthooIg5Mp1Ih1pQClGUkMvTE2h/8JF5crDo9xcSLwgBNOOIGFjRdddBF7JZByzDHHPPLII/AM4vh4cC+NHj2aOIRpu+22G37UcIbt4Eb4wC6//HIikAm21GKeOJqZcg7P69u3LwVJh80wcodzCAZz3nnn4XAysmVHBGA5DPn179//3HPPZSAPDZA/yNMvf/lLaiSXgiQSOCVwasSltqa2vKKcSVF/+9vfIF5s63XttddCmO6++24WHpqwHWk7pt544412yjBfMBdtQTIEV4NyIQAZgmiOGzcO7oQ9KCH9tddeYxUCPjxa5xdk8aNnmFlIFTjbKEhDsOTmm2+2NYwIUAU0FI8dHjWGca+44gpWHuClI6y66qqgDU+1dgVtU1wICAEhIASEQFYE6IfoJPmJX8//iShHtobkVz6dWRQ/GLnemRcCqmx5md+3+pvZB7IUbRYC9PQMtzFAttdeey2L9TLqIBaE9dZbDxcUM6jw02ywwQaseWRsEScZhAlKAbnBZXXOOec8//zz3rS7SIRpTByZGM7goCn/+OOPEaYINIUU+BaMhBQmksPboBr4xq666qpg3chQNV6oTTfdFH8PAYcZ7jEMZm47E88pbqpoixVkhplFoFwwMGgco4ennnoqvI1pWzA26A4Ba7t27YokLIdNH8gdNmxYsOpg3Ox3RyLMTsMYDIBmwSYdLYNOQQShXK44s9lIYdfWjTfemHn0kLbTTz8dsmWrLM2FRnGmrIEPkvBXGCo8mGaeeeaZgwYNcsqdTkWEgBAQAkJACDQVAXZILWWjCJ9sNXaa5hqg2w7yLVPs863GOuTrakSiBX8BHb8LA16/+c1vkrt2l8IgFx4XHEWkEOANDz74IEVY0MduCPhgjL6cccYZeIk22mgjGBi8hBWRZhpFLEJBSFJwTwdcXbGYt9UWWVjCIKYJG7+hFHwOHkPtjOJxCkehOqudWV8vvfSS+ZBItyo4wrQsTiJjm7AZBk+ZdgavMg3YwFQ2LMcHRgoK2QwC4gVVMreZq930uCO2uSz4E/48HHumk7rMAca8NIYvLRHbiOCmYp4+tROBOxpNJAttBCKU5fjFF18gwLWAzI14bkT/5TxrTQYBSnGqIASEgBAQAkKgBQgspVaN3Rn91NLEDJrFujKAk1uWx3f5xqVHiXA10cETsctAnAiBXaYgLji3iOOq8dfSeevp8A/BkyBDFOnR3ZuhReIHH3wA4bCdqKAvLE4kl3RjGMQtoJAI6XYKpbAIji7mRRGnLkux+ORJkyE0jCciaVlsvgBRwy2EAHoIlm7HAEGJUhfDl4yNQnqMjSFDYPYY7jqrBeVQKNxL6AmUdSY0RCjlTKUIjcJpRxGyyaIgzrMLLrgA3+H9999vJmEh2/mysJGtUyF/mEFBhClibTFkSEGeeXJbb721Ddr27dcXAZebwaqwlToXAkJACAgBIZAJgaU9rC8VOk1bchnHV1opZWRDgIFdAlPC6eONEFCCFCsHFYAxMJJos8shDMgQcN4wIYy5R5CDrix4qKxkEJCRSkYYGbyD35BuSpwqFMIeqMW2ZSfdVDkDoT5sGOFOXWTU6FGMSHLqLGQ3UaaiX3PNNSQ6/WizIo6j+LvpemmYxJHiFh55+BEWadoGDZTCVJx2CDgNXpmkYC2iOgIKnTCnyHKKp+quu+7CAcaEeitNdRhIHEAIkDA/xcu04r6ypQdkTBtiJuAiplBHISAEhIAQEALtgoBYV4th9ykUc8BxHTH1ipV9aHS9PlO5mcXFXC7cV5AMPlZj9cEGmFl1xBFH7Lzzzkw8IhGnFy4caBBzp8yXwzR2ipiqoJWQM3xUMDZyHf9AwLgFI4zmPAsVpBR8DjF4D7yE2tl9FDrIaB2JHp3xCY2bzoVyJnJZvQwaUpwabREAicyauviSi/Fs0TqzgRHGho3BGrmmlcUMNGMVI6dMe6d2sxME2BeDXFLwb3FEBgCZg8ViApZemhhKjGUSQZhEo4MU59QFq8uOWE6NFjfWFcxVXAgIASEgBIRAeyEg1pUf5AcNGsRGD+yqAGdCI509FIeZ8uyewA4I9917H4OPTP2G07B1KntxHXjggWz9MHjw4HvvvRfqYMSFgmykzgAZxeEWNbU1jj0ErYTeMf4IU6Egki6YDJwDbxAkxhXBX0YcS5jtxPT5O++8c999991ll11s6wojLsb54FVMxreCjFQysMgkdwRwnh111FH4xlg4STNhS+zpQLv41iHCVhcIwCnNGNPgjrQOtcz6YiZZUADHHllQzLKyclx3DAuyLpJlBJtssgllqZcj8k4P895omvFCy3VZwQhtAT0EaDi2WeCUEBRTXAgIASEgBIRAGyMg1pUfwOnm+Sozc8CZ/M5AHnOV8CFBNdjjgP0dSstKoQsQHXZDgNmw/wIzvViCxxambP3g2MCoUaPwdYU2VQ+u4zNb8Sqx1yj8jO27oBSuOBHoEZt+URf2OL5iQ4QsLYQ5Maeez+awLpLdK1gVyMQyxCjIESLInDNXHfbvuOOO1EIW5I/NUdm6gqqZnYY8ZJHZV0HsmExmPrZgInGKEz788CMazlZhxM1gLGevDRTyzcqNN95op512wl/4yiuv0HzjTEiGVOEAMwpFuikJCdipreWEnFVVeVPiFISAEBACQkAIFAgCDV1ggVhT7GbACXBxEerr6nHMrLraqhAIEmmXMRtcO0QIFjFiYSnE7dSBwAR2BvLYqpQ9t5Ahl6PlshwS5xmUiFNUWSK58BjYhs3fcnqCEdPgKgqqdYlB+dzjWFtdVc0EdvSEVFELfjVcWaxw9BQyCY5d5eJxtnjgjFWQDJjiRWOmv+N8KevFE4YrEWcYFM1QTSlG7VtttRXMki3yoaFmTPCYspQShYAQEAJCQAi0NgJaw5hPhOnaWeVHgGcYrzJyQNyxBGQI1Mp8MMQInDrmFLQGCsIopJMhYrmowi1kp8GCpJDuKgqqcgWtam9uOvuN+FWTRSJxHFpBS0hhsNKtFkzWFkrBa4XnjFKhdE4Z0IRX4S0j7gSwHJoFK+VrjMlFUqYwsok8JqXMtURrINt0MTxKFXBQZqRlkFeWEBACQkAICIE2Q2Cp+6TNquw8FTmG4VEB38FjnKABAZ/6ZEJj2SLLaPPnv8MqllGYSZeXByEzeQhfbhuLZNO4bL4RviARtHy2QoUqMe/ehg5JNAPgeU1qAggwJstQJnw0RC5DOLBrF3PzbVuvIG4hsWXN15kQEAJCQAgIgdZFQKyrdfFtoXYYgyMKjj2YTpfewiraoLhZjsHWnLw0xLGulDgEE82HRzNJDKa3QcNVhRAQAkJACAiBIAKZBmuCcoq3DQLGS1xdsIQQR3FZxRWhFY4nlcRKPC9eYwg1uTE57V8DJJk/tZIDL60dyhACQkAICAEh0EQEOkin3sRWN0d8woQJzBZizlawv3cMIOXgmuVSWbAIp6Qz/cmW6BmvShYwE31Jj6AgEJIxgWCiEw6O8TmuY0qsVHLZYLoNhgZlPHMbFwQE05cplerEweI0IBU0j1OyECPQlmBWMG5NC6YgbzpJDILgrCDXpdveGQY4TbFFnSbpiUWiE76dMHHiRMZAWbvgNCgiBISAEBACQiC/CIh15YQnm8Wz1I5liew+n7KAMQDXzaeUSZcY5AcmY9qIO4UuJaTECYTSU5/6E8VcVtayyYa5slkjzMRnQSULCdmrggjMpqKygnldxpyMMyFTU12zaLH3CUu2H+PbR0zGIs72GWw2S64ZQBEKEpitD/Fla4wBAwZAf1k6wNeBmMVPWTbLYCQReQK2caQ4qjhSF1kkwqgoxb4SQeORpC6+hslyUT6/zTYWwVzFhYAQEAJCQAjkEQGxruxgshMEO0WxA6r16xRgRR4TuunvibNEjo4cZgAngxnYNp509gRoBMyGTTvJQgzGQECYIwQCDehhAwioAwVZbcfHHOvq64xDoIet4T0S0UgjEHAOHhKJu1PMII55yFAcg9nHgUV80BeC22I+e1MDEh7N8be9oCEu2TiTnfqmLR0odDIpI+BAWY6EYHFTYm1MWTBlIkqcJQZFSjESg5UCESmUzVAE1sXKynTalC4EhIAQEAJCoCUIaF5XdvQYW5w6dSq9NSQJWkMBmA2BTygaLzFXCum2qYHRlOAGB3TzTiZ7ffmQgG1YQBm0j9qNcwR1I4D9wRTHfozPcQxSrqCk8R6OBNKtYKgWpx8GGSzbpDgWWhUpSzmDDW0nSXrIcssybdgJJih0hlHc5NkPjM1jU9alRCEgBISAEBACLURArCs7gOzwyQ7yOI0QxS9FD00XTr9OhKPjFkQs3fgNR4uQSGdPLsF6fQoSsZCuejRbcRPglIgdXZHkUysFgYBYQCksQqIZFiIiQf3oRAYLifiWNrTF0jma5mCNxIOnJuMkUW42cLREixBPDoZMKN30ZygFjHgKzeZQWaamxcsxwZv7ZQEBc0Ya7JRy7QUWCDSn1MX+q2FVOhcCQkAICAEhkCcENMKYE5Dsdc68H0TffvttJhUZiSkvK2eiFCvySko9jxHduaW7zt5YDh18kGZxis+MFEtMVz1cwfSYgKMO7jQU4dSKUMr4lo02GvGiUnLxz1kpJ+xOiWC8NSFIBylFuol5zQnMDAuaZwJmJEfoC8F3CHqftSYEK8ocpxa+50hxWsGQKxVWVFTa4CRjspTFTUVziGAYSGItcSoNqjVLUGIRy4KigTnFCZRCienhw01//OMf+WARYhQJ6lFcCAgBISAEhEAeEZCvq2lgsszN9n+3DjuXwo4QOPqSSynjQLlINlvGGdYMDVY2qAGDLTRDW/sWMQaGDU1ih+1rs2oXAkJACAiBYkRArCvXq2Y0y2bQB9lG5vK5S2bWk0sudcF7kAxWaim5FG+STCway2V3+6Al6M9sjBMOilmiS+GUOEfzbdFcl9Uk+4PCaAgqgXvZaTAxKK+4EBACQkAICIHmISDWlRNujEmZI8R6+9z749wlc7IjvVADDfEFrFJSMtW+zIhcc7hLsEazK1QdAkGZUG5yU1IKhBI5NZ2Nw55LKWZIMll/5hTn8XJeTCpqoc7MNSpXCAgBISAEOhsC3vwYhcwIwLeYTW8y06ZNI0LH7BGKZecSZVbSGrlmgx1NfzCltRkD+kMBG4IGcLqMQC7OsRxgWkZn4CSHoqlFjE8zo4sIs8pogsmhO3UBpQoBISAEhIAQaBYC8nVlh43e16ZaIzpo0CArQN/c7r1yiwxonQ/otMik7JcifxL+sgAPg8ZlEMa9mG6fvzqkSQgIASEgBITAMgjI17UMHFlPGliF7w0pGoaRtVWdW8D8cw6D0KlLV0QICAEhIASEQAsREOtqDoA4SkS5mgNc4ZSxwUOOFikcw2SJEBACQkAIdFwExLo67rVVy4SAEBACQkAICIFCQkCsq5CuhmwRAkJACAgBISAEOi4Cmjuc/draYGJoQwG30i17eUkUNgJcX7vEhW2mrBMCQkAICIGiR0C+rpwuYXKvnJySkyIJFR4CbqeuwjNNFgkBISAEhECHQkC+rpwuJ5/wk3MrJ6SKUCjzBzGLsEEyWQgIASEgBAoUAbGunC5M9+7dxbpyQqp4hJy3krFji2uzruK5erJUCAgBIVCUCGiEMftlg2+5vemRpocWA8uOWvFIMMJIwN4uXboUj9WyVAgIASEgBIoPAbGu7NcsHcdKl55doyQKCQHn9LLt6Tl1KYVkpmwRAkJACAiBokdAI4xZLiHUij540aJFbg0jBYxvqW/Ogl2RZC/Dnu0bjNo6tUiuncwUAkJACBQXAmJd2a8X7Gr27NlBjhWMZy8vicJGwF1Nj36JbxX2xZJ1QkAICIGiRkCsK6fLV1VVtYxHJKdCEhICQkAICAEhIASEwFIENK9rKRYpY+YIgXIx6YewePFiEyNdPCwlYkoUAkJACAgBISAEUiIg1pUSlrSJc+bMSZvXaTJENzvNpVZDhYAQEAJCIJ8IiHU1Dc2FCxdSwBxgbj5Q01QUu3SiYTFBsbcj2f5OekGTgVCKEBACQkAItA4CYl1Nw3X69OlNK9DxpKMNpLPDtAyyZXzLdu3qMO1SQ4SAEBACQqDQEBDryvWKWN88c+bMXAt0XLmffvrpu+++6zDjjEa5uFywLhrVYdrVcW9AtUwICAEhUKwIiHVlv3L19fXMozfW1YF9XbmzjRNPPHGvvfaaMGFCduyKRMKIF3vT21UuEqtlphAQAkJACBQZAmJd2S9YbW1tXV2d9cc///xz9gLFKWHMIxfbV1999cmTJ8+YMSMX4cKXcQ2vrKwsfGtloRAQAkJACBQvAmJduV47f+gpMWvWrFwLFJXcDz/84DbFcIZ73i/2avf/WfMtq3///k6mY0Qc8Wpob8dolVohBISAEBACBYaAWFf2C2K+Ln+7rjib1GcvUDASNmg4bty4yZMmO6NIZMzUslzieuutd9hhh3EaZFeeDHu12z8nGokst9xyfB8p+RNJwbIB8SKIGhrV1dXeAk2PeSkIASEgBISAEMg/AtqbPjumQTIxb9687AUKQwKzGRhlhvguu+xSVlY2adIks8uGSi0OoSwtLSWlV69effr0IdEaa/PKl3qAGjfLsFIbbrghkWCupVvxlOlOoAAjgAANxTDvu0/6JFABXiGZJASEgBDoKAjI15X9SpojxOSSh+Gyl28nCdiPeaRuvPHGadOmvfzyy86Q0aNH9+vXb7/99jN2RTrMo6amhgilSLQIpZ54/IkTTjjh97///b333osryDSUl5UHmSiJbGP24Ycfvv/++99++y1OQRMrliMNp/lYu2TJkmTHXrG0QnYKASEgBIRA4SMgX1f2a+R6ZUSLiHVhrfGntdZaq3fv3n//+9933313a+3NN9+M92vMmDHsATFw4EBLRIyI0SnoGr6xgw8+uGvXrpdffvlXX3119tlnV1RUHHrooZCqvv36Qs4IVvCbb74ZPnw4SxpxrTH4+J///Gfo0F9YppMxycI8mq8rOGBamHbKKiEgBISAECh2BOTryn4Fg36doN8re8nCkBgyZMiKK67IOgDPlxOJxOOJV1555ZprrsGV9eWXXzpiNGjQILOXFIjmWWed1b1797feeosVi+xS1q1bt7333hsB2Mkqq6xCxAp+/fXXe+yxR9++fadOnXrHHXdw5KNJfLUSgWLBCrLICCPNsRYZCDoKASEgBISAEMg7AmJd2SHFu+MIRDHO+2Ebqp49esK6fvzxR1r71FNPkrL55puvvPLK0C9rP4QMfxhxIx9nnHEGhOzRRx+94YYbdtxxx1defuWFF16AeCEAGhAvaArMjJWPBx100DbbbIMkEH322Wfl5eUoR8whZvoL+UhbQqOidsrRRh4L2XjZJgSEgBAQAkWEgFhX9otlvbLNOi/GBW74cs47/zzWAXg7bCUi119//YABA1ZbbbVzzz33H//4B7lAsGjRIsYcicCW8Gy9+eabTC3HifXsM88+8MADI98euc4668BCCOYQqqqqYrD12muvBZz777+fna4gYS+++CKa8YQVl9PIRhhpCAH2SRuJGBRcdItnv0skIQSEgBAQAkIgGwJiXdkQ8r075rkpLjLhGgZ12G233WBdTNWaM3fOggULGDpkwhZEqmfPnm+88QatgzaZj4o2TpkyBX52/PHHMwH/rZFvbbHFFka2nnzySabMGwtBftSoUQ8//PDdd99NRXi/PvnkE6bSX3zxxYw2koKeYpkpReucZw72idkQ0CeeeAIn37vvvmtz4xyYiggBISAEhIAQaDYCYl3ZobPZ9PiE6J6zSxeeBJQCJrHddts99dRTxqhwd8GKmMiFa+rSSy+FY8HDWNWI7aRzirvrwAMPZGo8pyRSHM/WeeedBwJwOFLmz59PwXXXXXfjjTeGhzGd6/TTT992221/97vfFR4AWSzi+nJxrV327QGaycLPDz74YKeddho7dizlHS3LokvZQkAICAEhIATSIyDWlR6bxpygL6QxrWj+Orpw/HHHv/baa3xHEnqx2Wabkb788suzRxeEA5cVk7pgYMFWIUAgxYjXcccdh8zGG2+CPOkoIVx22WVM5IKpQNHmzp175513Ig9cViSorZDjsEZsNguhm2Y/TjtL2X///fHhFVeLChlt2SYEhIAQ6MwIiHVlv/pFzbponk+fEmz3gFPnwgsvPPLII0mERtCuK664Ah7G2kOGBW2XVLIYPWTi/HXXXee4yOOPP85Y2+23315ZWYHfC4VwL+RxbrGpBF4udqB48MEHV1ppJdPMsYgCzSTQImxmASZxwGFO22233cY4LPti4MD74osvSLdGGRktogbKVCEgBISAECgQBLRfV6YLQf9KBxz0hWSSLtQ8mkBYYYUVmMU1fvx49oww3kDisGHDOPIpa7xWTGCy9DXXXBP+9Oyzz55//vmUeu655yZOnHjVVVfhIaOJyFtDTzrppH322efTTz9ldJK1kEOHDg0C4MSCiYUZh2/ZZDXMgz7iwzM7jzjiiHHjvr7xxhto46677nrrLbfuu9++ZBVR0woTcFklBISAEOi0CMjX1SkuPXSK8USGCNktYo011qDNRrCIXHXlVUcffbSbj4VHB6YFOVt77bVfeuml++67j+WKjzzyCNvTU8QIBxEC+3jh6Np6663ZsgvKxZT0oNqigxUfnrnxnOXMqb/hhuvZHha2ysS1/fbfD27KLvxOQBEhIASEgBAQAk1CIEr32aQCnUoYcOAZ7FyFqwMvCG3fcsstWbtXRCDY9aUVuHNYgYhfiinwjjzREGsjhCO5UUzVIr1Hjx7Im1hQBhcR+6yy/2pwlZ+rLihZ4HG2yfjtb38LucTOW2+9lcWbtMIxMPaVYD4c09rY7YwBR/gls+yJFHijZJ4QEAJCQAgUIAIp+toCtLLdTTIy0e5mNMMACBOBgnCjrbbaav3114dPWCIRAukcU2rGN4abx4rbMSjGSByesyDlstxkyWCpAo/THK61DTjSEOJ4vJjjxR79rNZkIefnn3++wQYbcCzwhsg8ISAEhIAQKEAEUne3BWioTCoKBIqXcvkU1NtznyY4KkkivmBGXdllY8SIEXwInDWbbHu21157sbagKK6IjBQCQkAICIHCQUCz6bNcC7wdhCxCyi5yBGBaBC40azmJ0BqYlrkAOTMSxmfC+YI446psoPrdd9+x1IB0prux5NNan85lWOTYyHwhIASEgBDIGwLydeUAJZ8BEvHKAaeiFoEz4ehiPNGutZEwWuTRMT8QZ1CViV8EdpRl0htbZuy5557ff/+97xITNS/q6y/jhYAQEAJtgYBYV3aUi/Hbi9lbJYlGBOBMjlfZjK7GnPBfOJn5t/gOEktB2f+MmfjsX8+m/3xcHGkYm5G2cEmdCwEhIASEgBDgWy8CQQh0cgTgUjixqqurwSG0QX8yMjaMyEZlI0eOPOaYYxBgmtfhhx++ww473HXXXcnyShECQkAICAEh4BAQ63JQKNJJEcDRRcuNTrGzRo4oMM3rlltuuf/++3F6UXbcuHFnnnkmKbNnz5a7K0cMJSYEhIAQ6GwIiHV1tiuu9oYRwNEFbWLokCObZYSz05z7Y4mJww47DKfXP//5T74UvmDBgnPOOYetv9jKn0LiXmmQU7IQEAJCoPMiINbVea+9Wm4IwLqMcnFkDaODxXxg7jQUIReWxnHgSgMZYXznnXfYzZ/T0aNHM9rIZ5SY9WXMLFRQp0JACAgBIdBpERDr6rSXXg1vQIBNIhw9auqm89CseMJTsNZaa7399tsnn3wyStnFHh/YBRdcQC6nTrkQFwJCQAgIgU6OgFhXJ78B1PwIG5/i7mL1IuypoqKiqYjg8cLnBbVikJEvi/PVcL4dzmjj9ddfz8cA+AoTWejkCDnjX1P1S14ICAEhIAQ6DAJiXR3mUqohzUQAjxQBykVopgp/Wy/zae21516vv/46HwVH1UcffcQ0Lzay/+GHH6gCcsa/ZlehgkJACAgBIVDsCIh1FfsVlP35QcA4Uwt1eUoiCSZ4vfDCCwwy9urVa+bMmcT5/OWdd97Jx8Kd/rxU57QpIgSEgBAQAkWBgFhXUVwmGdmKCNikeH+g0HsccEq5Y5Nq9Txm/meFYFSshbz33ntfeumlP/7xjyiZN2/eaaedxiz7Bx54wCNm/heHLNKkKiQsBISAEBACRY2AWFdRXz4ZX1gIwLpgbzZYyYrIzTffnK1Tn3nmmY022ojE8ePHDx8+HPr1zTffmGRhWS9rhIAQEAJCoJUREOvKDrBtK5BdThJCwEeAGyaIxN577/3aa6/ddtttTLdnzv5NN900bNiwiy66yGRsqNGOwVKKCwEhIASEQMdDQKwr+zW1EajscpIQAo0IcM80Rr2/fC0bL9fkyZPxfvXs2fOnn3669tprhwwZwrz7lkzhD1ahuBAQAkJACBQ+Asv0DYVvbrtYqPk37QJ721XKBHh/rlV+a2QM0Sm0eJcuXdjT68UXX4R7kTV16tQDDjjgoIMO4svZCJiMK6KIEBACQkAIdDwExLqyX1M6S7Z0Csq1Ricd1K94WyIA6bLqWsnt5O4WeBX7gW2zzTZ8ROhPf/oTM+7nz5//1FNPsa3Xq6++WlVVhaQTbksEVJcQEAJCQAi0DQJiXdlxhnUFN8+kX5RbIjtqxSbBRqmtZHLwbrF4WVnZjTfeyArH3XbbjUonTJiA0ws2BvFqJRukVggIASEgBAoBAbGu7FeBPpL50fSXhMrKyuwFJFFUCPgOprZm0vjVNtxww5dffhn6tcoqq7CX/aeffvqLX/yCDzjCvcjVLvZFdRPJWCEgBIRATgiIdWWHCdblHCGDBw+Ge2UvI4niQcAG9Vhd2GYmcwvZdHuo1SmnnPLmm2+efNLJuFTZwv6II47YZ599mG5vXxlqM5NUkRAQAkJACLQBAmJd2UGGcrm9AAYNGpS9QGtKaN5P3tE1X1ddXV3eNWdVaB8IYjHjTTffdOaZZ6666qoLFy585ZVXtttuu+eff76mpiarBgkIASEgBIRAESEg1pXlYuGWsIBzgsAM6CwFsmVbH5/h2Di3O5uibPlUgf+GozdY5Qci9o1nGAaB02w6vMV9hJCYJVI8czAxO4Y0uNNk5S6rzSLtux8bd5e19PLLL2dOPd8R4pQ9Jg499FA+5jhu3DjLBShDu81gUUVCQAgIASGQdwTEurJDCtmiazT2QA/t939hIpJdiy/hSEYDlUv1JxJt4DpWozuiwFhUyroQMyLl8ala74AwA1lQJrOfPpvajGHgvSOQbqqMlSFAkXSB3FC9FA8F9PNBHcRcs1wR13CXQsRqDKYE467hrR1x1vr2B01oo7irl3ld999//y233IJL1WZ6bbHFFtddd92UKVN8AD1L28gmVSMEhIAQEAKtgEBrrdtqBVPbQaV1cl5fF40a7ejevbt/1kxjopCSHPpNqkiugH6X4Se+6LdkyZLq6upFixYRd2IU6datm5FCz9r6eF19nR0hUqRDs7p27dqjRw92wSBOIkpQyNxtKBoCqPK79gaVKLFSjlpRnClupLPPJ0c7dQY4bkQKuZzaMShA3KogC+Voc7nJEWSSE1sjBUtoI8dg81ujosw6ucEwAxk2lfj1r3/90EMPXXPNNYsXL77gggtuv/32M84448QTT8ysQblCQAgIASFQ4Ah4vWOBm9ju5kFKGOv56KOPsGSXXXbhuy4zZ84k8eeffw7aBpuBRsBm5s6dCx+CzUCMrB9NdhSFChphggbh4QhmNSOeS42oRQxag2GOBhnLCZpqqswGxEwynUkUNw1OIHSaXDxYlyuVY4S55zBIADe2hHLXFi4BS03hxwMGDEAGbKGJcEQkUQ7j7Nu3L/KIEaCwUM8HH3yQ68U8KoIpDBmfo1X5FXvvvfdOOukk9pXgRsKq7bff/rLLLsP7RRMKwbz8NlbahIAQEAKdAQGxruxX2VjXJ598gmjuRIGuEXl6d7hLbW1t9mp8CYQJxgmSi5BlajEJS+iJXe/LKYEi5o6yeFADRYKnqKIsYsZF4B+ckhiUsbipwqRgdWSREhTmNJTibDOxUC6JzmDqBaJkm4P6kTEDEAu1JSgWjCNPu4IpGeKQZtRCcVimiqkh4zMUbNUs+Ba7S+Du+vbbb2kLfHHLLbe88847Bw4c2Kr1SrkQEAJCQAi0BgJiXdlRpbfD1/Xxxx8jut566+E1sTIpe3SPejQG40Z2pBe3iGVCnuAEHCETHMkl3dQSMf6BfoKRDI4umKQTy96ARglqIXBmRxS6Sl3VjbINMsFTv3TDgfSUFC2k0BVPjqDIyNa0adNwXK288sqcWqM40nCnylBC3oBCjDgKjYQhZjZZFXZqR5NPrtpS0AMCFp8+ffr3338/aNCg8ePHk2LF0xVs+/TZs2effPLJb7zxxowZM7AZO5nsxSgkuBWgtW2Pj2oUAkJACBQLAks7+2KxuF3sHD58+L333kvVfMKFQSuzARaVbAwddiLu/5dI4L9BhgCHgBlwamSCjhOPVFlpWVm5N0Bm3inKoQ0xY1rEiViR2pra+sBMd+MKHBFINiBdilETdzT9VqkV8SxvZH6kmKTTZqdGdCwOa3G5LhLU4BJTRlCCttGjRx9zzDG9evXiwzjMJbe2W9OsmZTFC0VdBAOKUsRJtwg1hkwlyxIpSFbK2kOJTFdnteAGG2yw4ooruuIhmfY9pUVjx4694YYb7rvvPixh/HTo0KEvvPACBltj7di+Rqp2ISAEhIAQyIyAWFdmfJbmPvvss3i8mNRlSXRyS/MaYy4xFo3ZUkRyrOMni2BxlxKKeGrQmoonQEH84vCNVNmNBmT962zIKpksQFnHhLDcwlIx73OGKTBZKpAqNmrUKHw2kMsRI0bstNNO6IdLhQStUlpOhEot10VCwsmnmJ17ESdMkdyrSK609VKefPLJs846C5pIFf369bvmr9fst/9+0Fa75VqvXmkWAkJACAiBliOQwl3RcqUdUsPee+/tKBcNNM4ROsIMLBhzslxDgzhZoRSXlRUxyvqunRZRrqy1ZBbAeGywgD0IGw+DDBGBcrE+M/fgFUkk+vTpw2x3Vur9+OOPpj/ZhgZIG1cAWBXJYulSnElWozs6eVJcHGEXL8AIpu6///4MNZ577rngNmvWrJNOPmn33Xf/8ssvsZZcuxYNVyTQrgJsi0wSAkJACHRCBMS6Cuyit3KnH2QVjn9YJBmIkAB9uQtkmfwyHKgpxhsH5ROEcFniH3zwgSl0mpPtaWGKo1/L2FyoPq2UjTXLh6w+5Morr7znnnvWXHNNxD788MP111//lFNP+eabbwxVxEi3Y0o9ShQCQkAICIF2QUAjjO0Cuyr1HDOGwlZbbcWuHDi9Zs6YSQqT4qAO7QiQM6xgWQsWMibLrLXpP09/6OGH+JQQcLF0gDleG2200T//+U+tcGzH+0dVCwEhIAQyINCe3VsGs5RV+AjQ97ck0ECKw2xWWmkl4nPmzKmtq2Vktt25DgZYKNhLgHksLAC95QYsx+6pE7+dOGzYMObXswyT6XGsBr3kkku++uorQ9iOCBdsc2SYEBACQqDzICDW1XmudZ5b2khOmv/XfFp8cNDY25gxY4gwiJlnQzuiOgc6iA0aPOjFF15ktQdTvqytV199Ndv5csquHKy6JVGodsS7QG0SAkKg+BAQ6yq+a9YxLDbvC0dWhnIkvPbaazStfYcXiw5bo1/lFeXsXM/yRtaEbrvttmxu8tNPPz399NNMm7v55pvdJ7SLrnUyWAgIASHQwRDQvK4OdkGLpjnQLBiDmWsR3DNGvIqmDQVpKAtC+Y7Ctddey2hjRUUFXi7WK7AVGR9zXG211QrSZBklBISAEOgsCMjX1VmudKG1E6YF8TKr+GwiEb6HWGhGFqM9fDthu+22e+6551555ZVNN90Uvxc77xMfPHgwk8BYuADsUDEHfjG2UTYLASEgBIoUAbGuIr1wHcrstddem23A4AGiAnm8rrvtttvrr78O/WKrOVPL1vZ77LEH6Xxu0rFeYZ5HzKVKCAgBIZAZAbGuzPgotxURcCOMQ4YMYVEeuyFUV1e3Yn2dTDV0ihHGbbbZhvle//vf/3bccUf2sp87dy6brK611lqnnnoqyxea9FGpToafmisEhIAQyD8CYl35x1Qam4rAqquuyiT6mpqaqqqqppaVfGYEGEtEAG8ig4wvv/zyeeedZ/I33XQTTi/2tf/2228za1CuEBACQkAI5AsBsa58ISk9zUeAuUc4uphs5LletLFU84FcpiSuRLgsKxZs2wi2Uf3lL395xRVXsIX9rrvu2rdvX+Z74ffio+MnHH8CG9zDer0hXj8so0gnQkAICAEhkCcExLryBKTUtAABG2qEHHghERfxagGW4aKN3Gvp15pWX311nF4vvPDCMcccY9K333E73yD/1a9+NX78eOQJpMO+wrp0LgSEgBAQAi1DQKyrZfipdD4QwA3DbHoYl6YZ5QPO1DqCXAqot9xyyzvvvPPrr7/eYYcd+vfvz3yvkSNH2nwvNp5AwOTRJfqVGlClCgEhIASajoBYV9MxU4l8IzBo0KC6ujqm0i9ZvMTbJXWpXybfNXV6fZ4jKxq1FaOAMXToUPxeL7300oknnmjY3HrrrUz2Yqmjm++FvBEvf+xRDrBOfw8JACEgBFqAgFhXC8BT0TwhwNo6WBdTu6qqNZs+T5hmUwOXMhG+os18LybXs50EG9V6nyGfOfPVV19dY401Lr74YhY/mthSN6R4VzZslS8EhIAQSIeAWFc6ZJTedgjAAHBxQbyY0N12taomHwFHv9i/40U/HHvssYbN3/72t9/+9rfHHXccG9j6E/NhatGEN+Qo5qW7RwgIASHQHATEupqDmsrkFwHcLWxPb4OM+dUsbU1CgF3TNvvlZnfcccf//d//8X1MtrmfMmXKv/71rw033PD555/39vWAdpmTTLyrSchKWAgIASHgIyDWpRuh/RGw2fSaNtTuV8L3YnkHxhzZ3+uJJ55Yb731sOq77777/e9/z4arM2bM4BTiJY9Xu18sGSAEhEAxIiDWVYxXraPZjItFaxgL4aJCpywwnti9e3e29Ro7dux1113HNrYLFiz49NNP+Yr2o48+On/+fMQwGH5WCGbLBiEgBIRAsSAg1lUsV6oj28kII+6uJUuWLFq0qCO3szjbdtqpp7GZ6rnnntulSxd8Xezy9Zvf/Ma+5Aj3sr3vi7NlsloICAEh0NYIlFx66aVtXWenqQ9PAN2SHXNvdFPlc9dcsJLwraeeegoPCvukb7vttuZHKVhrO5thDCb27t2bbb169er1/fffs7PXDz/88PDDD3OjDhgwoE+f3lwvXbLOdleovUJACDQPAfm6modb00qN+mDURRddRC+1dPl9QIG3H3siwZEQSO4sUdrO12mYTc9+XZMnT1b/XWgX3udUUUaB2dOLHe1PPvlk9vhgd4nLLruMLzn+6U9/YhkENnMdCYVmvOwRAkJACBQUAmJdrXg5Ro0aNWLEiHmE+fOuvPJKei9mLxnxCvZP1qvNmTPn888/f/fdd99///3Zs2e3nll+57i0g6QHZVzPEluv0gyaaT5DVwwyIjNr1qwMkspqRwTs7mWC19VXX81HGzfbbDPmfsGSWfC4+eabc99WVVUj044WtnHVoeeojWtXdUJACBQpAmJdrXjh8AEcdNBB2223ndUxderUfffdl92POA26tejD2J0SMT6Ed+CBBzJphi0rkeG13hrGWddoyjnihGNQD57Xjl2mdWA0ln2hrOGWYkYGQUhOCeYq3qoIQLNM/6abbso2qo899tjgwYNJ+e9//8tNu802WzPZywQ68GWiafbwBp+jVoUX6wOGAABAAElEQVS9DZTTKEIbVKQqhIAQEOtqxXtg++23x33FbJiDDz6YaiBV8LC7776buHVgbPzNV4f5+gqOrj/+8Y/Tp0+fNm0a82aYbNfa70H6DDoPjvvvtz8W3nLLLa0IRDbVuRA+3Crsoaq+IRuWbZTfs2dPbt2JEydeccUVq6yyCiscP/vsMxxg//jHP3766adcLmgbGdqyapLvN5rGU1xT7bbzbfhcUsvqaVFpZijgQTdTeagJXjxnEmVl7ZIlt7dFlqmwEBACSQi0/ysjyaSOlvCf//wHjxcDeeuvv/7bb7/NF1d4tfGOe+SRR84++2wS//KXv2y00UYMsfG6tA/kmQAbUrbNFwmpjgDuzpnRlteAqgGHPTn56DLElM8CmjEcQYmAMaeddtqzzz7LvKKzzjqL9Haxsy0xKYq6uF25OlwOuBcf0r7tttsYquYGXmedde655x52/CqKVmQ2kp9Djz/+ON+p5BeRk4R18dhCN1daaSUS7UZ1uYUS4YHOYbwX48ePH7/mmmsWitmyQwh0dATEulrxCvN2vvnmm3k79+/fn2VfLNCjMpwBzIPBp7XTTjvBwHihL7/88kEjeA9CgWKxpa9Mzo180M9BUCoqKiyFU2agMw/dOj+fOCVwCNk+7/R/pFvXaMWtFspiGFbRNbIjAFax5zhFnA0UgdZwxL2E34KpPARLdDIWwRgmWTu1wVpCkhlOsScr62J/zg8++KBHjx7MkcMS46bNqy6DJcpqPgKJCGOOZ519Ft/MXrx4MXq4wY444gjcYMTdDdx8/W1S0uxcMH/B2P+NZXrlP//5T54LvHp4g3Bav/baa9yBzGDjqWG2wI8//sgAKw8RT1Deb8WPP/4YJkR1GaDjqfnoo49Y+Tt/3vxJkyexEBhreZZ5P6y11lrMlaQ4T+7KK68MeM5CHh/iBF4duNX56NN9993HxVphhRW++eYbFOKA33jjjfl5s8kmmxjq9uzT5Iceegin5hlnnMELhGWt7PbiLgt2Bmtx6YoIASEQQkCsKwRIPk+Z5oILh/cab6hDDz2UvY5w5PB9FSYg0znt+ds9Tz/jdBaCeS/W9G4te53ximRC2Ndff837ju/l0R+w7g9bWUqGTpTzGuW1eMIJJ9AZMGR5+eWXk3vttdf+4Q9/WG655Ygj4NqGV2n33XdnhAj/BDO62IGJ3+4Im4C96GE5bEdOLpQRay3Rabj//vtvv/12jOHNSyfEp2NCAk7SRUwgWYyUrKyLdlEdquj/5OhykBZQxPesQADYUQKXJIbR9w8cOPCQQw6hR7eensTgTZh345NvraZWwd0Fod9rr73eeecdHor999+fT4DzaXb4Ft+jtI+EUgvNIeAiYv3mpEmTeMzttwdZeWkja0qgXPjYhg0bRkXpbniemj333JN3yz777MMRbHkYeSTNDGaLQqdIHDx48Ouvv45hPKdvvvkmrJGCnHJkGiUPONWhgeWovFIgamSRvukmmw5efTBxAgrx+R1wwAHo5BSFAMUmujz1DzzwAMSORFKoK52pnhYFISAEDAGeKIXWRgBixAuRWniHWl1MQGavI6axM3KRtXbe7Ey3Z1twHGZ//vOfed+99dZb3os/Hn/vvfeYlQVhgtLtvffeeBf4hEu3bt2eeeaZU045hSx6C/TzTjR5qwuWRndi8QnfTOC9ueWWWzozkIS6rb322uusvQ6fgll99dXHjRvnitOzwsZI5IsxMDNrRUPZhsY5TctE0MA5liyT6mMCp2SCNjckI4zkWl1mswnTFjo2gikJadBpISDgLg10BN8kN6G9Yeit+aojPhiMtCvbStZyj7dQs92cPG64VM1aUuAx9rsi2Xg8UvwmYYaACSMZvGnTGeOASieAtwkv+OjRo00gqzxi+BdxUPG5TAhTUO2XX34JgcP1xXuGn3/r+oGHnTkPzz33HJpxd+EVg5YFSyW39O9///uKK67IlSXgD+OCMnFixx13ZIwVVk1ZirQc/6ANiguBjoqA9ztGobURePGFFxlGpBZ7rRPhBc2IDL9QeSFClfgpmWyDvW2nTZ22xRZb8KsXusO7lUWO/NZk7M9yef3xgr7++uv5Xc7kMN65qOIXLS9TCBOuLF6p1//9en6mI2+/g6mXQROOViN+rNVWWy3Iunh78nOf9ymjKnSWfPbYJK34hRdeiDC/70nk4zD8OH7++RfMGDsmNyRzCqUysy6GThiTpQsHrsyqlFsgCMBa/v3vf+PrMuKFEwVWzT3TvDukzRqV0jyeWUgJz5EzAzGTxGcM62LXfrJIMYpmWfwKgpPx68WVIsIT5JX0f37gmWaWp8WDMsR57rjV2XcmKB+SCZ2CLb+dILikh5gf44aMPNIEnFu4tXBuIeNb4ZHUMWPGMKOUX1Cm0NJNg7ONaRJcQXxvrpRFeKuwuTEInHzSyVZcRyEgBLIiINaVFaI8CPAWS/lDkNnHZ555Jh0SnIxv3vFe++qrr3iXWZUUIbA+nzEOKBTDHMy04BctPzcRsBcfP4hhXYy+MXvD0i3Ljuapgo1RkRlg/IZfvLx/kcEsxiiZ/hxkXbyI+V3LussGVXGvt0CSU4Y4YWz8zOU1zbw0fkbjBmgQ40/GgBI+5JfML2lIMuvy8PIDKl9//Q06IRxd7BSVsQZlFhYCXEBGGLmXHPe66667+D3QSlbyk+O/n/035OzJS138RLHJlCFtfKGSx4E5mna3Wu6UKVOOPvpoJnuxohNn88477wzdIctuaX4vcRvjacZbTGBFc0gnpzjCueFxJFvWxIkTobDUkizpUox1XXXVVfbUcAwyNvBn/igGWKKVwipScOzxZHmsK95AHCkbfPrs/YDzEmBNuauUU+K8OniB2PvEZSkiBIRAOgTEutIhk7f0lK8qtNvbjQj+JIgOL1beX7gHOBrxMp4EnYJXwZwYyBg5ciTuLrPM1NoYB9OebH6YFfEE/Hcof3nFMyI58q2RVoqxQqq45JJLrHZer7wuHevilHDrrbcyHupomVVEcV7TdCFM5hg0aBBzd/CB8Xvd1CJjkeSjK04RZpixtA0ZGkhFrmwy6wr2GXROdBvMy3a0MrkWpRQmAlxoxsuYmo2viIvIzcOouk0TtBvD3QbNtt9pYCNixrsZ/m62qnQFISVQk2AuDxr3M6QKPxDp2MAdy0PH7xzIFr+geDR4rvmZxG8qG11FjPkAOKp5WhmkQxJ+ZjpdE+yUdDTfc889cFbeBjxuuKMYELTclEdjXczmbHjc/Mffnkp+yEENmc5FLca0ghq4QMbJMJ5/yLjrYlbxmHPVUBIsFYzzrQLeUfweCyYqLgSEQDoExLrSIZO3dHuL2RsQpS5iFXgv60BgPhYee+ZUMUJBMtMyGB3AyxUQ8TTwI9uGCBmMwE/G+iN4GzIhbVYKgf3228/ijAbyM9rixmxwPjEVjJe7FScRfsOgJ7UQTJIf3xAjvsHHRH6TDObiwcrcJZgSuhDe74TzzjuPWgjei94HJJl18cZHgCOTUawUywJMj45FhwB3C4PsuH/wGHE1+RnA2Dcj5nlpiJEDVDHIjvKhQ4cyrudu3bxUwfAcj6GpgkLhYGb6OSN6p556KhVBVPzb2XuQTz/9dGgW9zO7lx177LEYA8FyBfnVQcM5NfOckbU1tUwVwB2F6+vII4+EZjEtHUcyz9pRRx1FlnnLTE/Ko7EuNljxchu9ViADqWLXQH63wOQMKFep0wNoVO1OTQPCJskPLZttuYxA4ITnmtcCL4dAmqJCQAikRUC7pFqf3opHt26Li0A17tSqZM0UEbs+RPbccy/my/OKHDtmLG89RmRwEtBLWVkrwguOdzfMjFPTxm9N5ochk3IN0VVXXf3000/Dz5B/7rln2R/f9JgwHSG/410KLi7GMpg9hmZTzm9u1nPRR0IEOdqne0weC4lAjOiKLCXdkZc4w6BMUEOAZW4TJ04siZXYfkLBpllxUwsyiOF4I5HXOk0mYj2BielY+AjYxeVG2uPXe+CphRZgM/5adqrD6cXUpZY3gduYWgiHHXYYDwtPh63da7lmp4FnxG57nkdWJbNykBE3Zk/ecMMN/g3pPQW0kZ8f9957L6teyGUVC25dmgwJMz14ahld5U52aimC2V7ZWJTfV6CBiwtf3Y033oizmcmapPD0MamRU1cqQ4R5ZuSyQSprooGFwFP/xRdfHH/88SuvvAqnXl3RpWuZ06lyW6xC2mimfU4jnTBjlMz64odfOgGlCwEhsAwC/vtKh3ZAwAiE/TA1v46lwJBs9is2sXTRZniQZbkksmLRps2Swk9qRlUYMfQa4I8ReJFAQIbRAUYVGfjgF3PDHA5kAwEy5HmwfM/TNddcwzuUJeLko4YRTMYfn3zySWgTv7nJ2mqrreg1LZcjzjl+9PNTO1Bniii/nEllDyT6Fe4/Nv4xITSgOdnXZfqZH4MwpNPNHnM/wVPUoaRiQIA7Cg+QvYMgSQy3wS3cmkG77rSDiItnb5Z/5zPxyH19i690c6s0WU+ammAeDNLhhGagn/W/bmqaGcnRbkt4JLf3DjvswGwBu+HRx1oQqI8pZrsWnkQeXmZGMtrIjwprox1d5ZyCj/mfeDNwSnC5KSPm6zI/tBNAP35rm6DpEpMjri6XRXW0iMCDT4t4bNMZAFlk2U3D+8eVV0QICIH0CMjXZe//dji6H51E8OvwS5QIPQeuI97vuK+wiWE1JsIzD4YsAilMXuErjeecc45ZTEHSmXjrnZKf9DuWXKbuDh48mIkmvJp5hzI335P1tXFjECHwcq+t83bx4dc5P6z5ZU8iA4u/+93v2LXBxm6Y3kE6vQivYK+6SAQ+x+wWjEE/qiwx5ZHGUYqhTCgaAqw2NzG/8rDRlsjUYLbvp4HQPqiemWoopaxCiUWBAL4fpkmxVzCzFbmX2HmO7eXgK/h4Zs2cxaW3VtgrK9cW+Xc+e1UwQme0HjLHTKNci2eTY8gSLy8/Tl588UU8tVYFhbDW7noiPLnI8KzROp4XeKNpZYSRmU/WHAbiGazEdcTDeP7557MehfE75r25VlsRTvl1ZK4pS7HiHO003TGoh5cGW8mwbobdAdPJp0x3dRF54okn7DSoOVgKwHn2aUswUXEhIAQyIRB8xhRvYwT43c/0LJtsi7+HH46MvMCK3A5A2MOQBK/gESNG8NuXtxsrwpgzS7r9+jQ/Fr9x+WGa7vcowgwO4jE6/PDDbd6r+yEO2SKX4t5Msukz0EDHQKfCcB7DNFTtOgyycHHxkWP6NnghU814mzNPxQTIJaAqa4Cl2e344IMPImwFk31d9HPmEcFg5wjJqlwCRYGA3SpcYqYc4am14TNIBoHxO/wrDIq5Gei5t8juau5b2+qTkT5+Zthz4W743LUFJRk65FaHXkCq2GaFOQDc/zytMK1G/fUsTkSA0UBSzEFlGpiYxY+HoLZgnJ2KGb4MLZFBgESbuGmqOGZ+wM3XBXqURZifYTy80NlgXSnjXAuex+C8LlJcE5hawNsAXxdl7ao5JTyzzBngZeUmrrksRYSAEMiAgGbTZwCn1bN4LfJSY6ETvAcfAL563unBNyAWsNYJlsPQBj+1cf8wk9dei3bkRzOTlEMjCyG77XXJlBrqYg96IzEm4yuJMyGGaRljx461RKaV4F5iLvCbb7wZUvXzzz/zW5/ZtXRpfBgEx1hyhxEqEjxlmghfFGGQhRc9lrAonUFPbAixLorYx1joPtkQyDQgRghqU7zYEeB+YIgc/s39ZqyLG4PfGPy04HGAoHO3uKufY2Pxn8GKjNlzj038dqJ/47To5uHR4AFh8P2H739gPPSBBx5kGJGnlaeS6fMYCU3h21k8iTwXeLzcQ8G+MDaTHeODd69jgVAWiAtbaoVa55gQmi1kboWxLnMJs6Mp0xJYswIpDKlNPv3xhx9dXZZLRdQIdeOU1wucOLgCwGlAP6OufB0160x/V0QRISAEQECsqz1vA3Ys5PciLihoEx4segizhreee8kSD5kYzLJXJAJWJCRppyaPX41VUcwpoatzYmTZ6xX+ZATIZbkIMk6PSwxGTL8dg+mhuBNgmjAT1/CZscmqJYZYF9P5WXdJZ0Af5vYBsp/7IZ067TAI4PpiBhIOTn4bGGdicJnActq33nqLJyX5QaDt7qYK4QDd4QZDD/un80UHyqYsHiqV7pTBSnyujFpadRyRhH4xMGqzyHFocQ/vsP0OzA1gVA4eRqWMvlGK3zDBUjzZzo3Hrw6G2vGQmcJg7XBQ253OlbVIUCYYN9bFXspMHePZwQ8dzE0ZN4Ww3gysi4Jnn3U20++YbMqQJcwS5zpTOW3SAgik1KxEISAEMiAg1pUBnLbICr5V6RiS362kmB0W4Qj/MDGL5GglZItBEDcR2On0+6MwsXM6rSJ3ahHrwBqNbZhKbOaFJIOnCFhBSBX8j34FlwZeARJpiO0+zyp0ijCZzPpd3vWmwczIWkWwunaJOzuTI+1iT+FXakA5O+nXGc+65557YDPGurgT4GHMCISsOzEXCRV36cyGhAnZXQTxgrQhabefk8k94jxJKKGUHYnAtNixhYWNzPfiFEbC8kZWnPBlHngJUxjtBnZGIg+JHD58OP7mSy+9FA8fnjCGUxEIPct40ZgI7yx0NbqUUMRmteMbxn3O5H1+QdFYQoaCGEMuzIn5mnyyzCkk0cpacRgkg7bQR9zwcGIc1YR77rkXEpZBudOmiBAQAiEExLpCgLTWKW+olMFWDuZeK0rsbWiRzC/WdGqDliBjp+mEl6bbzquNGzA6Jc6epZIu1igcbCYFmUyNu4tOka32bTiGX+cMKjFdxno4svgcL2pQztHV5RQXZsTZmTJSmDYXglUGF9faXW6swqfCfHPIB5OcuB8Y6mISGJs18GlqRrpzMXvYzsNsxwc2weL3BrWY/lzKOhn40KRJk/BIYYxLDEbgNpyi3BIZNLzh+hvYxMFOXTqnECzct7SIsUjufD6uZTIcURK0jc9U8NuDdCseVOKKuAgFv/jfF0ycx8OHpIWgNicZiiBpKS7CKXHKEoKJoYKcamAxGROlCIFcEGjYMMZ+FOrYqgj414Mali5EYmUQO+vwH1leRqMEcX/REJvuhNf3maTZaXFPSePKL0tPeeQd6iSJm4xLSVkklOjMS1ddinRv5x+vadZMIlRNwNHFPDP29WaOP1sc2UYY/PiGijHsiJeCzpJ5/cy2plJ29oK8mfIUVYSsTH8ahC69VPNzzLZgLaSETpuvvTOVpMvnDqHFAMicJ/ZVh6AwHgcBIhGPDnOqcBSxmBcfTAZgpv88ffsdtrfFjCzoY0oig2XoJGQoFcrCGC4iKxMHDRpEpXZBg0qgLjynpJtabm80YL9LcQrJwpnHzLOePXr27NWTu50i9jggE5R3tVhiMMtpC0bwZDMBFAcb2tCJvAEYlEmOO+VkmfGkWOA0qAEQkMH7yCWIxVhwvdTsZLVKEQJCIAMCy/QKGeQ6bZZ7B9lbCRz8t6q9tb33LHwp+M51QNnrj1NX0GXlHvFr9/S7Is4eIiRyDL0fSaRqyyWLQIodrXtwqlxxUxJKdxqIENwr2Kq1U9KDpaiX97KPT0ONVq+TQZ4UOzLcybL5SZMm8dOf/ZBYckUWL3d8AExeZgiSbwPj2+Atj5MjqIfihi02mAF26mppXiRYRfM0UCqoxJpp9jdbYScsCG4Ed78ZAqTgDWUsDy8XX1PAP2pQswsdy37Zj5TxL4dV8CqQyPpcth3mJmGWPZPf4TpoIz0k5oqHIp41jfb4D5b3myFDcYQz5IaUF8Jp8LXgt9U7AE7yJeC3E79/sDmUVQitkA1CoFgQEOtq8pWyV1KTi7VxAZ8O4Wfi7dkcg/3iybt/hRoR0uxOiZhk5o6NPQLYBB9JNrdkZgx+L+busDaKFNYWnHvuuUScTlOYMsX3pzXU6MSaGnHeuKYWlHzrIpCI0NPTzXMnVFfXTJkyGd8Vq+rYWIF6SYRFMQkMms68db7QEDQGpkXBqT9N3XnYzmwNz0jlXnvtxSwlInZfufuTU1fQJboUy7V0r6DvurXak4VdqTaOWIsyNCSYhW0pLUfGArkhakW6a1HKsi437xGruo0rzXsrpFAIGAJiXWnvBB51e87ZqJ05FuyFY58CTFmA9zsTHVidhLfGxkEQQwPpBGY1MW2DkQXv9bH03RXQFPW89wx/0B+wcp5jRUUlLi73okEtv+/nzpk7e85spuIyWZi6WBnOEbVkMcRgATOYAIsNpgcqY74i9w41CzmyPNDMM1ORZyk4a86ZXWuBFAK9Gjqpi5kxzEomwimSrHjHF4X+WDTmtdDfKAgbqIjxQQqS6zXAd7YZFBQ0cDiSzh5IjCcyhEQcbJmDzLb7EydOxB42g2XSPZhQOyaxoyY6TRXtpfnEaQLr1MjiSBtdAwOwNi2KThcoSROC5WkCNRKoyAKVYqGlgySN8nL5vEvM2+WSOGiwSgALg3oUzwsCbEGHl4vJ4KwW5P43nSwqPPbY49ZYYwj3EvcwTx7pPEcIkILHi+eKfVjYp5SrxkXkciNAnGBxTl3EdGY4BktlEMtLFnWhB9tcJKTWjDFvHFmudU7MCrrTlM1Exq+noS6ETYxUV7VLdKqaH7GX4VJXfmpNZlNDvRTJKG+mplakVCFQAAiIdWW6CPYAM3jBsnY6UbpYjpkK5CnPOnVqD1UH8wh286Hc4EgcZR2jwihK8dIkBA1EJngajFPWimCJpSNsrMKJIWC5CDtLsCFYrxMmQocX7AkQgzI6JeindaQgaUqMnxn1QT/yThsCxE3AJbqINTND65xkKIJas9A0WC1OBoXYQKVmMzIGEQKkGz5ESCdQlhRmqjH3iB0HnBJF8osA1JzlexAp5l05zdB01jwyHIkDjCti15QFhuzxO2nSJKaF8W2r4HdLuaZcMq6m0+AiXESy3KmL2M1gp75XyJMh0QkkR1LqSRZzKWgj2CNGop2ixFoUzHJF8hVBuVNlZpPi7DdLjI+5RCefNdJY3ONznteQ0AiwPUc0mQjJduGCVZNoxSlKxC+5DESkGz4cPf2prp1Xo4IQaD8ExLoyYe8/2BHWePNax+nCyiN7jC0dKmCvAFNh8WBKUDXpjpoE04Nxe8twpM/23xjegYK8QYKBToKANlxHrmoioart1OkJVmTxZHsQJosjNhCsrAmjzVVnKQjQURk1IZdEjLSIlSWLYDrJxWbLdQrtFBnIFnOlcWLRI7LjEWrJQhuSFPfVLNVDlgUzD2GzhFOLmH53pJmmyrRZKY526sTyG0E/A2E4HVkTwBZK+VUubYYAt4FdR04ZQOQ55es6bOzJPqV4GfGeMpgYxAqnNc4wbmP2d2B7T6aIHXXUUczHhxnjZg5KWtzdz8EsauQ2C6b4dyNPX8OCj2BWMO5MDSa6OHWZZrSZS5gmwNrNeYwY6dRL8MQwocSjJpySFceRHvdc7NzqFhAml8CPFtzQjta46oggjwCSwUTiZgZHQjAXzRjGkUrtwTeZYHFSgqcp41bKa4n/orOHnYos3TRYnCwiiPGDzd4k9rB7MokIXzDDGN/ehrcE6bQIeU9AQQgUKgI5fcq+UI1vdbvs6WULHN7LeLzeeOMN23rRXkbB15al2FvM4nYMmhhiLcEsi9s7hbcG70p7d2AAeuxNivL6Ohapx3kRo4pgniGnx38HNZxRCnlO0NCgyn/1Bgc40eDKWgRJCpoZS19wfh7p9AEcTdLUYieBFNItYANZVpYs3Fcmz5HqzCSXYsLlZeULFy1k9Ac/hO2+SEG0AS+SqEKgtGzpACJZhrPZgABvZKuRI8Hpt4iHXp3voYxG6K6AgWaSRXFCSDhfp4zD0sHjhuFimU7Mbr3q8mV24etJhtFS+EXEh3fgW+w8wpQvNh/mYzuh5jDay7wuvnbASg4kWUXL5sDcPOzyQL8eEuYUzcmJpDTvOqbTFqwCzYh5N6wfvIe8ttZuV9IbHmSE/GDp9ixwpBRHCwibDBFCsAoXRz5dVkMFy7IuNFsV5FI1DxoRp80iySkhASfmlKDKmUEiwcnYs+w90n4gi7++SANKmISwFTFaZmVZFm2+TKfN0nUUAoWAgFhXrlch+KKx1wTPufXiIRX2Llg2kVdJ6nffsmJLz9z7goh7oaCZU2oP5i4tk++YexvmRbGzOaU2++oiWcHWpZR0iSnNc4muOt7UXDvDjbIu3enJe4TOCYZKf0mEyXN5199pFTI9i11JATYFAonIkirvu+z4F5l0eNBBB8GumDWIMIncFfwAYNI9/i3K4lWFFrMnFmQLeoNX0s0MS6G5nZKMCHIj5V6/e1Fwk7tAcZpvIDhVlkKiS2lehCeLglaXRXLXQ+08ILnL5y7Jx2EZccaq3ItIUgi0GQJiXdmhdu8UXlX2tnIpIdc9uaizp93ipt1//Dk0TGPIXmUaCfeOa3xdpiVzKd44mNbEtxBKgq1IY1Q+k2mXtTEXpWZey1HNpa4mydAEY130gmxz0KSyEs6AwEMPPcTK1nRdNa5fOBZkBQFzlOI0Jd74sCxVzPqGAcsNuOyyy/i0IvI4sweuNNC5gXFPEriChOT7n4vLPH1b5MH1NUm/hHdIlrdaSYfqYVVKAXtascRfAeDt6QVZZ8x9+vTpxhqd6dSIGEeaRiDdd4rVIYa1HJ1kW0ZoFCCnbFrzzKCNsGQaCM5gAo3myFVjxh5jwVwCWgpRhjrTaqpgCIIPGDC4DNniarKVLpAaqs0zQKWEQOshINaVHVveJi74zzKOk7QuEwQQ9sWayHHSGxJ8faAcwWCKK2dZdhoUaxBu3IvVyecSSVlRLgWbJ5M75TL9OZpnYjkKN8/yYCkqooulDyaR6d4c7ZYIyijeDATohvFcuoLBG55E+l0E6K1tTSvUJCQMMyCRzb3YnpdrtPPOO1933XUIs4+Xc7U65c2LhEwKKmmz2y9YaX7jrGKGCIIYq4+DkwfyW0uztbF+AtbFx5RYRcGFIHQAzJuNhgoWLAJiXbleGnuMkWa0Kl0Ze8hb9VHPoDxDlhmcVSBdu5SeFQFuj2SQ3T2TtbgEckGAccP111ufadRO2MFOCn4RC3hEoF8EOBb3vMlwxO9FolExd2mIJDvDXBFXUeaIPVlZXdmmNrMqy23jRxXDQjWaqaFEgCWE7A9iFZIPSWbODQnnchrCc9y4cZSCF1rZvFeXi0mSEQJZERDrygpRw6RanvDQQ569pCSEgBDIHwL4V3652S+ZIcmaErTSrabsWe05tSz3zHIK5bJTaBZe1dC3QZ0qZIhbaKrtmYkXOpuqsEnyrrG5lDJjXGMp4or7rvywqeQSKMUx6JO2lNZuWsoWhSplfx/E2M6QYztaldJUJQoBh4BYl4MibYSZE/xKJrTXtIm0lilDCHQmBPBdec1lFSr/+RHvmBSCnXEwjqCdBklDUunUw/fJYh0jxeHjc6oGf633TQuf0wbbiKQJ2zGUZacoIZIsYLlJPsV0gkHdaeNWVyA7ynw4TlmdyjEpNyCoqBBoVwTEurLDD9/ifeHzrlZZcZPdAkkIASEQRCDsiAnm5RxvVBJkGEYEjIL4FKKBiOSgNAuHyJKdQwWZRYxnNIltBE0iHjzNXFe63MwagmS3SXamrM7V5SJBncRdesriShQC7YWAWFd25J2viwjSep6zQ9b5JPSKL9Jr7l04n3YF+2y7mv54YCM1a3HzgvpzVNakm6rR5rwZnKORzRNrUtNyrCKEQGtUkaMlEhMCGRDwHfUZ8pXlr81mUTqUy1aS8wu4GS9QASkEhECBI6B+usAvUGbzzJfmrZbI3UGZWaNyhUArICBfV66gBkYYeaYbtofItbDkhIAQKHgEWtWNLUrX2tffpv153Mu+QtHa9Um/EGgWAmJducIG68LdxatTb89cIevEct5HC/wQ3DKqE+OhpguBVkfAnjU9ca0OtCpoGQIaYUyLnxtGhG/xK4oJ9TavK20BZQgBHwHPZeJ9gii8xl7wCAEh0HoILPV1tV4d0iwEWoyAWFdaCK3XJJvpXMRhXYS00soQAgEEjLI74h7IUbTgEODpLjibZFDTEbDt8uXrajpyKtGmCIh1pYUbjmWvY772hbuLHlSsKy1YyvAXtxrN4rbBLWoTAeUfLdhbg8tEYBqQ+umCvUZNMoxvNSJvHi/94GkSdBJuSwTEutKi7XaXEd9Ki5EysiEA98omovz2QcBYF500e9a3jwWqNa8I8M1s9HFBjXKJeOUVXSnLGwJiXXmDUoqEQAgBnCj2DWw6+FCWTtsdAbso5u7CGHXS7X5FWmiA/U7Ws9ZCGFW8tREQ62pthKW/8yJAN8CkwM7b/sJuOVdHPXRhX6KmWWej+fIuNw01Sbc5AmJd2SF3P4JdJHuZVpYoHEuCDcUqC8HEzhynU6cnECaFeQ9wdVzAQosXpqmyKhcEzK/ME8elzEVeMkKgXRAQ60oNe7CnnD59OkLeCkZ/DSNZqcu0VWq7G5ChoYVsWwaz85KVstu2eyYv+qUkiAB3Gr0sx2+//fbDDz9ctGhRPJ7Az5H78gVHudRJB4Et3rh9/XrmzJk0Qde0eK9jh7dcrCv1JQ72oKxhRMhe6LzlCanLtFVquxuQrqGAplEbAycRb//7JN1l6jDp3Gzz588/8sgj99hjj2OPPZZFxoBuS9hyaaPrmF0kl1KSKVgEbDR/1qxZBWuhDBMCICDWlf02sF/PvNALZMYAlowePZrf983zo1A8e5ubKzF79uwZM2ZQulVraa51bVeOb3VaZTCDtqu1M9XEDQa2rFeAZnHXPf744yuvvPKDDz40bty42tpahwRiBHeqSIdHwH4k00yR6Q5/rYu0geoSsl84HmNe7t74or+DV2s8zE3qG2CBJ5988lFHHYUvHZOyN6BRwmppUpHGotn/mvLhw4dfeumlJj1v3rwFCxZkL9l0CZqQsivlShHQlzK36fW0tARXynZubKkilU9CAMpF6N69+7333rvffvuRP23atOHDj9pll1223nrrww477LPPPksqpISOj4D96qOdBfIS6PiIq4VNRECsKztgdOS833mGW85X0r0IYHKE7Kb4EmxLww5DjK3MnTvXDMtckL6/prrm66+/fueddyZPntxKe0JaE5599lkcD9jD6W677bbaaqthZGbzMuemRAxnxueff07BUO6pp546aNAgvIC5gElZC5kNaEkuNwxoR/kYr0KrIcAVf+qppy6//PL11luvZ8+eP/7448cff/zoo49uvvnmbJu50447XXfdda+++urYsWONkbeaIVJcEAjwYiwIO2SEEEiDgFhXGmACyYsXL27soHMdqkA+oMCLBlNcZx/02Wy77baffvppqFTWU6fKSQYrskQ6/muvu/bXv/41LoEDDjjgu+++c8KtERk6dKipfeGFF15++eXkKoy8OjtdJFkyXQq8CkqXnEv/So0DBw5EZxDbZElScmFmKQs2KdEb7fJJVzOa2aSKOrnw+eef/95773HL3XzzzSuuuKKhsWTJkrffefucc87Zd999d911Vx6xN998kywuCpfDfidwrKqqIrFt7odOfpnarPl63NoMalXUVATEurIjxksZd5F15NmlfYngG3zOnDlPP/30l19+SQ5KCIFcPpDsFYAivP/++/xMNxknSTrBSnlyjQENeLlKYiUkBLR5ehBulGr4S8pzzz1H1mOPPfbVV1/ROYUEbPFX1llr6EFJqGzy6UorrWQG9+vXb7PNNuvVqxcyQaswmFMz2yRDSswe6iISbJ0TY8Ea4wiUDdnTu3fvTTfdFNYVqtEVDEVQnlJ/SKwlp9w5FA82vyXaVDYDAtxp8KqTTjqJtWw4XP/6179uueWWG220Ec4wxnl5DPGP7r///rfeeqvddXb1OZIbupEy1KKswkQAJs2zxi9MXoyFaaGsEgKGgG7Q7HeCLY1J7uMzl7Q3u8nwrt9nn32Iuz6ecbcbb7zRT/FE7E1hXyYx1mRdAukEi3tyjYFEz55Ew5ciG5M9PQR3ahE6Idb1DBgwYOedd2a+ywUXXBASoAbeVoRQeugUM5KVh2Q4pSKO1o05y4k4Sd6Pp55y6jbbbDNixIiUOs0evylLS7niQeUZ7MmQFVTV2nHjsg6H1q5O+u057dGjx5lnnjlq1Ch+zLz11lsvvfTSFVdcAS3jucP1de655/p3V8OTBeviMlFQ6BUvAlxB3jm8xOzB18Us3kvZ4S0P99AdvsHNaCA/oXiSeaQJFA8SiAzaXEfbp08ffl5PmTKFqeUu8bjjjjv99NOPPno4Kfa6d2rhHKRQKeMjTFgZMmTIxhtvjAOJURKqM+FQDwEvfPfdd6+//vprr72W5Y3OVBOzn/5HHXUUrySOTHL/4IMPnOVMyb/pppuYB8Pg4/jx4220xeVahCI0AWOOOOKIN954g5kTaLYQkuSUyTS0hbo++eST/v3701KTcfJnn332o489ylvykEMOIYt0p8RkMJiucZVVVqE4/aXJmJgJBBkVKezY9Pbbb2M5njwWsm211VamEDOohYAlr7/+OpIgY3pM4NBDD7377rtNP8dJkyYxdgnsdqFNphlHM5IjNNp8Xe7iNkObijQJAaDm9uBoF5q7EV/XFltswV3HpEMmGjJhgGleNvuwSZqbKmwGcPtZpKnFWy5vtzG1c2PzWmDwnTBmzBg0k8WPn+eff55H2ypqLyNb3kzTwDuQFnHdCWCeL7XSIwTyjoBYV3ZIeYbhEKEOO3uxgATDXiy2gty4NFgCPiGm/fLW4zVBemVlZcNXeH0Swnp4WBR+qYceeojf61dfffUzzzyDmAkzbuLipBx00EG405hQdd999x1++OGwFhOzN+nXX49neOXoo4+miFGZv/zlL8Qt8EN/+QHLw6XwPDEbHRcUbrmpU6c25nt/kWGuDMSOfuuiiy5iHIdZYrzKyaIKqyUob/HysnJwg8l5pwlvMg1WXXPNNSw6u+GGG6A7OCTIcaaihzhq9957byboEPDM0XyrwcScPBEceHSlcCx8eAceeCCUi3UGbrsmuBwFMeCBBx741a9+5dBzetDA8gLYJBHChAkTqJedn+iSg6zOcpt0tFvFau/MHYB/4RoOTQKw5cJcZe9C8yg1Unrs2GGHHSBhKCfONXKXiQ6b28aTz2swhdyBedeco5ncxvy+4ukg7LXXXv/61794OZxyyimuOE8N75bky0SKk0kXsVLJuSnLuiqC8iklgwJNitd5A4zeaD6Bn4X5vpimWEchkAcExLqaAGKzXxM4YJjkBK3hRU99l112GV4c3DlM5GJ7IbMAxtCtWzfv9RTxyAe/Sm+55ZYnn3wSLoWfhnclp0iaBorbq5wZTvQlONIYTNlzzz2XW245yI19GcNZ++CDD0C5jNJhCTKQKlsCyXuKZV8HHXwQXh+6BxxLTDeGKOy4447sAQEptBphXczEP+TgQ5CBqfCmhoT95je/GTZsGKfpOpXSslLksccaRZyJ/HfeeeeGG24Iv1l33XUx29rujvDFY445Bm/TF198scEGG7AFAKXI5R06cuTIV155BVguvPBCXHokYiRz1CorKi+55BJMxSNoTg5fvsEo8IHsQu/wdjDri20FqMJV9//s3QmcZUV1P/BhUUwUNW4gEp0xBkQxiUJi3BAXXDHugCtLVBBUFFww7sS4RUQFERBGFFkUDbhv4IIaBSRxIRoFZ6ISFREU178Y4f+979dT3Lnvdc/r7vd6ul9XzXxu16176tSpU1WnTp06VY+Hdc6ZgzYnPe1pTzvuuOP4wBWAOURUNmTAqbGKFjgHVBOQpWn6TOGteXwqZWzV65XZK48e1VOltIXljT5MNVfsXe5yl5vd7GZaJ4GVdKq7jIEkK5ztt9/eoDNqxoB+WpQXX3yxlZjVERO7lZIf2DjjjDP0duNIHiwiEFTcQAuKbqO02mu6MrpZpoObPn3+GAru//vj/6U14cy56fG1aSm0RioH5sCBzeeQZ7llMfFTRAipOQ/jrbfe2j4j8UccEPdUB3rAIYccQvG66KKLKARUAdMz5UYRZIebh5idtttuu9e85jVcgElthh8n4XE+ZhgqGpIEatkPf/hDniu2TlwP4Ww8hYxqBQ/pE2zEvbJKq93+9ren/1n+WvczO9nB9KlZJ/ZWinxffEWAp6WwicrBQKgaida7+5stCmGrV68mwT9zzmdoKkxfxx57LP6EtlIQvkm55o9TDvjidvrUlG4XK5cqh0hZkMogx7gFgCEwSLi+OYXgk1daERLwinFrq622oh2yvVEZUyg8YKCNMUMcMAIuuOAC089zn/tcu5nwiNiofd/73oddYO5whzuwDoqAOeWUUxCGmfTXYEu5vs4qyKVoVVO6eDlPNyskSxE4TEN54VuJ+KTzpFJJzLOTJa+9lhxizp+GRzDjf5qgEACW/vG1r31NhCmXbq3bGD7ArAq01DTI5pUMP8yur2PZNQZttRvsbYxKT5WzKdr+1ImDlJKu3vk08NVdZfq5YyXkxs4770xcBENhfqpMFyw3uYchnkKbb/341asNowqCLMnl6VUuT2Btyks6GOmBTK7+UmabArmQ4iLKvI4K+WyJqfCVAzNwoGpdMzBn6lNkhwE85zEMA0sML4rLLrvMdgZXKpYe2BhpbCMyRF36w0vBRBRKX7NmDUibknxQrE3jn44ayhCljX4jkCku33JiC9roEN/45jdYjw444ABfyfPf/e63FrgsPRQR6c985jMpUpBQAVmALHNZs2hg8LRZYBKiMYBhc4KfrrP33nvvuONdeqK40X4odplOiOw99txjk003AakKtibbeEq83NIuxan+O97xjpQ2wrFfJp588smmJSopzAAU3b5n3FcYkovRC7vYriJkk+iZkKLTWJhjyuFJ7ROVDoc5Wb/sZS+z7QjMzq8nGW3nRYsIGHXppZfKi8A5b1LIrgmUJUIvDD3L5KnKWK2yaZrUWqKQuK9Rd3TCX/3yV7/93W/bkPPnkoIgtHigc2RAGUS6KGUa8rvd7W5WEXqOeMhAj7Ew/3L7MShdx1OWo5SG/+67746G4nQIXh/2LOzqMWmKSx1sgewkTvfKqsf/EjYLiZUrV8Ife3NvkdOYjUuwPDPG3ScX+zqCmcClYJ3FWwHrRMLVCAHIhUJ5iVthGgK8Jnwq2RMnQNDzJ73Qyz1K3QjCUlwT8XZd+et9qS+VAxuLA1XrmpbzkSA+m7Y9iYxZyb4OXvKX3sCQQ67RurJdaAfNZtnPr/z5Rz/2UXYaGlUKpXwQndbHxFbmJE+l8zpim7FDZ/fNNhxFyv5jbGCKs5fBcGVtjdR73vMe5hKmNRYpSgxLm7Uv/Ulk1apVlCpzz0Me8pA2kZGJEamK88rexu2JlGxJzhXmsEAm7x577EFlkdhGlTitkWgVJwkpbfRINjl+WlLUJTW1K3rMMcfwNuPki/43vvEI8yIAxif3XrJ1ta10Qdt5hj8SIbRFmxILDGOee/xLU+65515IZZ+L1hWwtWvXapdTTz3VK8JMGCLtKhdsQ0bwh9nSJKcJiu2tP28oL52KnrdulmiMBOCRDUaAKjwXFxF8EhLvx7xRUhCj3F9e9ctv/7d9vG+7lZRp0xqjnxiUm3cxR1sA8NoPM+cUZOCSfu6AiJHiVVfPrjHfJv2ZqhHkNuKpDiiJHkBLmHOhAzMig/WUsZNJVQuuXLnS5jgHyjBKFhTS+O3R67Rx+pSlND0wnOGYxdzLOZKSatFCCPXKajoGnAPLzZqNgVyJKgihn00yAPuBiYImsbnGd+rrfe5zH+N0hx12QFvHTJv+Bvztb3+74UMqGrkgUx2LGbLIr2F6peM6lYI8fhFkDlKFCBavLI5qrcrM1dYk0AoNFfMZck01BoRmyXftWDAPKKwmVQ4Mx4HB43a4vMsFylyuqoSXMOc6U33MxPStK352BYFlNUkSkXr8vV76spe6H9XqPDYepZCbCorKRRiBJJjsUxBkhKlPcpkqhLe85S3kl/njiCOOoKWR8oXIO93pTqxZVCJ7K3SjiDZ5IbR1SErSumAOvETB17w64WVnk9kMEkRKF5ROdJrPQMpIpTMfkLO8ZFiwkj2QeUbz6MWbJScVSgUhDCVmXJ5h+EDlMgEjtecr9jBfCeU3velI2iSZ7pU3GJjgL6Wgk94ZhRiMdCle23MntqgIS0Mr1yZqgdWhELzGpRy41pzZT6I5OJ/m+VT3UHKTG/fKivhfHymqCmG+YL/Zh6KV+SlcEg+MV/OuKlNTaORmUwG10rFL3FN9tYuv9mqxV2eTqI4Uen0JpER9xrkBiiY7KACcLzTIuz6Bs3vD/6Y+PV0hqKQgbHZYRgStpviAXWzJr3jFK2C1UDFYisolBbswE6mY0+42IyJhRTis67IbGcFWRJYWOnMs01I+/elP006YV9nDaOe77LKLT1Q0nQcbQ8bHPvYx9lr2Jx1V1zVkjH1CQJuiHIf7qbWmMmb5jNLn4AQA2UBgSg/LLgB9Q09grjYK7O8blRZ+Ha0LSVaMLt1gMncm5l/+5V9ogTQwTQy5stDJX9PTecnDDjvMSRcnZh7z6MfcaMsboVPFuYHe9ra3telJsXPA5fnPfz4vT0WXyvbXZTQpjfgZDaaKpXJg/hyoWteGeUgoAzL/kXpkhPisxIQsJj9inY+UyxdIHM6tkJBEK1eu5KJk1vdK1GZqFC+BOFMuSLafnPsLMQDMuHbE2IrEXX/qTkhOYNkyk5L9FDLRzEo+EvHrxHiDm42NvGtiK1aYy2lXZLqy+KSfeeaZ1qDEKynsBCXhiEKfiEgTtkLPO+88ACxDbELmNluc6kVMB1v7iXKhpHDDipYT7tnmM3/wsAHApde8wrhlLxW7nvPs53z67E87Q4BXXql3pq6CRwomCLKYfkpbSMeo8irCQoDtEn0q63mVoilKgVCtkYSScrz0p5f9tBQ05wjkytVbYLjlrW4ZPIWwDlp8NkHSk2y3XXHlFRQFTUZZFFiMimoFJ0hagibAdi0i6FewJZ7Jz6vEpIvjPzJ8Kimd0qejqgM2n1cqBRUBAciARz839dIMqBdsUVHi54N/YF5KDH8mnZMLOQCb2oaeXoRX+kOyYGmo8kx/GC03otpmoGkByl8OvkTr0lWPeutRv7jqF4500H4MNPvpHD2paLRDnEEkag0KQ4++Is5c7ZIU1l+1e93rXv+AB9zfuO43YuGt3wJ3WT9vegPkoIMO4tSYWqeaqb7KagJj2as4/Q/BlDwt4og0gYOwQJanxRuV3f6+tROaiYLkRRvMhiTVCsFK539pMXbDP73hljduzikL8qo+JVhG1WQIN+50ZkW3pUSA5/xMC07JgXVLHX+LMW/OmGvGyoFRcaBqXRvmpLkZUKRDRvWG86wPkVz3vte9//Fp/8jQQkPKd+Lm/ve/P890r9nzCiSBRRsgpqkI5lqSzmYfyZufwSHgIqdoS4SjDRRal9WnV59IwB4Stp9mb4VBy7RHKrYpN+0R3BQscly6WYf3mLw241DCEsZPy0xZ5ifzJbWAZ7pZ35Qgr50I1jIK2foVbd5AesJGsBLEIorwFA8wAGI3Gh4YiWxmvHptmHJmtwX5wQ99UHWopPzYZKR1NUiu2wZZwbxn8ib0GcPUN2g9FSTQI+1zWWHnVAGTg0RfGRVUTV47IEkRpx6pPltdkFz208sKtjlHUDsl91essAtjxc+soskUxABDF1SjghwlgKORlMQZIoChUmscoFF5TYpX6VISxKVDLgAWGh72HM50rSijM5Qyh0+Ks8e0yy73/fM/31YHYzVRyhzwjCSLtrYCwWoVtzhxbwgNo2CWiNq8ahRzf/k0kgj88BibOEDVENcc+qpuQLmhTDNBeb3+Ftc3lNJM97vf/XbddVdDgNGaQYvpN6qJVjNGZA8qMPbHHQd5+tOfRjeygU6J0axtsr0aO7YImasZnGzcU9RoYAJWZGFT4JOXrm9QsEbT2HxSCovXgQceKJ5ug0XMV3aNrYVQLp3uRbt69T+/GoZ0RYnop+zyXZOLcVFKgtM2hjY1i53MItDA5GwQuyPIdVDz+ouN4SQsXDXmhatmrhwYKwd0+hoGciATlU9WjZqA7pLTbQOBh0nkogGJZfePfvSjAm8CJiz8ck5JUa5Ee170HjOHVa+NOf4QUT58NU8wO9GxiGbLd2oc8352lwoSEXZ+0pBqVRLlNbt7ZV2zpM62o1e6FLM/YHEACUopGUXgt4NJnNkMhSchkG0wjEJSSbG7R4OkaoAnsumvpgqin/poYb0OzTXsEDICNlULKIfBV3oeexjVULx3gHIKMVSmBwpr3pHRAPT24Ah9GKy5k8Kt2AWzMAurVq0yndjlmcJy7bW2V7jYmwZUNvBlpulUv2QZKnJNsxuYO9XUixqkiUUGBpOWOXXgp5KoCg6K2iw2b7Ff2sRx5sD8p901im5JAcUrJ9dYDU32dA59jKWQxilQXr2qrCftlqkMx4aqyDyA8DMsDY689j/nUcK0WXGGjhW22163aOmApnH9ThcOGz4GZgdgJK8MQvbj3vWud1G8bJdzWIyt95BDDtVMoYFdE5jOqcSwy5Napttn9824o/GQDzBotXRUiYYPexI71sykwqb1dRILMEYsqwvLgFJWtly9sv4aHXAG2xve8AZ6YeKhkw2MekdKJJHa51V18uqpCkSKUfmTHzcrJSOyfLLKIgTojjTL4487/ryvnJdKZURbVZbxW7LMIRJONppXz/cAhnZnmwPCmqVyYEwcqLauMrVNG7Ee9c3USI5PCzTEh5vf7ObWoCbjtomI0GfpIWQLAi0tkWLhSlJikTizVCXR0gOAMY4w0ph9yVxqGTHKAyNfs3IlboCZoaGl5BXMIgGjPBGCa9asIdBVKpYP4rVAwkN4lVcRMBJhxgcReCR2YKQQ3JTFktGy2PYZrY6MpkeaDi3lH/qQh+6z777sMKxXBC4k6sgjxJ6adTk1SHb4lWLjklGNzS9FbzrlStysZU05VFiXZbgVrBSnpWTPppIs0nHJeQU6CgIYDm3IwqxQn4K/fTRSom3TuLMke8E8u8gmODP1yyQ4gCpMxt6wrmBGP5uQFb82Sot4AsZA1PbzdgYa0hyeQvB7JlJy+SSexB7gFGQBGFVEJ+kVvp4BphQ9qlIG4jGFs/uywtoit4pw+sRJWPxEUpufYUIxyqY/DEQ420S9ne5LA7basRtoCOcaFHt8++67L/1Y/zziiDcORKtR7CFzCNxuu+35ofPRZH9CdhouTeb1t7/5LSOZbUrDX5fOuZx+hKWJGbcETgXu23v8Ho/n3mAh51UWfY/mRC9HJLlEOgWPwV7uSVaiOOJpkFRYaI1TR3YMWMOqXa7FFRP1rbZqnASYWcsnVi5neqieVgsSfTUWjIiPf+zjRomtVSkFeM4RgwupEX3M6ol0hsCckdeMlQOj5IAeX8NADhi3Sc+GIA2GMB0IOWQiWQMDS8Mw8Eo3GcjiKeS1PEWEGfAwbFjuE6/UiED2ckzlomxxqGL2t+gMEiJerxIvxfUjN2dQFBxB8gmiUNUPVlLAoN88VFKSsf3aiffQdusVPKU4r0Lo9AyLpASVqrHxSC+YC3BgPEsoMCJJZCTjR9xOn1ucohkfO6fnqAKIlOLZ3FvVY0vInhk5yFLrmSHn9jX4CyfDgRmecysluaCdT/aZ88aywpJHzcqeNbWVOoLnAzOme1jS6PPUDl7tA8FmlRhmsgZRTbhgsrnSaRhWpTft3gu5Yc52p7e0bLF1GYnso0m0jqIn2ZgGpj/LztYFIZgASGd8YlR2KLKHeNoH+PQ0EUAGoyrzYhRHGGqZuD772c8yQmc3P4gYxqQHxtPWpFdulOUrMzMPASKRQpZECyfLFTa8vLafXMfgt6BKonIFcT5nGCJSUtq5ZhunZ5c9zeQN2pEgny0xPvmTzwAAQABJREFUFb5yYAYOXGcnGKUqN1m4rKJGUiF4iE6NMTO2AhCDQWm8/lyBHLieo2xZsJr4MwkVnJAQQxaa9hQS92kghv7iOiml9OkwQKvKdsfaGZuyrl2R/UJrU6+yJ3gVCTEicuUVwT55zaekBzhgbfyqZsZqp8hVMkJV0JTEAOfVTJlX80J7vd5GOGQ8CLWCeV25WCHFbNPY+HoBHnNhwNo4S0p/7dpgI4mXskaCbQYkYylonbs0ljIY24WnCugAbDa8tt2GWgpNR+qQRyeTUmA6X2f7Co9A5RJYjyxp9CU7eml62OhM9vjoH1ZxDEVKN0ip+ADE0c+FgPmNyrV27VqXez3pSU/yySINjLww2HlkT6JenHjiidZvNp35fs1Mp2HS03Aa6yMmKB18GU0SqUpUH9KAAR6AkJFFVwPplSJlg5J7KOuaRL+XxV+euhb9j9YVVzDAlmSdoRfaelivZe7Kq4wiXEgZ7MuJ5nyaz7Phvn5QQ+XAoufApGldRnh4LmIQepJcBPFsGyLZk2tUWlewbVA0FAA0CHIlpaSXuvSnlE+OqZ915lm32XbA0cLI3EBGwpLsWMQsbzlrz6sg6UQAC3yJcsBq6uv01+EgHoV5Am4qs651vEKVg0VghGDrRPLa4X8D3YMvEWiTEiRaHPJ2YilXemCmexY86yiaDnAD6QVP4Drllq+d9A7SgBXgztf5v84Oc3OrxQYWDB2SZoe/10M6GDb4agrXPegNHPh4s4F3KZd9LobeNrUDKbGZK68m6HSwDRa6QQB6km21V77ilXTuQoYdTzvItjuZr2hRXpmN+VaKG3q2C+9217u5u8FGHl0th4JBUsiocSKI5KvOJ5J3FGCGrrbzgHvIWFV5uDe0pZXWaSCtsbKJQ51ocGVrqPI03hnVsilf6iU9PME35jFbiqx3vp5zzjl0QZYw+/s5eR0VKhm55NMjGcA63JZi7aeyaoEhRA3VjbM/z3rEhJJOlkLJfCJwBvl8kNS8lQMj58Cs1ZGRUzByhBlsxpuIMAeVC0kyFsKCQcrMc2SBH2GkTUZBOzCxfE2EdNtu++s8umbI4pPphxAn8T3VkdbSwZZXvmVceoF5jb2mSb+OT4G67plC20W34zPnvQ7L7GPdUtZhmC593ff1/s4KeL2cvRc8FExda3pXrwUgfbINPM9S2qjGHtfQs1O6xktRWGfBwPCTq3TtKrpz5J9f/c8peIO8pfeASRgtrfbsNP1eT9gLWvgLcsdiuGwyaDH8sAE7U2I3nIsVSiiObchkMYplAc+7kZ0JjHQjtL8jUYwUyt2KE2Q6nvObzGY4w/5E3bH96swKz6o999wz9+MrDipWKxpqjiUWajmVUqeisrBm0QsdcLGnyYmeRusQZamR3UOnBOCBDZjN9P5arFq1itGd65j9UBXxI2Ycwlw9I54iCrYaqRxYDhyYHK3rOkl07QqyzDlnPhNMPoSC+wIoFrNtzoKwaF39AmW2OGcFv5DF8bGwUJ5B5UI56UnyTlVh9nPw+KrTwZzXdmI7PqsmmDMwN//s0fjRJ5OriW3OqBZPxnGzcbb4Tfl+WJPTeljkYETn5xZmZp3DGRSUmWHm9pW6wybUn5ckYeuygUhAxZrlMDJNhdbVD1xSKEAUGswpOko/o2ynKhQH9ttvP1t+dD5O/RzX2JNs/OmKzq7S4eg6D3zgAwtm413p3LY6Bw5oaSkRJBeufffd130u7FtsVPYEJaLEhiOzYtQ1rzzPYmssYrOUQhtGGJXRYRr+o64BowsSOJifisTmXeDnFlGukLwi/SyaG9qaq3Jg5ByYHK0rrIls2nXXXb/zne8UZu2zzz6WjOzzTDVs2rwrmG0II0IwA9WTaPOa7HnKTi4QTJwhPL2WdJGCfGIiZU9huhp1ah2eTAe8bNPTo/70hn/KnUunYqhw/ZKFfnF/WbacGVXF6RD6ql28Jz7xiZQJw9aWN30iCsHwpfgJ0bbWNaqpmq+6vbbHPe5xAymhcDzvec/73W9/l68KFcSLbGnnyogLTOIZpG2YxF3NwCjVTmfTus+97/Otb3+L4cqWJZHIjyoulcBSHMOb3UYHIUND1CCfqFDM3sCki7AmtinRq419fmBuCyvpNDyhTUA7bpORXig0iT1vvHalZrCXt5HMHEcV+nUG3cO2bLkdcOZc9WvlwMJzYNK0LhxkWm+rXOEpk/7hhx9utUeFEiy/uBoUEeaGJ/fTWPPRxiJHkitx02cUMq/Rwxa+nWqJS4UDOokZRddK7/J0LtIBLndY5FM61VKpziKkEwMFo9JwZsO2rcY7KqajWVELCfgesibSU37mZSPJCQzbcCSMpd1AYqjgFB2LwABH3WlDhqp2SmCiprTTZ4gDpoVstfVW7nFwu3JwdsqSSLv64he/KBLtsxSdHdsC3yu6KY2XrCeVq5fSKIslnt7eAA0XkrGxco1oARuSoFU+Q13VuoZrhwq1ETgwgVoXM3jER1xQHfxxR5Qj3JbFnD2tMi0KhQgaLCcveC2QlY7VsLS7P+aBD3jgNrfZpvF22vbPV65aaY1oSMOZIb0RWqkWuXQ40HSVdTMJzYBJ1XaSE20uNbAjUya2pVOhRUdpJni+5Hzm8NOKiAYzCiohmZcKEAs4q5vTiOUWg37CHBukFrj/zqfNNp26/W6G5Vz6DC1KUNl+hANT5NIVAw95JBjIthCTiJlFEgaPUiT61EYbfQtOQXoinvJ6BmfJEph29sQ7ANOB9WccJqUgB9yOD5O3wlQOLCQHhh3DC0nT3MoqY7h4JPC0pUWxrr/jHe8gHfiT8vRy9Jrn6ec++7nzzj/PLd42gNrF+eQ2Hb90YdwyhrGBucCa10XknbU1KenWg1JWO2+NVw6EA+V33+jr9pucODMN21fiBOM3cyqXRsUB4zGo5nbHR0fbmD9VEQtOBQozYANGpJAwIje56U0oYe1rk/szqqbtabtm/Z/6U6Jw5Al/qaO4AD6fkrGkJFKwgRE6ib52UgJTkEQD68AUnAsTSX03Lg0LU9NaytLlwORoXaUNemvfxhJu7JELUZis3jgoCAHzg80FXgSMn5496qij/HIZe5jrCnlmUNrsS4oDMJihbZxeCa71FoFtNDVeOdDlgC5H8dp///0ZZjxXr169cuXKLlB93ygcWAQDmVziYz5z7Qkxt0IUTaLRdYihRoMaTSiYgy6v7UTx9munVPQkpW1F68C0MQ/8NMLEQkYhbITIK6rKgflzYAK1Lr5Z4Qv9ib3KdTwzs8ngJPtchGMbiHbFGHbVL6765a9+6a8dIqYyRjIql5C19QwCaOaC6tflxgETgG7z6Ec/hjc9l2THuPyWol+JcaRjubFiEda38eqe3LCcxdRyrvvk9ujJqdkEal1UqLQPm3yzLnQX+iBreWnD9hA1TXKD5YuTdVIyQmjuzJNaVtZSBUONVA4M5ICuJdzgBltQ6G1es1j47XCXUj7/+c/Pp4G5auLEc0DrD1/HDnDndXg8/ZBB1RGPI8TfX2JNqRyoHNjAVd1LkUH8ukI29SjK02xrQe7IK9C0ylOi17khnC0BFX4yOKC3lA5z9FFH21t0PZKztH7Ipc5tG7GJBzJf4sD0jUjnnItOXTrP6bBNRq1TC9dGNAvjTSZwXpuu+Wr6kuPABPZOv8XRU5k23XqrrSN3Ztsq7clS3mDLc7aoKvxy5kC7IznDb4eRmxdPQT897k5LGthyZs5GrHu/nlGU441I1UiKnlni5eu4nyOpyGyROHJebou44Y2an5tsV3O22Cp85cD4ODCBWpcfDst4u/4WUzc+e8XB4QVrshem07ekeLJ1zQpPwVAjy5cDLd8h7lx+DoXi5UZyP7f39Kc/3bZj7VEbuW/M/vclNzLBQxQfCdb/HCLrUgUpUlpEHSLth5f5S7Xale4lyIEJ1Lrcy1XUJpHSKO14SRwm0hZew8BXmMqBgRzQkXbeeefTTz/dD1UxdPmVlSc/+cl+cVx6nR4GcmwBEotPfW2CBeD2+IqI663tRWF8pVTMlQPz58AEal12GEc79orWZRWVhdT8+V4xLEMO6Dymdr927CcvnZn1KvLIRz7ykksu0cfCkDr3L8OOUas8fw5ESnfwlGHVSa+vlQMbkQOTpnWZtARaV3YDcdbrPPmboZtRXYfxPJm53LIXU0oqrv/onG7f/drXvuaqeteo+tUEv5HnZ8VzDWZ673LjUq1v5cCoOOA3H6GqgnpU/Kx4Rs6BidK6zFhlsM18PfSs+MgmAW2CjCKzyl6Bly0HdEihU/2YS6Wfcsoprq339Sc/+clee+31hCc8wW29pZuJdzLW18qByoENcsBPeveGXXfcbTBjBagcWBgOTJjWtcLJ4VxGv3LlylFxcErhWvdzY6NCW/EsWw5EcWfoev3rX3/iiau32WYbN/p+5CMfYQP78Ic/nJ9DiHK2bFlUK145MDcONL8gUkPlwCLmwERpXYxQtmn86DWGj9DWFa3LLFgnwkXckxcjadbc9hMHUlZsWvvuu88555zz6Ec/GtgPfvAD/vV2HuNiPzBjTawcqByYgQNtg/EMYPVT5cDG4sBEaV0MXWwGfj9R5Ha3u92oeNr86PVmm5kmq9Y1KpYuEzwmgKwBZqivfuUnsf3I+gEHHKDTWjb4+aC/+Zu/Oemkk/xm9gwZ66fKgcqBfg7YYZRYNxn7OVNTFgkHJkrrohW5CSmXT2633XajZXExTowW7XLGFslYnpPHClqXBcAG6xWTmB/J/sxnPvPMZz4TvMXDs571rPvc5z4XXXTRBrNXgMqByoHCAXelGlBeSeySWCOVA4uHA5OjdWXq+t3vfucXgYw3P6cYLs9/7AVDs7/Yu39v8TRepWTxcqB39yata7odxjblOlj6GL+uN7/5zWeeeeb2229PXaNy3f/+9z/t1NOiul1zTXUQbrNtvvEM58L8NMF8kdb8G48DacHq17XxWqCWPBQHJkfrMuRclPfzn//cns6WW26Z5c5QPNgQEMw2Gf3iBCsatCPEvKGSF+576mVe7/2/xmvm+LFWFmPbYdy1TR3Lc/7FFVSJtBH++je/Jv11G8bXdvp0cXwonx7xiEe4SMJvNd74xjd25e8Bzzxg//335/LVAimwNTJ3DlihyayNMJ9+PHdENefi4IBTKQgxaiJVFgdRlYrKgS4HJkfrUjOD7ac//SnPGKfDbnrTm3brOtf3mCuodL3Jda5YFne+yClXZPT+5xeQGj1A+uImfBbUpY7lOYuc04AWVIkESryJrDNLDWPr6qCHYeXKlS9/+cuPPvroVatWOdK4evXqfffd96tf/Wr96cYOr+bzSt8yqHHb01JtDi01n9Jr3tFygHC+0Y1uBGcGoNfR4q/YKgdGxYGJ0rowxRTFusDMcItb3GIkPLK5QyhbCkNrVJtSSWevJURYx9rRGeolcbpIKCy5oJpuFykYCjy4EDAz5gJfipAi3iuoMWgFoP2cDuFA4HbGxGfInkKR3VSyV3QHuB9bOwXwdMxpgw0f75S+wdc25lKFdmLBQO7/yZ/+Ce1fb7zhDZsf4p1D0Oue8pSnfOITn3CXvexcvh772Mf6NaEpVL2mU+IcMNcs4cBtbrOtltKUtho5A1X/gSXdMTSlc1SqEN2rDo0l3ZqTTfykaV3xPmbrssk4kpbzm9eZYtfNqStI53bI0sozoV3ourRp/0Y0+JxcPbTNT/IpUUpbySjIS5bQ0I86qIKkrRz0UqYwl7xtahPvR1jIS9H9WdopA7O3EztFFzr7SJVQQqNbQMIOJyJLQvk8RKTJ0dDZc7dK9uZ1rkEt2mzpR8i5cIOnF4cp3C82nnvuuQceeKD+7KeuWLwcdXSrqnqodVOpqncNw8dBMJtttqk2Kh2yNOgg2Jq2BDgQmc+EuQRorSQuYw5sPmF1v/DCC9XI8Cve9HOuoFnNXG96zU4E2wNUmfjnjLOTMYKe6L/yiit5AnFKM48qjtYYryBPKUwmfFDsLjnaxoJy5ZVXulPAKzvc1NTbwisFwnySrIjQD4+8AoXg9//v93+8pnFk8UlQCjC5GKIkNnP5uiD9Blvc4EZb3ojNxqbtLW95yy222CJkrwO57pC2jFN5r0PQg9qkIQMDY/iBRJjB/QKwUPAngrboOuVTiXQgF+wVk1PlPFMuIvGz0y4A5kZtMr7pTW96zGMe87SnPc09Xu985zs/+9nPnnzyyX/3d3/nK0+8Hne77FowJiz1grSLJltatdDuCJ5bj1paNW1Tm1q3UzrxLbe8sZSe3G6Yk7GTZweyvlYObEQOTJrW9cUvfhE3aRKUg3mylSw2Yv1e3l3veleoGBiiA0U1iQYgfeColpjBHxqIgEgBr4kn3bNMzx3RD4NQwMYUSR2RNDP+UDJaelJfReOApxvR4MfbgaWETkQO/Doz8eVr4XC7acrX0i6KKKUkC/hc2FbSE5kOD5ypl+yHHXbYAx7wgKjspazhI6m4zgwJZWu//fbj3fXd7353t912O/zww5/4xCfSX4MN68pvjw6Pv0I2fa9nzy7dY/HzBM1NH11fPkgcK+Xt4sZd1sCKbLDQLbZobqXPWENtuLTBXAPLqomVA+PjwBJb5G2QEQw2YLbaaqu2jNhgroEAwXDB+RcM/FoTKweG4cDXv/51ytlA/WyY7GDKtLFy5Uq/F8Tu5R7IX/7yly960Yse/OAHf+lLXwKj21eVa0h+dsAoW5tu1qyvOumL/FWv6IRxE6w4RaTQcZQ1/yaI3mzJjbzEQ/M4qK04KwfmzIGJsnVdfvnlGWY777zz/McbDATB05/xdL4zLF63utWtbIpla0y6PcHLfnrZz372M7t+pkApxnkEh/1N10wIPPpv3DN6X/2Hq+1G2UBkkBDEPW328dD3ZEUza8oelXHObTlkRkQWJSCyaWDGgIWNnjNADsw+QyL9AHPsNrqTHR9AYshVV12FFQjzNaxmWcQQvMU3TzuqgH3aeuut0wr4TP8AJljghsgQHOJzeVu4LS/kIOM33QPebPPNNyv1AnzpDy/9/dW/z2aufVhloRMkU5NN3l9e9cvf/PY3iESMhgPGe7fs8zYs7U3cpnC729lL9fXggw+ev9m1MBNa+4zbbrvtIYccsnbtWt3STarPfvazXS1xpzvdCRgyECyULDUyHQf0NE2jA9ivd0OHfjIQMvz0BClLm7flUyLJDo9OIuhCgq6ocyZvIrqiju0paC8AMgZteqPEBADNV99b7ZlP4DsES9l8s8032bS5BUPwVfcL8oH1AgNV+dQPabCUr+1ImKA41Ibs5IVNoeL5pLKhJzAwtIvz6rtnwdPhbbvENhj8IBVtIDfuEde7XpgmHc9BqnUnb32tHFhUHGgUi0VF0HyIOfvssx/ykIfA8KlPfcr1kvNBNWTeNveKcNlgXrnC9eIllvde+gaao0i66UoJKgKuRU8js0tZEY7JTvC1wNZDCQ+5nKSIOXF5g3890N7LdHj6IQemyD5PDAPRdhKnIz5gIWA6mEJe4Qy2yFjSO2WN9ZW6f/zxx7/0pS9NKbe+9a0f9ahHvfGNbzRToidhrARMAPJPf/rTrkYzoOjx+NbRCdoVXMfR6/SMfC18LhHpRg2lKkFcb1FEQhQLBUnPpwwo2QtCEVmEfBLJp/LMJ1kCUNKlKCXpPglZEhSADUZCHjBFIG8gvCIiNFKjNowstC7BJ8oQbAVhwDp1CbWpeyG+jbATDzwkiWgy+BHjNZhpz1aw1rp+zPTII48s2fM1BZXEGqkc2FgcmChb17//+79ngP393//9qBg684id7UgONrQRs/J6DQZPUnIYmmUhh4sK1Z8lCMmj/k9JIaSmW8W2s8ADsp0i3p/SAZjPa69qA+YYhaZSc0YezJAMiWcgWJBoJvRkmZ4Uzx7iljlizoRuKGPKAnXzm9/8n/7pn/h1PeMZz7jgggt+9KMfHXPMMSJvectbdtppJ3Ne6NwQvmX9vVEKNmtOKMdWjbcD2VEaN5FO32h/TXYIo1FFBYFWhykBfBsgkMHpCQwSiQniKExKkCclYOJtmqEVChgYedNRS2IiHcjyVaElPl1E3oANBA61YBDmSfUEJgJbOFDQSmynq3uBLDADIyCjb8XKpcRwT4ksi7J4/vjHPxZpM2cgqppYObBRODBRtq4HPvCB55xzDj4uzHjrLyXjf7qGDHwHRqKU5pldhIWYu6cjcKb0UtkO/TPlWXzfBjbBHMgs3JC3abiN12omNidI6F6XXHIJYpwztdD3k45Nj1rfgjKHak52FtvE559/vrnfjnBPB7hOZWlXHBtpDJ6JdD4lPc98oj38kQfBNX9s9hevvhrm2GPoBwJUvjb/epYhz9InC5IktvtYu9AS5+Twh/9rLncV7LbbLQ1+G22qZl/+sssus3NqHzyoPBPAi7AM6TwFW38EW0K5CNroOs5Wp6ykZ382GSFkfw1C9Ls0qzhaoMpXGaU3Rfd+2MpOaNkipD+VuveT0Z8CIQLQUyxqYGBW0zPOOMO5k1122SVHpNt5FdF+rfHKgY3FgcnRuow690med955Jp5cwbA4hxkB1CYsr53EjdUbpisXeeVTm/iSWCMbnQMve9nLTjzxxKzybZy9613vMlkyt5ifNjptS5cAPb90/g32/A0CjIMPIW9g0TN82jAljTvZepJKljkgnEOWDdM2I4QSccN00OFJ53VGHPVj5cAYOdDdQhpjUWNGnUutzDEPetCDMtTHXOAc0XcGf147iXNEPbZsyCthbIVUxHPkgN4uvOIVr+ColL11EV72NDDDwac54q3Z1vl6Z3esDIHpIm2GmfU3FObeLu02VUr7FQ1eS9HiQpuw4eMlbyIdPOVrEOa1lNsuxaekdzC0YUYVL0Voo1HhrHgqB0bLgQlZBxtsbOn8M0wz97vf/eqQG20vqdgWMwf0dv3ftotjjO9///v33HNP10n813/9l2tU3/a2tz3sYQ/ruNQs5rosBtoyc1988cUveclLnFC2jZWUPKejUCv4IQE8f+QjH+moKZ534EcolAoqRSioQ1L5WiIdgKFeN1nhR1kDORBPJzGvnUTZpfQnBu04+FPKEungH6rWFahyYPwcmAStK6OLypWbAm5329uNn2+1hMqBRcSBMsfc5ja3+cD7P/Dmt7zZGa5LL73ULzk6zOu0Y7lM1WApM9MiqsBiIiX88cOXVNjZ0uWqEZfFPOIfHsGHqV8fmi22OcMviSbuELlBJWm28HPmXs1YOTBWDkyI1kXAcaXkRmqV6edr6tQy1k5TkS9CDpQ5aautt3rta19rCJx66qk2GT/0oQ99//vfd6nEPe5xD97Qi5DyxUYS1gmcRO3S5vInr20iC6tLuhSBeYxH6dFvO5rWxfQoSwHoxL2Cb+OcT3yEqIYno1214XPNDNnGuVEqNTN59WvlwEg4MAlaV9aUbF1cu7jSOzszEtZUJJUDS44D5i3BiHjd61731Kc+1R2tbDb/+Z//advLnbQnnXTSX/3VXy25Si0wwZnvMerzn/88k5XSsbRNQ1EISroUlkWn52hd22+/fYDL13bexEd16rVQ0l/EuFPGUfSscM4KeNzcqPgrB4bnQNcnYPiciw3ye9/7nnPLbF3uK19stFV6KgcWhgOmIipX5ntuXtzq3SJxu9vdzlUCdC8n6o866qgf/OAHMygEC0PnIi8FG7HIk5+owLWrHZKYdE9mLU6lL3zhC9esWUP++J1yteM/PlMdR2bnmqmQ+q1yoHJgEXJgcrSu/O61a1rcTbwIGV1JqhxYMA5EaYhqdeCBBzJ3vepVr3KFEmPwoYce6rjJ61//+hADpncGbj1bzoLRuZgLwsMOeW1V9YADDvjWt74VAPdU7bXXXm6K8sqLjkM9SLrvQIOWxH7MnYLqa+VA5cAEc2ASDnqQcQSZA0TWmkSeG+obkdcnNCe4FWvVKgcGciBDg93FiHCBsF9vZBJ26ATwypUrbTje6173ykip42UgAzuJ+Elz3XXXXS+88MLb3/72mGlL8aCDDqJyMXpRZz/2sY+F58ko3sFQ+dxhSH2tHFhuHJgEW1dEG5VL49kIqCrXcuvEtb7TcSBzvBEBgNcRe7BzeXe+853pYcaLvbD99tuPGlFVgekY2EnHqDPOeP9///d/S+cq5wTPPvvsc9ppp3ndcccdE5mOmdXK1WFmfa0cWJ4cmARbV5byEXauSP3EJz4xneBbnm1ca105kJVJxgVb14te+KLT33v65ZdfjjN3v/vdGb222247XwNQ2TUdB77zne/c8Y539PUud7nLRz/60TPPPPPFL34xfuJeVLHpMtb0yoHKgcqBcGASbF2mivwQiirRuurMUTt35UCHA40+tW7P3f0Rbz3qrR/+8Idzkb0f0Xr4wx/uVtUC0MlbX8OBK6+8cu+990789NNPdy7BD5Azd9lqtLFYuVQ5UDlQOTAMByZE6/ryl7+c2voB7GGqXWEqB5Y5B5i4jJrDDjvMARS7jU960pPcfbDMeTJz9T/+8Y/TTR1KePvb3+72/2OPPdbm7KpVqxxWoHjNnLd+rRyoHKgcCAcmYYdRTR760Id+6lOfErn66qtzP2Ft4MqByoEZOBCnb+PF1RIveMELQNLDeH1tu+224tm1nyH7cvv07W9/+773va89WQqWg4rve9/7XBDoSg6X0NYr0JZbZ6j1rRyYDwcmwdZl/nCSiLJl1V5Vrvn0hpp3WXHAwHH65PnPf/7jHvc42462GvnXX3TRRVSuuttYeoI9xMsuu+zRj360S7lcwrzVVltRuVi5qF9cSDl4FcgaqRyoHKgc2CAHJkHrIgHzwx1Obm+wwhWgcqByIByIuUt89YmrH/WoR4lccMEFD37wgz/3uc/RunxNWJ7sco1ZbjLz04r77rvvD3/4Q3uLLqZh9GLlcu/GRz7yEdfQ01CXJ39qrSsHKgfmxoFJ0LqsQclB84QtgLlxoeaqHFhuHDBecqOEim954y39aCPfcL+m9aMf/cgdEyeeeKJfNaV1DbzqcznwypV//lvOPeEJT+DRxeLFyvXNb37zF7/4hXuY3/ve9+6www74U43ry6Ez1DpWDoyQA0tb6yL18ILW9atf/cos4vz2CFlTUVUOLAcOZBD5wcGXv/zlJ7zjhFT5ec973ote9KJGLeve0L4cWHJdHd/znvewaXl/7GMfS8Eiavzg2FFvPWqnnXaq+7DXsanGKgcqB4bmwNLWulJNJ7r9zBz7/y1vecuhK14BKwcqB67jAAWLj9cee+7x9a9/nceSZQwve1dLXHLJJdSyaGbXQS+PmKvn/fIPK5f9xO9///tu5HL4gCv9Yx/32OXJkOXR7LWWlQPj5cDS1roi++yJ2Aigdd385je3AK0CcbxdpmKfLA4wEquQp2DsOJHn9im6hUQ/mN1cO/zx5Xjt8P/93/9RudLU7kF1yEDcbuM73vEORq8YunAsAPVZOVA5UDkwJAeWttaVSua3gLbYYgvnsIasdgWrHKgcGMgBihcncX5LfvHm+te//tq1a5/y1Ke8+93vvvr3Vw+En7zEZtl27Yqvfe1rlE56lZPRzjBa13EbfeMb33izm90sHvRV5Zq8pq81qhxYAA5MgtblVBFOOWpEPlZROOdOY7IpYc5IZsgIeSyRIjOA1U8biwPGToIGYjZ2P8Jb3vyWP/uzP+PM9KxnPesZ+z+Dfz3a0kk2FpELVu4JJ5yg4vRO3gsKdXOEy8y22WYb1cel6kS/YA1RC6ocmDAOTILW9d3vfler3OAGN6B4ZdqYsEZa+OqMY2bVNJyHagMtfGvOtkRtJMvmm2++3z/ud/zxx7sL1Bbbu971ric+8YlcnfJVD5kt2qUCr4JnffCs4447jqPbH/7wBwqWX0zCB0cXLRuEcvZzqdSo0lk5UDmweDiwtLWuTABmgsXD0CVHSRQscwlmhp9ZzSfers7cJtp2LtP2/vvvH5wpV9zpOXOb196MVt3y2izfaPFeX2h0LxeofvKTn/yLv/gL8X/7t39zqQSvL19L82m1jUblSAvWD1MXjvMvfOEL4ZbCu+uZz3ym/daoXBKzchhpyRVZ5UDlwDLiwNLWujQU6e+W1Kw+xZdR042oqplBua1wj7OF9LOf/eziiy/m0eLX5VavXr3zzjvz8uHjMqvSnCo97dTTMjG3G8WNR1/96lfdgd4oeT0HbmjZEphVnJX74Ac/qCn7tb1ZFV2BR8iBtJ0O4Piea+vd5kUjYfg54ogjcpuXdpwMw4+a6oepyymnnMKb7YY3vKGr5w2HI488UrzHiuii1YN+hF2soqocWHYcWNq/w5hZIT4Wu+yyy9lnn23+XnZtOL8K+0HfZz/72X5SSbCgd07elbNOyDstz5vntre97R3veMett946rDbtDDPRunTg4IMPThbPtiJlttZGmqwgDPmuRLdTTNWzn9WZyDsY5lfdmntYDpQGSovTy10W+uQnP1kPcV7YpRKf/vSn4Zqk1nEA+ktf+qIfdaX9//Vf//UXv/hFNS18GJZxFa5yoHKgcmB6DkyCjlLF4vTtO9OXzKYXffMiXjs0LTPNq171KjfN3uMe9+jPVjSnEumHKSl2DHN3mj0aKlR7YnbUtIAVVChBQDkPAT5ZACSSLIkDTsaSvSCskdFyIPyPEsxvkkf5f/zHf9hzdI2CFY6u8tGPfvQv//Iv2200WgIWEpta/OEPVz/3uc81EFyFeuyxx0blyjBZSEpqWZUDlQMTzIGlvcPYFvcm+EwSEie4wUZYtWgte+6155e//GVmLQzce++9o3LhYT8bzUbCkLpObvEIcMlif2r33Xf/1re+BXlJVKPM61L8CovXJtLzu09lTXuJhKTLL7/cD7MkpT7Hx4E0ULuZlEXH+vCHP0zxErcT/ZCHPKT414+PkoXBrKbnn3++SinusMMOY8zT36JydZiwMPTUUioHKgcmkgNLW+tqNwm/V8Jx2f5sXJsVs4vTUa9dYdvIDmPJ2HByk02uuuoqVquS6AeS/fpvXqloX/rSl9gDcoDU5BSVKM+SxbaUacwtR37jzw/YKcLvK/upmQ5Y4CW6KMlBfTg/8IEPvPKVr+RVA/gnP/lJ4KOcIWO33XZzhXoppUYWjAOawNbzSSed5L5Qtkm+gPzrae0IGNimC0bY/AvSpf0mkkv5t912W05sqVFb+59/ERVD5UDlQOXA5GhdEfrN/YY1DMcBehVAHPP/Tne6UyeTqZSrnFuLpNOpPDl4MVMFzB6Tmcl+00tf+tJORq+0K7PXvXvBrHz44Ydfeuml0uOw7Bokk1l7kk6cdsUSJpMsBx54IIMWsxbXZvueIbUU5Ej/n9yg3ohb+LGgEY3Fu/zkk09+yUteIsJ+yfSln2gjn+guC0rN6ApTnc997nPwPeUpT7nDHf5SpKpco+NuxVQ5UDkwxYFJ8OsiHNXGjN6Zm2sjD8MBMyUNKTePf+UrX6EwnXPOOWeeeSau+jUYx+YhsdOCwcXQJeVNvcD7fs8994SBSewNr3/Dj3/yY/MWT3wu8/Dc5ja32WOPPShnpV1+/OMfF33rl1f98oQTT/jBD35gxwpCxx4ZzNxCyV+bO3PcvxCmiG984xupSLZ7xE32N7npTZJYnwvPAS1uuL34xS9mDWXv9JNchxxyCO9AbccjauHpmU+J6iL7hRde6P59EYc5XvOa1yRxPmhr3sqByoHKgYEcmAStK5M6+wf52TPfDKxpTexyIFOL35V729veZvr02b4eF2n7d1QlG0lbb33r5AmHy4+LU84cNrRpyM5hrvVV2GnnnWhUT33qU23QuNb80EMPdcuRInwqBcfWldfNr7f53e52tx133NFUfatb3erxj3/8T3/60ze84Q1+ehlAaLvhDW/EP4z5xPaxk4/ws5kxgJnab3rTmxa0NbKQHCgNKvK6172OLv6c5zyH4sUX6owzzqC76Dno6TT9QlI4q7J0Lf3Khim936/9GA6ylzrOClUFrhyoHKgc2CAHJkHrSiV7gtKy9bo5foOVX+YAlFQ+63vttVd8oh/xiEe8+tWvjpHJlMmwRF/K3GlawitPqi0dyDmvu971rq5x+v7/fD/qkR9OgSRzlae9yPC2PfWKb7bp1JVIkLNX3e9+95MowMxJKHFPGIRYtmiBlDwK2a1v3aiA7F7i9D9H6pZ58y2G6mumxz72sZTmZzzjGe64+sIXvmBXmvHyLne5S/rMYiByIA3pZj4x01pjuC5O/B//8R8tOQbC18TKgcqByoGRcKCZTZd6KLO1ipgGlnp1Fox+mhUVasstb8w6FUsS21UpnV0qcexNhGLE8uSmCRuFxxxzjMRrrr2GqSBfG0Wp59mT1zzbU6+vN9qysV35VHCKS/e0KZkseS3p7qjkU8/EJV1w1tK2I7RtDMlYnxuLA/e5z33O/fy5LF4I+OEPf0j/drPXxiJmtuW++c1vdi+XXJYfOttss1f4yoHKgcqBWXFgErQuRhHBcblZ1bwC0116ofkpX8oQe1WZLOk3+ONp5zEn1Ohnri9iCTvpXSfZVNr2Ntvm3ELRfkQ43UOoLTzD3vI1r7kfVbyodI0m1SvLL5cDVkogy9PPMLuv0o32fO0f+chHotMF93e4wx2Sq4DVyMblwC1vdUu7w5z9tGNORfCv/93vFu+Q1H90VDRzoncfip1u7lyGgMSNy8laeuVA5cBkc2AStK7JbqHx1a7Rd9aZBtmxaFRZ9JcSzUDf/va37b84scgWReMBc9pppz3taU+zkTvMcVFmsjKNUapkt0cZ/CU9ry6CYjZrX1QhPTCveMUrXvva1973vvfloc8yQaWzNVmIrJHFw4GDDjroPe95D8ULSc973vNe+MIXLB7a+ilxIDfGLXvlfmJy1apVYMqCoR++plQOVA5UDsyfA5OgdRGUCdgR40rHxDJ/Nk08BnYsnlK2h8qOIR66xMsP8JlEd9hhByoXzYwxgD9W3LYC0OZMVDhtQbsC7Bdj+I15DQwNTxEwMGgJJT2NxX7GMd/uYUHY0wmbywh23XXXo4466u1vf7v70JWOKsAdpa3kqpGNyAGNyzvw3HPPpcG4d+3oo492uoKuvBFJmq5oVKGNWe7P/uzP/N4o6+l0kDW9cqByoHJghByYHG/6MouPkDvLB5VbHu585zvzhr7nPe/pF6+dEHQHBP2GJvTOd74zG4J+jdFpR+e8/Dhj1KYffP8H/SyiJzljSOuyfdPxTc4Oox//cWOqrcPkzclTXjX77ruvy8HdCV5wUryik7kZNYnmclQxjBWYGllsHLAjbKvaqUC/oe5Uo0vd/Iw038FFQmf0dQ6CyEMSm9xOO+1UjL6LhMhKRuVA5cCkcmASbF3EqFDl5nz6KH3I0TO+OLQls9FnP/tZdilbe9/5znfoYVF9wHCU/tu//Vuv4faWN97S7Q+l3PwwgE873nlHt2i64NSn3LBaYBwTMyuv70DTeOtLcd8ExatAJgJbSs+rhrYLaZuyKtkdRi2eV+1lz+6DH/zgve51L5e3+Xl1kc9//vOLhEI9h9E0LozOWr7sZS/T99p9bJHQWcmoHKgcmEgOrDelLbkaZvqPBuAHBLklJa4iJbLkKrXYCM6EVPhZ5icptiOFqUscxnxrR9qa1cQdquLUr6p4LbauUuhJY7nj4/jjj3enF3d1ZyBe+MIXukw1nwrkQkZStB+OvP/97+96XneRfOhDH/qbv/kbplyd2VfElH6+kITVsioHKgeWDweWvK0rslKDlcjyabyFqal5qD0V5TUprF9TKhdSNhkvOSkxrbw4XYXGW/8lhV1jaSn3ePnBKFd52bC+7LLL3AbH1z7tuFFqo2jKFq3dk033SU96ks30qeO0U7ejbBS6aqGVA5UDy4gDS17rKm1VLiMoKTUyeRxg39LQBxxwQDV0LfLGjeKFSNdJHHfscS62pSs/+9nPdhw1lG+UZdKDH/xgt7k67UEdfP3r34CGkJEDuRtRI1zkrVnJqxyoHBgVB5a81hVfIuwoUn5UrKl4Fg8HyuzIYYhvWS61XzzkVUoGcmBqSF67Yo8997DPSPFyiuJf//VfWbzAL7CKQ+ezmXjxxRfrSw5a2uvcdN2ldAOJr4mVA5UDlQPj4MDSPsPYFtxO1Y2DQRXnYuBA09C9PaCVK1d+5CMfWQwkVRqG4UAUr2uvuXa//fajdbnpjbMXixdPr/33338YDPOHoWYhw899ugaFlHBo8VWvelXjQZ8uta6AtjBZl1b/Vg5UDlQOjJgDS97WVfiRnYLyumCRjVXufCq45GhGsDnSlMmJXsVD/5KrxXyabEnntR2ssViYqDtuHmHxcjz2S1/60sJUiobnxyI/9rGPuenXgVxO/VtuuWXVsRaG+bWUyoHKgQ4HJkfr6lRso7+aZqgI0RJKZKNTVQhYWiqLOVIweXuqQp7hbWrkfleT+oknnqheCaWmQ0bkGhKygs2KA6XJ3CHCIc+Ft3Guj/EJqnFz3g9EfvKTn1SQven3vve9TlN2CuWlECJnVa8KXDlQOVA5MAcOLO0dRvK6kZe9mXiBvekzVZTSXXJ95ZVXWky7XT0/a+NOKbe6b3Wr5h/a2irCHNpphFn8YKWfr/7zP/9zJxBHiHbhUaXF3cX6V3/1V3/xF3/x9a9/3e9kuw/MLayusB+mPzCeOVsn3OlOd7LltPBVWFYl0pnV94lPfOL5519w/PHH/c///M/uu+9uvzg/dTAOVujqrGuu+YXc1Vx+3iCXtXb1vDEfvx1H1SrOyoHKgSXKgaU972J6EaCJeEYJG197KIIKlUmdjvWiF73ItaJULgej6F4Pf/jDKTReXQ753e9+1/Tv/LxrgWyshNpxk7fBipuEaCqHHnqo67k3CLyoADqsS1tf8bMrHve4xzF0sYThtnsKeEyvPnH1bW9322Ib015FPy6tILvAu0jzudLzrne9awf/oqr7JBFz5JFvWrnydk4Rfv/73zdePvWpT1GaR1VBbaq50/R+6sevKcDsmtaTTjqJU2BKASPSdAn3nVSVK0ypz8qByoGF4UAz8yzZQLwKYZRfkmG6ENRG4vjqFOSm9sc//vF+1sZvAr7xjW9McWS9azzbRZ926ml+vmbVqlWXXHKJdOSNlbZ20TPEX//61x9zzDH9AGxFLpDcY489+j8t5pR/+Zd/MaHSev1YJLuXn6BBLYsj/yHu23Rfrzjv9438NKTX0gRu3mf8cHUTrWsxV3DCaGtG6R//SN/FeauX29/+9vzcR1tHVmcqVyQDla6NX+sr3VMYbaEVW+VA5UDlwAY5UP26Zq3cWiFjKxddC+iPffRjLsR3KooEh6j8Uk1ege31hL38/Ijp/61vfSsAKbMub9QZ0PaCF7yAh00/Yntt3/72t/3eYv+nxZzyT//0T/QtG6a03qc85SmsVvhsOqd4+Y0jv26EeJ/OOuvMRz/60YxhpuRU51v/9S0/WfOgBz3IHU6LuYITR1tjX+Lg5dd46MrZamT3Gk01jbBrVxiV7oaA0I9bn3XWWdttt12GnqcQo2aeoym0YqkcqByoHBiOA1XrGo5P60OR135M8OCDD/67u/9dNC2TOhDTuWV0D3bqB0a82nC8z33uYxqQDkzeLLK9irhG6IorriiL717eqUdmiOZlkKrmq1yevkfJSzYpwZ8nki6//HI/Yp2vnmjwSmssKSWSLNzRpASzZyJJSUE0lZKYvO1XcVqm36huIwnmAlwoT8pcns409uruB7P9dDcFi+LFdnLcccdxmmaJxOdb3OIWTqt975LvBb8tLbu9bF1r1qxJ3nef/O6XvOQlfszbJtdAGkq9sLHEQaI/8BKFsCV19NpBVVJKrg5AXnHs8p9eriINxvWRSJQXfk83L9i/bmMIfMli1xv/QfqxJlmENnCJJxcTbElZsIiNPeF6m1/PNvdTn/pUHnXIcAfbRRddVGoxN2Kaym6y4psXfXPPPffEB9v6ji7uuOOOsNlK9BX+KFt5zq2U5ZlrVk0zK+DCT7lKd50bBqg0ckFSMItAaETMPAbb8OOII0xAidDB3/oyJdJ7KVPwoT+5JFklCg2WXgiqwBe016zjg/Rkz6eeJOmWXnLVyAJwYBK0LmqEsADMGr6IxmGkN7d4Cn769zGPeYzs4j0kTaLx4sdJKGSCA+2qIJH/7xFHHMHTiKOSqWgd/ICSfUoW39rVl54g8cUvfjHM973vfffee+82ilPec8qDdntQOyVxJBVskIgHVb6Kp6DNN79eviadTsC5DdnJzpikRgyB73jHO4CpEWHXhrev54pwfm/kQqNQzkkCECnB+Y1vfGPfffc968yzttlmmzvc4Q4si//wD/9AkQ0xD3zgA8/5zDnoBEZzshdJ4zQfy3v176+24Uh7pmUOVD5gAMY3nwO46uBk6uvJkLbrrrvCmZSwxbNdzQKcREf2YOA/7udoyqcSgQqpu9x3F1cqsDiisHxCBjOeEm2TPeABD9ilF57+9KcXTVre5z73uSnlc5/73L3vfW/8d5xTFomhrWDrRHQMzoglUVkJJWUckZCq7VHIBnzYYYf5XSmziIb7n7X/M58SVRaXHvnIR1rMwHPkkUf6zR+zTlOpFU1rpug851PQcs5Lpz/jjDNcuqan+fXbEl7zmte4DaSoNVie+X5WvNI0MhYkw+dtmnhKfE21stINB4I3FBp9kUjD4xwhZGjr0Xjtt771raOPPprwL6wT8Xr00UdZEKZzRpiIF6nS1Konk6UcdNBBfs/qM5/5DDlQWuFhD3uY7CkolIP/+ZU/J7sUl7zSDbo5ytwRsmN5o1pcysqs2iLdq6feTHXHkr3d80riAkfQgCwmpfvf//62UXZ/+O6FALMzi4tdD5MNhYzDr1X+Bz7wAfDMGOeccw73cAoBW9q73vUuQ+uHl/6w5C0RphGzy01ucpOPfvSjsZblUyTdxz/+8R122MGB+d12242q8cpXvrJkFPnZFT/78le+3E5JPCPT09R1zjmfsTUjzlMtX8877zyn7vnPrVnzvcxqBYNdPBKNUc2vHf/7v/+7zR0mmXe/+92//tWv1eX9738/PELg5b3wwgsJ7mb92ftf8AwfIXoCzHPLD/xtfeutKX+0E4arAw88kBRLcexe2bpyJfpNbnwT3NAiFCl5D3vxYbaf6GoqxaFtYNGkGPejr33tazaRxelMASPLNFwsagqyR0Z7W7lyJZhSzYLw0ksv1RZY+oQnPIHJ85vf/KZPpYuaYM78tzMRzFbnwB2V1K8yF56DhBCwpgSjOvDYAnb0r2iKbs2gu2h3Zj++hiQynAx7cgnTzXzQCtQ7rYxCBVGOwfdo8xhvULQCPJmKbRDTm290oxtRvB6++8N15lmVrYK9ajaU4z8VGR5WTyrXU5/y1DJ7FZwpurzWyPAcSPewitNRv/rVr+pm1jnkm0v/Ifnwhz9smHBjNc2TZkYZ5ifLdEW0v4prGoH5k+FTZLpc0gELHQBZCAGLEKVTSjjdWg3qTn/7t39rSaODkQyEUifXMK+d4vqLbiOZ4SuGXHDBBfwcLIoor4Y8t2C0IRW7TjvtNOOXOOL+8YUvfEF1BIosoUEgCIjHYULgy1/+MqFEzPbWrlPGbOvb7DCEGLMMgXzPe92TAKR1wcz7gqAgSazrUqMZSG3XqMZHzIHC/SUXIW0jcM21Am2gpBAHG6U62oa6k6IR85WvfIVzN8XIDJ1duUIVacWpxTiRYjZlOOntCjVbSL//f7+34UUhoJoYaa5C4A5sx4SyUjCLUMvIEWqEQQiD2VpiOMBjxqabQ1u//vWvw6JkLE/eTkj1WhhluL7lLW8hPR0DlFe4853vbDq0QUMjCRLXK9iyIRocwifUUpypWiA7qB3nnnsupSfrXboFzRIMS4bRXooWQTk11EUPoXYghW34YeJXXnElgjlQw6ZSQtBqjtRU90CkdK+5MHOnnXZiCNEuuey+vxS6FIbYnyK81JHs3m+//QoYPGRZXpmfiLNVq1ZprwIgArlAvSbyfvSjH0lxXSeSQqSnYJIgZ0lejQXA4hXmY489to0Hr8Bw+YeNsmViA6/JgiF1/N///V8/l0S5lIjgHCloIxkYxxb68QnvOIFohjx8w7wCDFuJjymiCOylOqu4eSj6okTEDFOivCFSFbj0QSJQCwyupHsmDIOtwszAAWz0lR5jcRgwciDtlcbSFkYNezP5RkqA6Q3E9boQxagUAWF/K1u9kI0zw0y1aO9PgbR+MKKNFKezeRfYvy7IQ7lfR/AzoNci55rrRF/JLhKwREo8AL2iph6qCXMHoNQrQG20BYOIUWaZZLUDjBMtDdX6s2AzqKlTRjFSn//854OngDLGE7wW4SeffLLBTgkj8FWTWBhYSiFMXus9S3oreRkF99VpGqJSKYXOEunHVlPGwYGpRcM4UI8bZ+kr0bp0xJJSBtu4aejgpwaZ0VlTrFQII0YLVl+TATC05SliZr3d7W738Y9/ghMSjYpt2a6TdOM2w49VyTAzjwa/gWr8OG0HrXhQWXHSjQDYRlTQ3e52t6x7SATqBZF31VVXJXtkROJ5WguamcShooHxPKMZ0CpoD0a47b+ApSBP4X3vex/7AU2OVKUjqmm2FEPw3e9+d1oXHYVWIW8Sk3H16tXIC8I8mb40mXgA2p/mFlfB/oxBjmNqRAshfag+wBBD8n7nv5vTi7QopBJG4UaQBBsdyN5EvLClE5RaCmeimkihX9rXE2GMdApPC9KMix4mHWZNQA/AWLt46LHFyc+MxcvXQrOFb0qRQgFyeZWtEDuJYEowt0FugUuZ0Fjkb/kkEvopfLQxr7PiKq1LFvyhc6uCycDGpQBJMzktSGhYcc21+pVO22hMK1ZYjiu5oWG4AIPB4lSEvJYNbp9PvuExDFfOcocqXasMcAx/97tP7ldiaAbGHXGBZQFu887gIqxob+3EEicbHbIur/2R0qz6Lc3DehUMmWnVYZPa8oZKEQ9OkErXPUR+8uOf0OlphEFYkBT8SZH9e9/7XrSifDLkmy7aU5jWrFkDOYCB2Q0cq00LHmAFbYnIklyFe/o5p0bzRT7lGXgDk8AhdrwmVxuPr9G6fErtytfAK+Lwww83iWBLJzsAC3XbLMY7sALfD9bGWeMj5MAS1roKF5htBdvb+k26TjpTAViwiGUE0wgjipWK6yQYqwolhTB93XByPbcLGk495VQwWSQFIEOIkYyti3cXypsq9SZsdz1Am0QTMHln6ZOq2dSzQGSLMnUp0SKJgc3QspZq1x2evLb1DPKFUYqsUTSHAztutgwC2RTcG9XkgkVkdAsYGMMNaQqEs5BBSAowkiOPHGyXKG6ZRV1rJ1ppIT4p8Lc/zS0emdifF3ISEFVUYTpWuMGTyX4W4UsEoxZM4lhXSIJwr732ot/Ev1v6O9/5ToomlYhxPm3koimbWdamdFy7nGB4bpXZIvWywWHuYZ3yVUrsWNQ1r+kYb3rTmzQ0G2EAtAvms2mhLSme5CZ2KZrDHHVZY5VO5asgl/5v94QRsVGVhuMoeoRoXSIUPh0ME8RTQaWIp4jxPntuv4pgrzVPqCyrIaYZFwIyNkgJ87DlTU8MbGpHW3eFbYGIHy9rFjt2jaX7Naxe11PEBRZc++AD76ABb3lGtWLmWbNmDeA0camqxeSb3/zm8mpbzdZ5eS0RKxBLKeOapmUfgGlz7dq1sAEgHglYaAswzYmnLAkZyz2wQBYAEZ3NELN0QZt1jteABQ+cphhilj730Ic8tD87AEtfS2gLLWAs6B2YYGuXSOuywy6lLcGSixGBKCaQvbYrAtgr1hVbVwO/jvlBLoWUIL7sk5RVertcSxTV5C+RslJE4m2wGh8TByZB6zLyBR1Rv0nX6XTTMfGug5ZhAxlEho05fX3q67rxENoQFo2qs4UEmF+UvbnQH6nR3iSSUTBEP/mJxgzADEOoWVeBly7FIK76/7UAAEAASURBVLdtZ2sy5TLAsEgxHgCjDTBi8wcCGTIIPqQGsv007ZFiLF4Sm/J6QRbCkRxhb5OeEk1shAv9KQtWk7dFm51NOUirNs5ockpM3pwWJJ4CA1sbeG7xGZCodWxadhyCPLdl0jBiYZI3LZJ1eWA++9nPUoZ4B+cVW1Sf3kPKR1GT65nPfCa9lkpEugWMOYo+Jx56LPcppo0m1AsUONJcuxOmSeH0xkBIR6f4SqHP0TYULTDYUDuCRymqgIa8EtCakeJL24uwZuViO7SXbUbB/yAf8hmtCyX2jBBMdZMx7R7da0g88wRrqqYjXHMttZJ2q3PSUOGUHjJS9+lKOfHEE7EaE2y4J9ds+TAd5po+MwfwXPfr5zavLyPuPe95T6fhTj/tdMZmqxRZSIyIBUW0O5sBZYfRSvK9p793n332sWqyFGFGKpSwGTNXw8NAy/OVGsT+VL6KRH5mdHhlWmOEhsd6BuSPf/TjNsGhkN7GIdKKqDko8Kxno4HXpk8CW5pxYfA+59nPgS2JbQwS+ZAAYDtXqJGONsu2deJ2WhGXkRucnglyQWJgWuW290nWfW8IYO22yr3g/AtKYidiIwJbJHboDJhE0iMCRBzCPDtI6uuYODBg6h1TSeNDS0YLumnGg4IGdrXxEVAwW8MZDOY/O24EB0NIZxUCMuubmKxKj5dujLF7RV2b0roubG77TDAv2pkqmhb8SjH1tkUAJhQpllwUQYvOs88+h0u4mfv0009Pev9oD55oXZZ0wKQUUYgwMtR+qMSIEgAYzrbHETtxgiaWITApJU/6GbbY/fEKmO5C1chmXweynWtWcXimQ2VVh0jC1LZdwMJ/IsmUoBR1jF5okVqQyBIKAVBHcJvct6VL91q7dm1o43vBrklGv/zlLw9m6+OidVGANBDlcmq37tprbRrKooFoFcEQOxxV1auJxJKdIotd8eJiSAsYPkfr0ltQmz7jcJbVcAC0pnNJxx93PDLSZKUiAZjhCbmv5jbd9YQTTuAZ47V0y+HxzFDE8J8UZ8hko9ASwimQQswMlJx99tlUZIau9iw1A/zw9FTIDXIgMge39ZkAiwvM8BSy4lqXTxqUBCv3M7PHx8rrKzHl9IPeKDCNs1TpBqxZxouubkevUKIgfqKWLgzYEpVldF9ycWNOFhoyrpnSurI958kJ0oaacWcLkonIcssCI/B5GnROJsETo5qVEjHF+puvDG92J9asWeO1V7lmlAltDPIe+aYjpRCVxIIFWPY92zD98SKHyyf4xS3tLPCiFZVP7Uh2DweaAAPGZkxciwdhO6844rk9EGupTp79U1UnV30dFQeW9hlGXGgUrkUTWLBNlg4VmtQJBcP77n9/dw6MhqJpGJmEgh7PGtRTmK41VagCTYtdylLJSDN98ngwtTu98ourfkE5YxyyD3XnHe9MOfBDcoa0ZRnriJUiUZJ+ALNZk95jiSZu5BpIIgwA4O93v12ZWOg6jCgSBQKR2Uykwz+JPqGw96k5UtRAr1ihRILJQPXpd7/7rfT/vfR/1YiZmm0vMAQliQag5Eo6GcqUTZ/DEGLUTqUJlUDJ15E8ldgpNGgxBwcQEKcriThPHtn1I4JRIgXDvYJhtAvTzAo0Lbu0vko58cQTCcFzzjlH23kNc3yimYnnSFFzkHbFJhbHVtU+IUbDEdPyqqz2feELXkj/o8n5GhgRDNSO+V0mLctyqZ/YW6TgIlt2MEoUevVrHjqMROS5ZsyPOouXsPc+e4v3joWXtA1HKIW0ed54DKLMpVRPLFJKStxw/tFBaCw1Vf0zzzzTnEoNNW3YKEmVpyvHnGpFoX9qRLvAsTsuPPHTkbdM0jG8CCJVpiTZqqPE6/xeffJk/bLAoNwwEntlyrUmZKkSd4jbXpg1oW5P97LGsE1sdWQ9w9DL9H77VbcPfs9TTjmVKsaZVV/1Su4Z3RdfcjE8U2GTxrdP0ez9dvzZ+w1tCx5jjY8BD0veFIYzYP0taJFqobt69WqGZ8McDUYfq1gQ0rp2e+Bu5PO6ApoBLsieFJUlCm5+i5s7e8jEZe2kK9IpfS3iouSdOYIeAFhB5zMQZhjOSkfqQGz47KuKw4bOfhjjhRRi/EtxUwADAPuz1pRRcCDdbok+M2zChsXgTU8EcPcJM00btrd4jtOlzKOeJI6p19LNlM+wUXhutFusZz1nINHAGMwoQCwrFnxwMoxb1pAa6msYGzCsR5QG07kUwT4XDJQbd1DBUIIiwAMQMSHFWOWVPRwNzv3lk6+xYGWNZbkpxad89QzNRFVSfGW5ofORTVIUJwuplFdfOwGdlqfUHdtGNAayNXamgq0DP5LXEOZpSWfmdqwdWq+4Ry1mZ8KZFGRFziiF2+iXqC5Z6WpBh9iplXZ+QUrHQ3pAyDYr4ABdVrsEDw4UAxVdig6adAe8Vdlq3qsJQ3dNeonTG+Tl+C8dcvYegrtgZmMzi9CYk4u+ro8RqSatpNDLqeDrHWjqqd35Ot1TQYJDEn4KnU5sfU/rirVSFp9Kz5kOwzjS0yj2GWlRWi32vB6lzaO/RI1inaAz26AP2QPB+jPWlJFwQGfWjdNVwnk6EOnE0Kt/Nm3WC8qyQiMEaPnEhSHjSjlr1Jws8bXd2bjoxdIMsmQPtQaRBW3Mw1LITAOHjm5EBwC8SKzXPlGYqFMGFFTS81VvsRwqr8xy5PMpp5wiBRhlC/2plxTBqW0LWgtFG6NqF5I80SzQ4VSNbwAxTkKS8LJYuiSkxB6aAY+Bti4WQXWktyVDPwYpYKxyVW0A0muvve8uzUGruJQMBIhPReoCAEJhIGRNHAcHlvYOY/pKtK7F4E3/z//8z1ltd5qK7mUkm8st+ExySDWpcEqgTpXDie1+n72nbOq3URnkBBHRQBugxLDKGLfc9skRoiqQzQC65hoizzxqhuYtZHAyU1Es1q5dG0FGS5P97LMbLUqQEVpPXslWezGnJV2iiAFs+4aUVJxNKBqkakYPCJj9u2gkkW6hZLqnBVx2B6YDGE36usPhJmZKT9nLGIic2y/6cQzfKDRkqK1DmqWI+qaO1tzxYE0dbVIQ63zzC0L9sMwidCZfrVZFbE+4pEcuQcWB0W7l0i6kuYbQMfQQKdRTQQTNdkO0naLXfG8N2ljj/IY6dUQDgY+qF8IiQ4taVujJ1/I6XUSJIN3oRpRTQIF5TTcbEsN0mOeWrlBkML9lXLtRwgQmMaHgpD0XGOsZ03n5VCMLxgFtlLEcAWIit7mmf4YATUZkaT4778U3UeKpp56qexsdxdNAotGRXDCwGPVXgTSjzOn/Vm7pDNybODARrR/5yJTWlVzxlIgfqhSYG/2oR8kxbzsmvhAw+JR1ppHeeIP0er6iLWPIKLIu2IJBQVyHyUYqkVNEkScwx4PNHn2ApQQz1dA5gIJhYKStdYWBVj5kTk7nBE9/Runc2qbTunwljbPrKi50MFhMOjfNtp10bBkI1slVX0fIgcnRuorjDu6UATxCTg2Dylag2bFHQNPX273ZGshCLXOq5REbAwuH0StCp2l3fbkyj1p1lTHcLh0ANy9LNI5ExJZpiS2qSA1fAfPoZ4khpEg3UoaBPWf0fCUEbWJaINodC5EFua+0t1h9SqIIMmyZHXLIobQKegYVISYf6YJcrsZpxvkllySlnbc/jjD6TX/6yFMQAyf9iZGvWIb6SwFGjtsfDA9NBpQwWx7mhjBN68hFrVF380owmPWpTfTUgtAMZGcENwRCGa9IT0jWrl2bRJDaGuZoXfLiKg042pWvYaYIrYvwLWo3bludy3j4qw7HOu7AYApOdlCqm6lCYgm+lnh/pOT1KU2WHpj+qYeEdf0ZFyAFbfqUKdb8iqXxZUy5ITtVc4k/E6DZUY8t03ABCMwCULvMiyhaFz7QdawxnLDRn72mCTzJPY1oyz6dinOnJZzuyhMx+llarXQ5A4da0M9YRjUtbiM+n/g20eSIMvJq9erVbXiCiDhiKE3fLsQYsPYEKEPp7dLtLdrUzgj1So3LfQ3qpbg2zhBpb45YtgUZ3QuA8Uig8Z2IlJASSHXsrbVmGoZtrUtGi3aymrMBDO2iO3Gjw87pDFoX637RusJVz5BngJs1fCXuoO0J79A7U4kdAurrPDmwhLUunSVdyggRTFTpPr3ONLVsmid3Zpud9sMQ3SNgqiv700YSgtspJV4+yRLpYHiXr8NESpGAKXlUQAb2MnNzlgyAr6bVGEtKoSKJdwhOuf2JgA3jXqaG1cmbSJE+yVuegeFaweWioyIUmNFGIlOCUzyR/rqkIr6WWrTJmK46bZjE6dAOXq2X3iuzsN2nUoREcSH05DVxJepFsTiKJ7GgDWT7tQFYr5dNTXgFZrqIjELIyLNU1ut0uRYgHVVKiRXB0DaLlG7sk5mDGt0b9CtwKZ+amqwfRksn3KNFOBnYtAJbF9skpwWW4GJxLx1bNTUWFSH1ZemnaVGqNCLdxdJCetqtdDkOi7S0fv4wNRUbmOKsG3l3ARN50xFvasNbLMHcmREshOwwlJ1oxRGDaLZXkLyWWzbmcpZZvaJ1oQ1kQukDPOVZxK3zZeQ9RhfMCjZ44gHC7SxrmDZhnTity7IBcneJve51r0OMtURgirzqZPEKnqVqOq0LgKU45dIksg7V1FhWCvzYZTu18DyRUrX+4mrKyDlQta5RstSklXmrdOVZ9WbAGd6xdVnGIU7KbEmcVaEFeXK185a4SnWkAKqmLCI9ZS61hkqWhII2EYmJqBQnpIXRutqUFAI6hOU1TJ4OJnim+zoQ4VRir9LtjJ14eRURGP89M2dQvFDltR9/J7F5HQDVn6+bImOKEBF8TiTPLvSCv+MGk220K3aL3DSLtuyPS7fxyoMndLUpHxP9NIYF58FiLzDaCduwTXx7atZymN9uEXH2m1zcxSTJEmYD0TkS6Vwsyu0tchUZQhvLjkGn8srKGVtmfk3P1hUA+IvmJAUqBmmmJlpXwXDiCSdSU6hcOlVggJ199tllBQgbnBTEZEm9SvZEUJjaMVFzRaelSWfJoy1RJfXPgHH/4OnlnEeAO0jar9G6iESbpCx255xzTvkaiVRe2xGfDAfmbQOhnV7iPPFtcXAIiUEr6ZiGSMpoVoYNt9etw9G5QVIL8hqZPwcmR+taDDuM82+P9H7LFDLCHv/8Ec4ZQ28krjeZ94/MpEyX3i4aDHlHXpC8JFq5w6INM/K4QoWRox03wtWrV5t1bD2Pu6DwpzwVV9hVIuOmYQb82b11QMzUyGXeJg7gtWvX2h9hIbCaP+8rU7NOqUKJzIC2fhohB4xl+2t25Zj5oW13m7SFRAYkm8UsWDQVFw1G5ZLu6KLsHPICWbQuRibpPOU7dDIpseIILGF+FqLAUy9yXi/wlir28RXK8MYOSsmg89HMqB0dhFwzFeRMpaslKD1cGwvNlEgdr8Db1vRbI57srzYlfS0328ly8MHPdf7JCRhZlMuvo2yDFgwDI9lhlJfTbSl6IGQnEcHUStXspHuFh5ilb/FDhdlZHF5r9kMpuOVem7AuJZZnP6qaMiYObK7bTUYgiCegIjnoS76QZYIaGUKbbbrZigU/1tt/5Hi6lOnS280BholLisnSk5+ZJW8bYBzxfsLGUcpIcBreoZbTiR+04SdudoGZ0ugah5EU0Y+knz8lpUT6cy1YyvWufz1scVetRYhpjAcxZZQbjd1zNNiR2WnnxvELTIekxUB8h6QJfuXTyX+RKlz6cCqrFdI0DNu0H6Zx+2LUiyKo7TM6PFg4U1qNochmvbYunxJh6LJyc7jbjRJ2lm1rko2kiiHDulOAjRd+k6xu9Aw/4eUTHUW3YemhYQArd5FYqDvPBCdKXAST7c7gYcey7k2cu6fD1/w9nCuUYuvQkcl4kqTKRx75pic/+UkKVQXnNNFPy0nemZ+8xFTHERnY5FUdtBU+zJDXpa+U1xA8EF517PxSy2x3AsBMPnBscmkRTZDIDEXUT+PjwNTAGF8B48Os3wilmzK6OuGvOJ3M6CpDa3wEjBWzqqnI8ONwrMRU5GPlQLorH2SrfHOYVawTABbf6QNjLXpJIOd/bXR7OqtrRFipm+Yd4EU81nVmnc7rkqhgJXIYDhgOwIZvX979LnChtTvBHfyzxTAMVfOCyXph3apqgcd7uFHoH56xJUuNzI0Dk6B1ZfFkucCYjAt6z2RoXanF5A0Go13VypJ3bh13knLRJFz05cItVhwHuNzQxsWkU8FFN2F06BvbKx0Lbgt37jIOoopb4nNhppUyBG6ybsZK+fMfLJ2pqF2t6ZB3sgCTMh1wG2GNj5UDUdC1BXvYfBbhkcOeadM80+jzaeXSbSDZKB2mEJBWmE9dxtqOk4d8Cd9N32uM64TuJM3ixoPgKvKJHAkqNR8hOHmDkJs2D3o7GvyLjz/++OlUrsmr+DA14tEl2NbhvmM7xgzqIrSwaLQqVwbdDCQBWNHdzJwC32DeGdDWT2PigEbhEUhrv+aP10zXcMMUHSGcTZUpgTxNNxgGW4GBKkGKSEmvkYnnwBL262qEYMvdyW76ZLRWr17NOJzgoTjBVZttJ9TcPHCZaSPW+7OnP/SnL6sUHipr1qyJidTOkUAJGwcHZuY2tctPP7VhesO0O1TH1L3b5c6n7mMibz4kjSMvZR1aPrLzRD6AXTpBa+qZJ/6Nlb3Ua1T9amNVZMmVu4RtXbGXcLMliwUXVC457g8k2GBIGPi1Jk4YB7R1vPeK7NOZpXhKKYkTVuvZVsetBPzeGLqYtPkRu0YfBqybLZ75w1vrKZfwSRhAA9Ws54GkrCYyCrtIyFbWSMJ6TGhRu176pLyEY0tfR5qU9qj1cJ5jSTPBgQ/XpaQKTrWUuhhpJV4jlQOLnAMW5XqsWTx0Jp7ZovZkPHF8zA93irjWyC+TYpRjX7nKKxrq3Np3Pd2op8OF81P61LR/mpaZW4k11yLhQO6vQYylzSIhqZKxfDiwnrV8KVbbFSk50OsgceYtMpE8rZJxKbZmpXkgB4p+sKx6dUax+5zcPOReSk5dllgcCfh1uQbTk4u96wAKT0pkIA/7E7nT+fUVh/wt2HqWRaap5maBmYNSNt1k02aHqaV7teOd7GrBcimQTkoROgAbfMUB1x/4iSSllIKgFTgtwUz0ibgJXcQFDQniV1xxBdOgEpMOwC0JINeBNL9u2V86PrtogFnRYiDZGRd/85vfQJJayKJoz5JdFh5UsrjsRhZgoccd7sEv0Q/vuDWG86LnTW5yExWRxaFUeX31iiqlIFLjyi690NZU29UzrhK5fkMbDG7MktfFEzYQRQTYwJQsM0TcSupqrlWrVvGh9LMHIIfMOAPOJf0prbnMmbCQLbiEta6cYHILXI4uGqi19yxk19lgWWmONth8BjZsnext/J1P7UInIN7UfRI8SWbRFGlczeq3X3bffXeaxyGHHPKGN7wBCr8C7uYnFzK5/OnCCy+UUoBnUcCKFa7N3G+//ShDJvgoEPAE1UA86WOeCW0YKe3XdhxCyEmnaDA0kn5gMNLbuUo8Skx5ja9SXuFMBEwWnBQXKeJJ8YyCVcDUVOl0r6Iw5VP7qQgBGKroQIGUEpwpKFwqyCUKhZ6CTaKMqlZq5zUI6WciNLkCLNJDMwBPG2ZgHG2liIEA7cQAe1LdXEcyf8evNvKlGE9r9nfLpViXJUHzEvamJ+h0FyPfeMuFokuC40uXyAzO0D/lTDrtXNNARXBnMMs7z1EdbNNxbzIEx3RcmifrpmPaIk+nHJj1DzroIDc9OrTopsoQ7M5x11q6G/M//uM/XBHuB2TYOUzhuGfaHr5SV//+aooCC42f50vvSi9qYxie8wMhgzC0lSIkJn2DBQUSkURclJV2lmINKtpPvoIMcJQnT+lKj9okHi1zIE5fFSeIgA+eJCIGEsFr6C9fm/KuuQZaAUDI9oRHCyIg8hmdwayZOkpS9C2Yg19kYECS9JJXcVtcf4tNG51zw8e9YQ4YGlxPqs8wc1aVCz9n5vnAhqiJ8+HAkta6GjfkjEA/7zUfLtS8w3Ag8nQYyAJTxnOJlE+zikTKz5BlnvhnwLyQnyajFiPhGFaYF91y6efSTZb77LOPn52B2ezu1RUbrjtnBuPv5RL/+93vfnNgXRzd7Xb5jZeVvTtp+7vZMGhnhoGzp5M0tz0l7plQGBUMHTyBkZeyUmxOJUs7Qo0A3E5JXF6aa7LDEBiJtNhsF4r356Ik4bxnAgBmxWSBxEXtnVzU1hv+6Q2vb4PRtR5bNMcdZFEWquSyMQoPGCHbgrYIqbn0MO3YX7oURfzmN0ppfn82ADgDOEjsVJZcSYS/USh7277lU38EMDCo/NTBwQcf7C5iO9T9YDWlcmDcHFjCWhfW2HcgVkT++q//etycWg74I+Y60j8VzyfPfDVjDQS7jksEZs8YeV3KPBZV05VV5HIhrDkyNqMFrk1PjS9CDlhHZea2e2gzUdyv7Plx4pCaqfrGN77Jscce65de3CvrB/78np3bN6ary3V9Y32IdB5dS97OPRT55JnI+vmue0u3nK5zFjhqSsiWAhjODWYpeWtkSA702mpaxobnYbvDsDRCupqfKWQhZSYbsogKVjkwEg4MXm2MBPW4kRhIfvoq11W7mH7cxS0r/BFhvU2bJpq6J5JPzQ7jVPJsGNM7pl4QzibnYFhitIQCAb95boSlFMw1sjAciDWFszM/bnYRli0p6Y0hwEy5/fbb+7U+rxdddJEjNSw6s6UtTkUmYCacTt50qlhHqH3TBQCCvBkUA5+pS4/+5hHbfKe4jfIaagthSy3SkN/mW5EDAyOaSXoHvve6HpI2QI1XDoyJA0vY1kVMMF8TnezhVqudQTgmfk0wWgyM5J3i5LUrruklqLKUhE71O4KsfE16JqSSCAP8A/FQ4LLdU4BFCvJEPDsIwcBWsgAA4tWGg4WsF189C0CNLAkONK246aaXXHLJSSedpB25zDtoJqXTmsDsE9kkOvfcc88//3y/wbrrrrt2Kqi/+dljBxVf/OIX57RaG4ClnGMQzOkk7Z6ZlDzbWcYaz+jo7+QKTT+fjp7p0memtsll9GxofPRG2HWjDM65FTczMXP7GraUvEMSRs82ZdCkMbzkrZHKgQXjwBLWuognR6MNPDv9jXtXb2NiyIE3F/5G8mzSeJasXbvW8eMddtjBAFYuze8PV/MUbfz6kwImcRugjkNnJzTUDiwa2aoTXaEAkAsSeTNINz14it9gixvEecKripdPIgL4yO62POr5STiS/Yff//7/8SD+7e9+98tfXoUkXheOdiMPzQJrgYBseZNdPBXJa2Q0Ur2WZ6G2HUkreCZSPrVpa8rohfK1HfGl/QpP7A1thP0wqg+AywhGgffkROJUuSefEp6zOIaTIj554ljQyiikREyIHzf+iKO5sB0e2WVRitCmsBCTiK/ACPcm7w1uICKIlFwlAkmYrNAwXwokDa/oqD2NF7CAQjgbQnsuLGFmnuABpC7pKlBJUUHYxCFXnRQhHYynjqFGfIplDIZ2jTZWXP2spvbff38EuCOAs7xahCE9HkyxXaUA+G1jnvUuVvjXf/3XXXa5L9a0K6J7u0+VTmZV1q916fOQhKtQYYgwt1rPkHGGT52yUDJw+RHayrOTq7yq+AZhOsBek6ukD4x0YDqvA7MsQOLwjA0xBV6vMCqNR6O74XkNlQMLy4ElrHUZRca/ucRUSqqOe/yYAzMHP+Yxj+FHopkQIJj2Slwkr0lBEgpLisTZBhhK9lLBkjJbbFHL5ApVhTaYVaSDzdeSkq/9MAEIZJ5zpq2U1R+Zf8XbONUi9TXjhuYZqp/qABAg8ZqUNsISh1kor5AHv5RkL59EylefkrGdNwDlmcjAokt2MAHwlEintDdHfdFphXwt9HgNSZ56xVlnnfXgBz9Y4mIIlKFvfuObLuhCzKGHHhqPq1Stxd3mhJ3q7LTTTrvtttvq1asZvc48898esfsjrElKLaCikNE16dwlsUSo49BiO1QlcRyRTsvOVMQ8LgiZRSktCobJla5SMqUtyutGigwgfEDSIOLc8pXzAdYeg77XtMqB8XJgCWtdGPOTn/yESLUgJkCHHHJzZif85qfvfve7rmqMGGrPYb4msS3By8w650JnzpiysuhvQ0pHj1ASEy/PTMydjE2GXpYO2bClav3wIGUp3PAK2DNyeSTSGUJBRaD1HAlONAenWbmwqB3R0CkxhebZBljkcVwyrwihM5Xtp1k1QbLUvupVr3LnO4B0gH7IhUxB1QknnuBs/zbbbPOIRzxiBqq0C4KPOOIIqyC3jb/61a92mPFmW9ysUNt0nV6IC1dJT+SWt7xlkOvA+ACV0IEZ5nVuuYbBPD6Y+dCc8T4+2hYGc9PYc2ruhSGvljLBHFjaWpej40YOrWvrrbe2Suz3DRphyzVjdJPGh3evvfbi52vCZmPbdtttYzIxARDcgkgJ5VNSfJ0VPYor8L3CmweRl2c7krh08MoquRJBhqD0PAuRJVKUj9AZMHG7kDDMluxSemcpGQLK14ERU6S6pArgkwU9A4E7ibYMrrf59VwcXgJshVeA8wq5iKk9rwW4YFMohvQKbx7SkSSAF0RkKcAzR4IcH2QMJQPzhu3KSsU7OJNYMgYnGJEC34YpFHYAUqlAgrGz/L3vfc+mp9ve3X1V8HdKX/hX52PcX4pjroPJ1fNphX5KQrPrzl/+8pc/97nPtSI666wP7rffvoGUS5V1HlVm+evPTm5IxAoBKqEfpqZMEgf0hNLK+obQTpmkmta6LGYOLG2t6wtf+IKRE68dO4BlRI2J48FvbX3aaac5XbXddtt98pOfLDoKSjJxGskiQjOqG+ecJi5xSO2hEK+4lChFJHODpwlpMzcD9jx8pl4lrH9djeIKHmQISs+zENyQ1Qs5w6WIfAKW9OxMFTyzjaCtnQVJbaran0YSxxX6jUKFsIv3BszS6ViK9jX89CruiWltLS1kYIKKewr4ICOEgIXghyR4+sluVzBgntTBpsXWXRfUn6tXSMPydnZgnVcpBWcIKACJJFFZibQLgjyVAukrYriZu+nK4fn3v//9q1atAiCxnWVjxXMyUemvfe1rO9XskJSvKH/Uox7F/es73/nO/2fvPuAtr6p7gc/QexuKgCAjYmyxgBVFAQsitkSNHcQYGwE1CZb47M8SE32WaBQUE6MGY0F5Gp+IoiIogqJYghFmREB6L1Jn3vd/1r17/nPOuXfOOfece9raM5//3f/9X3vttX+7rb12Oa997dH3uc+9H/7wh6P0tdoY12gIMGmKW16RceU1PROMgLpQL+qoGxOc38zaaCIwllpXjBwA1c96GlwNGIvQhPTOVSqrl1jWjDHSyqbBzGDc1K0XCYlXF6znbRuYcPQAT5mlATTVJ+ER0nYIMaD7qseJr3MRC28bvSmtMXqNnCos0NWzxt+KYVO+xA2HOFwTQeevgT96DFtj0RIbyuGcmkFrlGBFqvqnwpyn6ZM6Q/krBL6qtGChYdO558pdK596coPw26Z51llnKSzWa3u2CEDIpry0prvTTjv5MewjjzzSgZXDDz/cXGj33XcXSxFrmDi4YqY1VoRUXceqZrjmIs7wMUdA65tpMqoWt86qNeb5TfFHEYGRmN12C0wZufSYnN/BxYGnWz490FetdOkSqzMxiks0dL5WVpp0U2DEbQrs8FVcaRkpJddWXUAQri1D43rDADTT48zSrjVmiyi8bfTxDYycGnrhBr3i2mLYlE1xYS6u5wKRKfiHPE3PpnQ7fG0Vqc62LZNC4KtdX6po6KN14qZ62/Rap+yvX0Kc84YWCnF+17ve7VkELp7WRJWOwEMPPZRtzKK/ZVM3SgRZHCvmV/qtESNETdhs8834QTEXTYZPBgJq0WRkJHMx1ggshqYyAIAqhcb8VUfJPfjBD9aceAaQUHuWbF0+GCQk2nZIjkEiIs8zYLTnnqGJwOARsF1dIg1Vp3l6UBL3tfgH7Ylm8p73vMeUxq8uPupRj4wUo33VG9Rckhx22GF207M9f+1rX/uHf/gHZjyUkQWbEOaKhX8nKvhc0TN8TBHopEaNadZS7BFHYEy1rgpVqwkB7j3ucQ+eqhXNWo8jfNDP+UesQaee/BOBHhAoipRDf6KbNrDa8pTwHnguPAoZSGK7pPMx7FJ+6ufud797t2xtmf/kJz8Zm7re//73u7OesuW4AD5UsVZuOgyGzBh9F3PO1ipJhiw+Aoo+te3Fhz1ThMAYa10uu4seMw4oVcNG2o+zUicCnSFA64rTFWET6izSoKgMgX/4wx/e9KY32WTmaOEHPvABJqhuZzU0J7vBPvShD7mozDVdfp/xkksuCbO0lcdW0SVqxTlGX8m1EmTIBCMQ5d5tHZtgQDJri4bAWPY1lVVryZJYIuFxubZn9puLVmkyoQlAwKRFLow6YeuKNjXEfLlc/qKLLjKDckaY2kSSmFO1ijSXXSp6gAc84AEvfOEL+f1GkHvInCHgrrziylY+xl1kUsmuoxWciQxpreRz1bGJzH5makQQGGOt6xe/+EWA6PbqytCVLhFIBDpGwAI9bYPK1Xb1DZtFa1MEeO9738tGxS71yEc+0i/8hF7Vql2FZWJ+JckCJVPZgQceSKlye+pll13GmHfa6ae1AlPpW40f7ozMLlp+WyXJkGEhUA4XD0uATHcKERhLrSvK6cwzz9T/zt8FT2GJZpYTgU4Q8LsO2g6NZC6tqxMmfaE599xz3bZFSbJB81PHfarsfF9I0/7IRz6y8847xy+Q4lxmaHWBK8tH7kmoIzJNfvMNld+BqGnKdOZ1JBAYY63LeoSWEybiqgNddFdNjtPEtuiwZ4J9QcC+LhWYPSlWGPvCswcmtnO96EUvogJuvfXWn/3sZ3fZdZewObVt0X4ClSrmnGNc1Nc2uciUG4xtq+e3USx6ibiQom2UDJwqBOJS6JhvtK1mU4VGZnbxERhjrSvAih9Ti556keGT6J2rOvqxmkUWLJNLBNaJgBVG6ogfKByircvWzBe84AU//elPSfuSl7xk7733DrHnsnL9+te/RvC//tf/euxjH+uHuWyZb81mGUc//OEPy2DpGRyQbCXOkKlCICpDnN6le6n8pbZMFQ6Z2eEiMK5aly0gMVq4rGtYCLITcMNKPdNNBBaCgFvgRS9KyUJY9RZX+/3gBz94+umn24n1zGc+0w1blgI1qHkGwhNPPHG//faz1/7iiy/+/Oc/70r6v/mbv/nhD38YJwOKGJQ2+TIfY0XDHEMhfgGpEDR5hghCkyT9fe1XvvAprObq8QpBf7PQR24zEq6u7rh2dpWti+I1T2XrY9LJKhGoIzB+WlfVAaxe7WcQ/UqubvphD3tY5EdgPWOL4NcBDXd1ZhHymElMKgLx0+bDyp2G8/KXv9xaoemTq7k++tGPar+GQG6ehuy3522Q//KXv3zQQQeF5DaEPelJT6KKWXw8++yzS3aC1bOf/WxdRATa49WUZQkVVyJOhqe/+cJNX+dpQ0X1nHX8dJfZt+ruNyFcCRkdT0hVPZcuYSJVPdRAen/uph+dMpoeScZP64r+9Prrr9eNajn3ute9Fr+0TJ05jbbaIjCKncziQ5IpjiUCrRdFal+Dzomh2vUQxx9/vIRswGLuin0CXqN1zyOAvfaPfvSj6V5sV495zGP83qJ1Iheiuo/eAqUd9H4O6KSTTvJjjr/73e/ud7/7HXzwwQJl04qqPWSVUjCrFug9KAocz4Tuq+9PUUaheN5628xvcsDwtlsrQ1FRaoV4LdjOU4JD/ERCqVO+9dtR9NVu+uzAh1gkU5l0848ojwsIpsj6bqqP358OmaPZL6b82i0ZVq1eVc6fL2bqmVYisHAE1OH5mcRANT9NV1/NVf76r//63//93w1+e+6553/9139ts802Gm/n7Verl6L76/3+z8qVK8877zyrk27nEmhXPrPZscceSznbcsst7dDXP/idVjM08zS3SEixSCvFaMJEYgLpe05LQovvibzQMSiUUi+6UW+S4MadccYZn/jEJ8455xx4Upr9ahNuxxxzzEYbbXz44S9C4LXzQuxNkoXECglx4IlfLOCv6lJ/VNOFiJZxpwuBcdW6dJQ0Ho1now3n/F3bAZWkHjw4E6Dqr9MlAmOLwLq0rj6NSKuXOHdi7JecTe5ULgYqCtDJJ59sCDdUB37djtkYumyCe+ITn0ip8uvXflCIamXvgV1rnsxdONvaRfnQV5SWG8kJjG4EpZBQ5uLTPE9MHIfEn6eOnuiueKXn7brrrp4dcpsnoZ4/gZFutP/++zup4Ba0upA98LRu+81vftN9s+79dx+1fDk8TmPGll9ar3zlK0Lr4hdSlJse0lqcKMpOuZM23OgLvDiwZCqLhsC4al0BkAbjokN+7WegkAX/aJ/69+jIotfORjtQ5JP5YiKgntfrc18WG6PthMpl8zt7iTF7+fLl//f//l8ql9xFigtswrbY07owufDCC6+44gp7d1wDZqnR8iUNTyqUIQuOdTARa8hasfVHfq4TVenHP/6x7WJkttDJ2CYLOJx//vnS/dGPfrRixYply5bZf/Yv//Iv8ZsZJUX8w19HuHztr8cF/d/4xjfwXEha1Mqjjz76C1/4guxYwKUls28px2uuvmbzLTYPrIQEvECQFiebnv3NTuHWF+aYkNYzuvG+8CwSpicRWCcC46d1DaWR1PuRmBlDVqONdrtOlJMgEZhaBDRYedeC3FxaVC76kFG8fAqCBUKkMVIF7PTisLKj6zWvec08PENdaDTi+Q5ONnFgQ2JOi0Drm3470irbk5/85NJFfP3rX3/jG99I7+Epd2GglxCaQtbEtnoNraxFY+mwx6NJUIkQs8FjFteVRdwOOdRFwuTII4/8yle+8pd/+Zd+OaCSblZr3Ha7bfkjOxRWjn5W7ratM+nKHxvbMZaLEpEY+JdXiYb6HjDOB2aJ0+LBpKjXvXFoYZkBiUAXCIzfbvrIXOkCSl4Xrf2UpEvXU2RITyIw+giUCrw4omqYnEu26CIO7TMOsXJZFiSGcONf4/vMYyEilaF0LiYl48ZdNDbXe1JWQk2JwLnitg13WaubXesKByaHHHLID37wA7davPSlL5XfiBgjvUzW+Qgk0hFHHHHCCSeUcItfriULxS5MMuVTh56GIjSjqQTCTRElirNAGQ9dp04QKL3lLW+hcv3zP/9zqFxBUOSfKa3GBilLt0x9hYPodtqx+QnhjzyWrzyRdD2k+B1PCoJWqYQHhoU4PD3s8bjhhhvEDdmauOVrIrAICIyr1tUETekOmsL7+xr9UeHptSmkfEpPIpAIBALapnu2rLgZ7XbZZRf++973vhpOjNxDQSmabb3x1v1dibT99tujl5fgEJqfLfz2eLmN0wU3EU7V+NWvfkWdquscYsHk1FNPpeKwoFcXMyxd4jaNRzziEY961KPcSYbAYUw3ZVgznUsqu5Q++clP0mUf+tCHIg5UPR3zJINYIYBbzV772tfi4zWcFdjGb3GupQgGPf3mlFNOob35idsIEQXPVhnQyHIwjM1S1nlts3Ohz/H/cXwI0xQLAoShm1q4fP3rX18ULOq3kxA2jbFmrVhx/lOe8hTqrCtCnJAIDiHAd7/7XZZFR9dtnvurv/qr0Jibkpj/NTalhcwo2+Zrfg75NRFYCAITonUtBIJu41qY0C+4Z6+02245jBR95MKzSMVfn6GWbNZpCnF6EoG5EIgK85//+Z+u5qKCuB7iuOOOs7lK7RJlMka7chpOpkKBiNzJ4KabbuocZTQf5r3HP/7x73rXuyLXRVewHY1uRA+otnjfdjsNjAr1qU99yuZRGhKj0bOe9Sx3ZNhJ1gpyJEQ/c+3+v/7rv7oNgdmsbvvBtuBMWfnYxz723//930LoSexYDoG6nPYPF1cGv7ojIQLb58lw1FFH+SSEa23+BJBHhxV+9rOf+apLtNiqiKmJov/d0X9X4gb/WNKlVv7FX/yFXxd461vfasX57LN/Wjjb9kcxveCCC57xjGcgsCT9ne98J5gHKxk8/PDDX/jCFzo2YQXZbrO6mS1SWecT1GgIT/+Tr3XSJ8GgESgVQEJ1/6DTHRb/1Lq6Rl5fpq3GpFYVKZ1s14yGGqFU7uh3mnqf8ip3xT8see2MNnFnNiDAmKI9LOiGm66aY3S0uYq5gnphkZHpQsUTzg1Rtj6mTjWJjJiJsdbwY05vuOSSS/bYY4/ttttOR+Hq/Be/+MWsYoceeigd5cADDyytL+JSwuhMbF2vfvWrWYDc+OpmHJulHAV45StfKdCpydafP5J0/DLHxz/+cfv6GdioEXM1EHoMpYcjHisaPZjixfx24UUXNhVEgENHPOGEr0jUJrl3vOMdylGsOiUyWZMd5i4Z9CrLbpRwidr973//Bz7wgZSbKlO16dxGG21sbz6DVmy5e8hDHhIXfCArnPH5t3/7NzZRufbTArLDchZfT/nOKQylhPmzP/szJytpY/hYqi5xO/QwK5IcVkX37TBikvUdAdUjXOEc1a+8TqRnzUbFiczeIDKllugLtNuoLuEfREID5aly63TccqQjcyyrtQOyHdh4aQwYqBidMHcHpkm5AVuXDfNOoiRN5wgMDlJWLlXI9ikmn3/6p3+yHhRSjUjHatwNeQKB3qQKraveCeDDBiPX7DQ4e/27v/s73YU9Un/6p39Km7G+ZmWNgiL1SDq0LpYtiktcHiuWKGxjbtmgsNJOqF9f/OIX68XqPlgWRKlQ7+SFYx5zlLJVEcFtr732YgYjJw5YWaHTwCl2RWuscw7/E5940D77fJ9Uknje857HrOVXBPwYgAXiQkx+7s47KqPRd0/5Lq1ONn1lwNt4441/+9vf3vve9/Yp6L/73VNc1faGN7yB5AJJa4H17//+7z/96U8HgWzKBSWSRhghFDJ8JIH+Fa98hQ3+aJj3bJiz4YxC5lNQdv6U6+i9pdV5rLaUkXrJYFuavgQGAn1hNSJMqhw1rKjkKQBOXjbboj1+Wld1i/TqJZqiOZYu4483z1jRowG0zWQPgcGt1IY6BxtdIxwNR4z61zHy6+tdnrRixQpguoxHx+rQu8AzzzzTduCf//znVjf8PjF7vpm6E2dt0ajnFxpoPAWGpzzrZOv2Y1AzhbANxKKAiDFsrJtDUrQgEOUiuKkcS3jTpyayFn5zBkQ1+NKXvmR9SmOhNFgYGimVK7IWlcrQq873nNkmFNRPl5BRLOgNlCFf2fm0JhYj5xlpn6y2r3vd66yd0Xv84LfUaT8rV65k3LL8t8fd9qAeiaVXobdZvqS10GBcJFtMTdEE/ISl+ZI7Znff/W4A//a3v80YjEmsKuIgR8xvPFEcJYNOAPzkJz9xyYUFwaKHIWvrLApz9pk5CWGhU74e2XDHffK4ne6yE0kaFr71br/jdmrQEX99hPtpKWdYUWukaJMWFQ28yNSEV7ziFdaXLRH6JO4HPvABAssXg1mkjoyavs8++zCDEZsrn2xZY0Gkn+mprFFaHo0ooFu+fHlb4euBJfsC2bqIFPzrNELqZPVPnfjlqCm6wq2PDk38vQbbiBWvTRzq6Ub0NUyikwwetd6yNYrde9tuu60SqX/qyt+cdFeR5yFeusQSM+MlTVrtVXns9osaNU+kSfgE0HF0dAWdml5J7xPyq/T9yoiqYCaqR2hiGEmYzOmwQlP5xS9+0cd0m5JbhFcdkJmfhHRD1jWcijd7Lun6SgOzo1ZfadpawufygEI/zgVBEzJNr3MxqcLd918rTbLpv6rgRmBjFaUq6zpNFSvdvAiAK1xQlc7rv77+X0J8mjd2dx+ZNCgKkqByaU3dRR4YdVMedfcktAjo1vUqze4BiDux6vKyYxnh9B6sPhH+05/+lOLyqle9Wuqahpp87TXXalB0i6Cxld6BR5Mc+hZFKmKRimHJjvJ4dQ0ERSRaFj70M9eP2R1f2ppGql9yQ1jsghLLdnjqGo/2EkxsP7d4Z9PVYYcdhgkn+/S2+Dr/UxtkdtIlso7Tq+I8hCi/Ofc3d73rXRky6VIE/v3vfx98ZEem3vnOd0ZCAmXTTzMxxQXB3/7t35KZixsuQkg6CoemxApir2yEsuz2VwB6jfArLr+CRlhowrPOJ4FlXDFRPevEhW09cJ1+8lDf5yLzFW4lO61JAFYhcjHcoG9lFbHotRZ8o7uGQVB6tvIsHHw97rjjgOykbQnswdNIpMpED3HbRsFQuGZi2f1zn/vc5ZddrsfQTDSWPqbSNulRCOxd/1Vxh+iUlg5dt/XVr36VGKDslzC2UNjmye5tfaQtz9jEEIWnirSlGZdAGFIfScumpSuHp84ohJdBX20csfnDGp9drsKbcK6yPwt8fDIbtiQRlMrEGGBkMuUVYhoXoAX/uZ4mPef84hxMdBlBY5ZWF8AsWg9F4NZ5YZN4cyWR4XUErr/h+lKI9fDO/fViVS5vf/vb7QfXTIyyOlaG0s5ZDZNyDoNBhyIZXL/8pS8/4QlP+Md//Ee7wk3Zo3OAg/Hy1a9+FT4CYbXJpptodAZaUVRyy2RqstHUa1iGUDJZWW3EKkY6IdomGh7E9sUzAvkdpAi3z4lGZd1NihhGccSOKwRabeO5xDRVXBam2C8VjSUaUb0EgziepX/TBvk9KUmOo+oT4pNLqjk/iUbNYrSLnwmq4jZ+Jxs9eRA4L0kzs3RIcxIRsd5VX6GHmU2uEpIKwj6Khj8Ei6/Ei5VQmQpRQ/hTf3AqGGc5DOfvz3/2cwoxjcEx0gc96EG0QOc3QcGWKSPOBNCGHZJQB0LmeBZZabFqC3XZsoMKILyJIF7VBwcUkDHyMZeedNI37fnz0wsQDqCQFVeY89CGyUaAemCHflXX/r9Gfz7by88Vc13f14q3mim06sPpWyAytdhhxx1k38bEoZfmWnIO7GVcV8fY6pklwWKeGuDUW+lC4NJ/mSNSFEwlTYZ0FuWYUrB1aiZ6nJig9Cvdhci8kLghv2d4NF3c6q8RHisXvsbr05/+dNcRVfsqqv51DT24LAHYDaYDNfG1Rmnrhm4olGO7X7Vkx6li4UCX0SS5iyVdh83eZliyi8theARwthNF9+2XSZS7EB2ZQ1tUsRLdWPL85z+fLm6UWjpZv6lX8jggjxJRhFGsnSdR6kmpEuJaFPMrNHZeayDGeGfrwpLhNfh3m0rn8gydknLpoCJ1070GMNlg/Q1ildzoQluCRkiozlvj071oPoYZgHBqOxXKmGrkppmh1NzorLGrMqBW/7Upn5iCHBWELT/LkJZledECnDEbgeQw9CmesbrklaMTWNlkwKbbldE6PmEe6cbrzLOhOUX54sbAj0zEuMqh3nivu/46UoXZbCZurQ2Kpf1SyPQDvoqoW7Bv4TnPeY4fLML/jtvvWG/9ma7Ajf/VHpIWh4zDSl2Sa9+96ivsMwvayG9LvIEHLL/7cqhSHw0c8LeHz248xa0Ega9x0Vpk1mz2x2f8eMONNixykp/fDj/QOYJgfqI7ZZeK8CJ30FuwdgrhPz73H9/93ncpr8rayixNVESrPVIXS5TCPKJ7BZdtefXCisbYRFmSq3v0wLYSWgdH3EovxUhUFGo3tpFKCW+KFcQCq95myVLDqO7iqU99qtE2EjU/h1tJqEM5sa14tst+sO2QTz3jg/Y3D3uDTq8v/ANiQ7KewhTQ6A7ZvnDGhGHc/EA9NmvXnHSFZpbmnZEoAp2O1sVJVC/Qr3RHh0+p91GhqU1GBUseJNSuqER67e9///s6FBtE4C8cZThakb5GiJ7RnuLly5db1OARYuKuf0FvXzzo6h2Br5xNGy7CNmWHMGAZvSJcKetlmPHFkopAaxxm2/FVMVmv0SXRuhqSdzXtCh5T9CyFW/JMJ2gNLF/be1ow1hxUBtsyLGwpehN9r1Qu0TFvLev2bMczlBZ1z3vek+1BPXdUMGYURXOAhuajSkfttTnJlnAjNIugEDVaXEXA5mE9LlQfTQwSVIrAI0pHw2EvEWJ3lNVbW+a9Wr3VZMxVMNFkKqiXznTpBjPTxR/9qJqUSsbTuUJzVOuYjB/BuTylu2LFCu2IHSuIq09LlxBM0+PV7jBHZqrjLKpEBUpR7gSuXLmS/UzPiSac+lD6Rq0egT2j+lJbMuxUiyOKakUQS4inSnHJEjsZKuhqelckTR/VA5zz83Mof4gxdFKSJrfffvuJFd1Cg8G6HyWtdZN2QKEsHCC1XqxEYKgs7OHTDcqsnGoCDq6ah9CQHvmoR4KlsCSGyqBi6CRdkysLZpUhW1N29HW2RZrQPue5zzEYIZaKU5zsQ2awRquYErfmS0g0vTVlOrvlrogxj0cPrHzDvthKFszx5yx4eqIhuR6a31euxBIaIWpFRbFkSZylUJeEV5FWr1YzZ9rObDSBs972RXzZpZc5CmZdMpgX4uLBYa5PhWbxPWOpdcERUjZ4Bl7/+3//7+it+gKfcrLd1UkiNhsM6RwswKYUjLSRbvR9kVa9WvQl9UVmEpVSomV+GXkMMcJvf6uJmpl3BJo5sWzbH63HNzmzbwBZ4MBjOksJjhDTd2u1un5WSaoY65Qd1hRZfY2OuCmnehDDDCu6ebxPe+yxR3T3/FWzbpwY1XfwxNcS3SZfR8NoXQyTQVw+pacVgdYaG7tS9Ib1rrk1YgnBYdYI4u/MeOlUmspgIQmZYxmU8lDTSyyeUsfqgWPtp5SQX8atKDE40QBgWKkQS9YsphtT9SR2TDLtWH4yQttXbse9iI16vVTjMoExvNm6JBAHoyxFLcweFdqNIzsGbHYsdl/lpVOi5Zif6JoMwKHdUkeMvr/6dTUbEUWXiP+//uunvIbbcYcdSaKlxCvFZfZLVYg4E8Mdp4wQoitZr4qSLogMAWdvFiH3vPuetsShEaJpE5WVgvG7cOPBLcZXYoTfzo19992XtRsCDHWh+eFgaC8HBehtEq3zKUkzZts3dtSrjoIhd+CBBzIEmqfRXytpR8MpO9WeHla0KxkkmkMSskaZNnuvS8rkqWN82cteJhDyjGQ8otRzpLaYT9JIWJFLXAScSY4jrnG9iFit7QuNKG6Ae9rTnlatSTReqSnMV41J7MxPFBS20QOsamzfqmpyQ/jytXiCj1ddtAs+okQk4e63iCJT5by5wmXQQsMKKEoQ4KCukiH22AksrjAXogIba4J/OehaxPDpaU9/mgVKOHz++M+XiKHuq8YaZsQ1wymxRsEzllpXAGcyocMCsV0Ct9xya3/R1Dvoldhyzf8UvxnYc5/7XPVVKqV0+5visLjNZGfNtGSNIBqe7au6VLsT2Le8ItbhWsjzpH6ZPb/+da/XnHSswcc6/UUXVru4BOqA2DzYpcxgbAsT3asjUBrbVVde5RVZxDIDdi5JKroDIZpTbHcIUaJBBmWEYMiRTbO3A8/mAzP70LzrZEGczwJjWyhiTaqykszRybaNpf/UJ9508012mRgOjeWGT+3RFMgqW6s1pWLero7NwXw8gmkSzDbsEMaY5cuXq9Iz2azl1OFfNgxtwUyDYmSuSDeN/U8FcKYRu8tV3ai9hgo2jAP2PyBCdHHmPEwpVBwcTvjyCTolWpoVQ8O2BhU1n5amPZZFSd2jcpkRqQHns5/zbKN+jHMCLDVKVwuKVLRNqgx6w2TkwtiJ3iyIGsFSJaey+aQnPenc35xLHjQqQOh2OgTGtiiz0q6xRYAMAmJ5ClE3VJWYwvnkXKd5Gv4RF1kMmfFaf0rdvNf4HYEmb4QBYyXq7Fhep5/HD7p5vi7kEzQUUGS88Kk0sEZ9oJ6W1bT4av6JmFLlGUr2Zz7zmciREA6Z8xlMaDSnprjBAXoKlJpe4Vbp+5WLT4WDBl6tNjj678TIqtU0davSqq7CIbDZAquhahmrFopPeHDwFTchOmTJggfQAABAAElEQVRzWmug1sSvvGLm5xaog0ye3zrpWxZ5rZM6CHLWT86ShPRZfy2gm3XrE6hlugXzE2ZUS/BRJbAVPVLxNCJIAhr10kfDqme6YgRh6dCxhHYeNBJiHBFC/j1sZjj+P0rGMTQVYX1kazR4yReNrXWeX1IfgifKZkyfShRk2p46NKAsODbyiWM/ERN3HavDIKaYUU6mWZSD6uhTY3IwIAEGylaL4iShh9XsYxdOPUWduDm6Dlpd59hydStAiIgaA6OX1VjrShGLDqQ4tCKzf4YuZGf86AytTu3XoQQNDsYh/kiaRyquq2aE10Phqfe3ix/aQe9JMOIRMkIcxZeovsZYpcsQUUEoDnIiKGxL9PQEApBRiOEvfQ0FugR2BZSpiF04CiKGMRMVy09KEJPeGHaVeg/ETRVDxoGgac+cYeyeo67cdCLiYd7EXzgcuPKpEJSQiEsANp6m9CEZZJ5qPktJ0ZDqlPh7rTOUYMQ1jBnbfGoqFCGiMDZY+bJAX+IaGmmEGmDwx5lWZ06rcTGoKNxYJw2GkS9Nz6Br909EKWkJNwwbFOsyR0IREX1IXiL6yoZHKiH8EV6+Ro7qgUHWRNlE0PaVMqrcdUo0iTpBD6zq0fntbKMd4lMvO+FW02gAtsQIL9kXrpN0do9HFAqKLo65NF6FcPz6xpiLxms8g8aT0zeW860REk+UUe7vf//75TcCpa7PjLwjUOto20yYZstOU9WjW8Gk8VD0rSRY3qV2243ncgdRlKmqQkWm/RMbH6MAY56qEqOh2kKTtmnPgnvclyuWWXq9klPCSEXbIz8caE48KkyRQfPEE5kQFRXByhUrS6YoYeYMDuT6CnZbxEpExSqDZoNsATbVGUcYw6iehWDonpnCGLocvQmgMECv8EyheuPQSSyF52QNNV9C6oF2RW/gD61LPeA64TOCNEX4Vq1Lf60XMJOuV2i6kUUKRqaIGP0mKGzeitzZ2qlTM4ogixAKlkmea05LH6fIwv6MCQ5arLmvPj1g1IMzp9PSCgd8QuvSwoOnHsFUniXSXFmfIjBamj3F/MEnKPNZRyAAjxClFk7vpg+tf6pHafIHtobzWA3BQeHq15g2o4tv8BnR5hDClxyZ9JOf1kiJF+hrE0GhTM8kIWD8Vu6D0Lr0Wji31iXTVFoIg1NUsOg26busOCef/O2CrV5O12fjPAUltE+9oh0aNlEET08qddBjhY+Wy+Rp8tNadRsEFTELU0jViH4nlSjqvAZr54xlOOGslTpPCrffnjLAgYgmxLxqjGMYixTrT0vkPtFpeHCgfoWQQWNRyGTGmSc9w4oVK0pEItEypUXJo8mRynLzm970JjMK20BPOumkkgsjO3u5oSHiOtlmjDDNRsCht/ZCi42Oq/APYBlETfjJwDgnFlN0IRgRz6BsrQBdBAd31ZQBhrZuowNM62bGBQqAGw4YMopSJtRCQwvtRAg9bIHMRzy6Gx+sqJrlyHhoPwGsPVuak2YJHLAERPISKimPtiRch8JCFnlEo3mbQ1tiiBDTpjAv46ndmhPHz9mi1NfY3aW1oDSx9tTGFAKPr1xw0BNRfAmp+dlRFGS+Monzh6hBmc91IqB04IlMwa2TGLYMzPpxVpAgth/WES3lDn+FhaCsUKyT23AJKPEEIDMEhivJWKduqIMhe+e4tDsCDwjw0kGBwkxcp8Vj+wT9noWJxUXg0qUzDU3DMXVcvnwPs0cb3RhjLMxRI2zz4qwyE1JnSDukOgRnT9HDBdorV67UTxqYBDa+zn6e6QZnOsyZOI0/rG5xMsPOJ45+I1gTMKiZQRlJfaUjUnqsYBhV9f/16OG324+KppNnnLPSR/OjhBUylUFXrM93M9zyxsp79C0kBMXhhx/OhGbqTsOjX4ql/pg/Rx6DiYhm+Db7epVBmqiuniWMIUCIuCZ+H//YxwksFlf42zpsQIE5dRCMnmXtW0SUnkOvqOOtdRkt6OMMm8pDJfAa4y5k++JKIfG8+MUvZjbXePrCeUSYqH+Rx3iSSvNzlY7Wbl1cd6DNx1Dq02233qZliqKKe8ZwZa+9jQVmHjgI1AxoYEZld65GiIjCl223zBQnci2iziX8rGKWaewdwfm6a697zP6PMW2yVmVfSxBEc9I90XdD2RVdKrQui/dskEEQaxOi6NfGZdSPDA79WZVvQ69tK0lUDCWoL3Zlrv7drNS4xWBpFfi4446LjUTiFsq2fIYYOJdg+nGVR164IYo37knDkFNDxiUjKjyBByFtHYTAg1bEzB8riVI0MTn11NMNVZqS1TEehplYrrEYR4kx0bWZKVQu9KavNJhYWindaYPPjPbAPmTUc+hhruyIVR8TSUijskQIBDJIKNZbtW7bQlDSyUQJiChePA1XaZAlCe2FQqaTN1uOQFHw/PznP28tlV5FYKwoQGEAK2hLfY+GE4vaVMLDQyMCGkmY7uSaMhd4UkmBY02jwGt0kMTznv+8wISEBhFDlaHHjF0KlDnPIpudJ5Yy2d4Kh/g0rOdAKt+iZQbcdmFHvXDqUOHxK4kmAYRwPjWFz/+qhDBUw3g4xGb5KhM3f8Tx+hpZk1MeKGnAFKk3v/nNrrBTj+UlPvFstPFG6rqegnqEWDhLmN1aTMSarrjRMBFoFfXBmCb310dW2xcCGZ/YisPvYKOD1vxs6VQu2pvFYv1IIQ4ym0Z1CvqgMEuYV5ktUd3sPAgCzyj6VLkKIB16qj69+pEtkLdpOAqaUzrWmk3W40CJ+ase1s6JUsrSQqZKdJjoYpIRTHKtuTNV05ap8qHNV/lsUC6mbBOQ1tjhZlxXUavq3lLh+1gcYGGMd2uue00/+5nPUq0kJ2ln/RxXtDWemsKcc+r3T7VfnjOfj4MOZcLZELDSmbRQ/qicnuHn0fdi5S6JqN7C28ofEVs/WYaLXWU+EaY+94g+Xz9cjxXy4Pbtb387zjP5WhLV7ds+H515BPKzM9VT5y9O3KbuQuPzVQ9jhxnlyf5gfKBB36J16fmLhGxg5RfG8JE0VFecvwK8TIbWbesnD/A0UbTzO/JSBI7XoTzH29YFUAMAiA3JDDPMktXlhC0OGWVM33reb8+zrHDjTTfdfLOSuqmU4loxVi9x+4j9WzhzMREJAqk0VZS1Io7zi/qq4bHc0mxcDGPNqG1uqET6kSc/5cmmIzYxqMFOdB9++OEzGm2j2axYscJ2ASv3Ub/NWvQmJnxeOWUB0oI8hO2qcRxd0mIpRFMxSWtjGrZTS7G91PFG7VCR4YaJOY3FZQ1Mq5a0QiG88vWprdgZOA8CUXbKpZVGoEmk0+n6U4ZeBLpCN6HTttsStwaOSEjkrql6xAqjmtYUPiIypxgDQkBf0bY+9DE5bcqiGJ3GVi2Lcfo0vRP9yVDFwiohG2EZ72kPRbMJkVwPYf+4W/vRCNEH2nQR406ppUGp+7Ui4e7DuHAk6NtmAb1uMz5FXJNkliqB977XvYlq+sofn+ocQmwCmMpaRi5J2OkrVsgjFo+n/KLUzwcHgTqK0BdLxDpzn+TODhOrVcEhGLo8iAUuDqvaiGKV0NTawoshI3oqxcd25cRVsDVgGSOcJ7j/A+4vPGZQ9YSY3wBlUKsHDtkvq+Pu2GaASE8ycrfNi4oeS2aWqA3YClvtV915Wp3agJtwDC1XU5ODp40sZi1aTqnBLC5O96gKXNt0xyjQeTRTEyYuZ8WJ3ZqjEmLSwKytzdsQYFtATEHKV3DZ9eW6JiERaO3PfgU8NRuOh+UZQYBjzd52e84G+fgaEbUlgeIGGX3L+Wr6XLx6BvPisQdfqZkklfBCmZ6CAHACZCGl33EaqBCEp9BYBCm7IjQZ1UPph5rSFGWUX/XFbWW2Q9G0WHuP+cMoZyFl6yMCStw8zdyv6oX03LOd98K7DhVJs9J3Oe6nG3S9BUWksOUpflu1KBatmbLvHocSzvBjN4U1lipkVk6doZtX8XcOxmy5+jLvABTnu+s0LENqvgXNSIhNzrjGdB2vlZQNhvQbQEXrKP28T3b3EtIOsKD3tGRhPua4AD8Ce36MnlIpBMUTnL2GVBY9IoqnbifMzzZmxaulD+ZASqdXKcaPH1DUjN1l8z4a+0yIijOVi/plO4ocicJp+xRTK7xlKInw4T7bWIZkbyycihE2Sfu+TR3oxSwiL3zhoRTzRp2pykApqrieJUcam96WUjWX1SqUd4Wk8XA0DJTOd1CWqSbK26t6UBiOu0f9kwUTDjemlOlO8ZTclRDHF7gIV9ELAT5o6KmBtk+AEmi0Rh+UwcSWL7F8EqiFMJ4VJjxofHLKpszhBFpPZE5HH6kEWcQqPH0SEs/4lM+2CBQM42vsSA0YI0TBuRDhve99r2YlxETF5JgZ0sS9LcPRDJRNMyUTZRWbnyOnc+wuGfKM3bsCo76NZhZSqkEgQIHA1pN9vL/8KUYGF1dVGS/czBk3+JckShNz/IshwAG98ql4KCv0IRNOuoJAOgQbP+2KGtHYMr/0V7/6pZHIgSTH+uIgEbLCufCpewx2LAWW6hwYjHB70ik9H/3IR/Wo4pppa/KtTKinCChGTikiKDwpWJYaLG6yYuyxxx6yQ7+kY7lLotHOVse+W0amEqV4osV5pefhyWxGmEjaq3UPcdnXaZ82rmBuLcUIEtFJYsuvU1lCzNKN7/RRqyWgDluJbFp4YSmEVQOuJaLbQMYWYAQpMgzdM8Zal3qiCA3ENFnXREFZMb///dXxt7aOYmEJ0tKYnd1+gHb99dZvu4dYDVDVmH/ZYC2Zs/daV47pMrYmGQw8FO22SUxPYKN1zbT2aDNCZL80qnorRcAFAWx9UmqKj0d4W9Dq0YMgOM9FjyY4z0PQNqGpCqx2zTcuS6yjpMOqvxqNNCX2yDhDahhw787BTzx4y62qK1rGy1k6sQxdl9noZbevgc0U2WikXdfzXqdM/wQjoHvRnxg92g4BPWf8/BXnU6dsSPfrZ3Gqt167ogfDPH7224QzusF6chb1qBRW8GMuqk+jw1lBs7FS1SW2nRt2MNt0H1vdW/vJOrfwsxRo4zbpF62LsmIpcNvttiUSGndJsDNJqzWuXLB12XMmI0GMBiWzk9t/zMr4sXUAy77PksHQunxqzWBJIpBx2JCtpKDkonn7TMz3NE8g4BkbTsQyVy9GL7ee2msPZ8uRFqAsOkkJE87vZdlsalPyi1/8YiuVxuvHPfZxm2yy6TySFJEWzTPGWheMoGygV6VUC7dlsnnqRktF5KH8+movts13DsdVsKpmS6t6449BP0Js5ApuGLIJU95NL1i5xKVQY6Ls2YQPO/Swv/276gAwMhWrijv+roFhlY3i6SRPiJv0pXgv4AeTJqLyGnHLK+LSYueSpE7cKqGv8xO0RpnGkIbaVXrPQKBMJfW8lmhtRonD5Oq87RTHHnOs3/etus+GWWiMQFMf9L+GB5t/yW9ZxJSXEmZ6bUeX/ctatwl3yVfxjFEeU9SeEbAmpcL3HL1tRKt+piv0gzCn1Xuk0uhUv5UrV1K5KDStTDQ6a/qqpRob1iBPQxtXJ8atMYRVA1mk4jlXBabBaNFlqwA+Uud4Iq5mbpvU8uXLm5LwlZ24BJYkeBjb/CIIV74aWIOb5x577LFixYo1n2q+oBEQO3xit2j5bjqkwZbXAC3yCFjhEcKoxhUynvq4Iy/cmq+rl6xaXU3114QM2zfeWhf0lGJUQQtS1GTqcMFXfQ3jaoRE4VXjzmxtiyL0GgRY2TjsqmXWrHK1gePxhx9+uLUVpjLLXoi1VfR9b7E4T7aL9lZ/1vMb4fWQ9A8IgSaoKR+REH3LltgwccWS4qP3e7SDq9G/ayxNEQckXn/ZlhErGrtJlNZtC4s9avoKXcQ4Zqq/EE0bNyUeQ0bp//uFgP3jwVO94mmqWl41Jdq/NRmakBPiTQJ4tXzmdLDxhWvlEPRNsYrwTcmVcPR1lauEF4/FQa68hie4icvxx2s8g6B84iGtcZXHpzpNE8/614ju2Za+8RWrigGCIA5uVVrrco1J4ozproKygyjrYtnP72OvdQEjik3BANdcIQpJeB3r+Fqdj2/8q0OIngplmzD7lqtBIqJjd5aQhTDkFmJkmhN9XMiMDtdk8Cmk6UkExgQB96j5pQ5zRzsgNRMtyEGquJ9QDoREPkor8xr+EcwfaWMVta1sPlExjUDWJlz/aAtOtOj4Hfe2UTIwEegcAe2Cqyph49k2ovmMFUYznNY1L7FEMfTEPCdeW5kU5kEwF1mJWB8HS2DxRAOvM2ny119LrOIh6gz/mX6ifFmHx2Zfd2jFHt+2pPWhlQytcraNVQJF4bzGs4SPgmcStK6CLJUoMA2go5wKyk2vVazGP2e44ifD2H4FUrPe9c537X/A/poHPiVWKTyzZz+SgFJybGklvCSUnkRgjBBQjc0u4qyu3xh1SYSd5kV+1XuuGm7Tq1k725hdrlYinDWJE1URV8OJwcM0Z6Bu+x22J7CzTnFv9VxpVbloLILEIBF30SGmeFm8cATE8tBccTN8khBQLaPrnl8d6TnL0V6aWk28StHSngP1TV+b0prrawkvnqaIPbz2zErEetyZ2xo7lsD2dmcP25KXMbf+tZFYrFTVg9v7G3uHGoay9t+HHDohWlegqGDaFljBuF5LIpC91x1UsXptlk+jik0tvs7Fijbmk/YTm8YK8/QkAuOIgF26TvqQfL9H7Xfcp46zBudstl0vKjkt6qYbb7rjzjsc5nUUyMFGG7/cA+KEb+RUK4g2hXhGx5obggENcpJ28MW+2pDEgMqIZdOMtsxsYMnGPErSJkj2YvJ40rRkrUgaPwyHTwlJz2QjoKrovbko9Kg5/cmySrSu4X6dya2ToD+iDpVL9Bhaa5MU8zXDdQHbxGpkXydK64JyV/WVjVePbOedU7VO6lpYcfFBa1E18dSVo9F9a7S68lb6DEkERhmBqM8Wyh0coYI4iB593+8u+J2TInY70Z/oXrJA96KdxDFAtT32CI9y1shGTpvlL7/8cj94UkS1sKipesq7J60rMhgEGn6hTM/EI+D4iCo9xN6bYtE0pkwA5t3mCH1blatbPuMI3aRpXV2VgYm6sefYY49tilVXt1srgdlzBGq3Bq2JbEJNgOTr5CFgvuE6q7JETtNizapnU93mXNYV99uhdOyI01fys/jeq+Hidz/KQcg6h0Xzs1g7+uS34eRIewxHX4ybIyhY1CwZpGWG36uGb+KkISN2IGvRRM2Eho6AxWWXO0Y17rswFto6WQZT61pHlr4LM3YMpwSTqda6olJqAOHRF0dHHK+x66u14roaLshiAq03b9XZW2NlSCIwUgjYX+J2RCKxYGkCphCut2HxtTsqbhRUq6km1CzP8FCtOJRlzFD5tYWu8lWaW1ex5iHG0LWNfjmkfo6dYFQuK6Ge1C/KluVR+0j4fXIY2RlGV/7Io+hjYcObB4H81BUCOvC4F7Te23fFYR7iTvSGTmjmSSI/jTsCqXWtWZQ0nMxfnKFdGYfoZ/zoKV4ROH/E/JoIjBoCqi6R6ByOhni6007FDiG9ziMtraUaNhqHgXkQdziKiDgP24V8apXBgMpKR310a+XvL/j9e/7hPSeffDIBqI9s1U5o7r///rQuiRI+ta6FgD92cUs/32G9HbsMpsAjjsA69IwRl36I4kVPne12iEWQSS8EgXrVddFdsKK+hPOVx5PzKZ5BU/ydrKTUJaQJ4VkPGZA/JMfc3XvOyjif6GqMsMm99a1vddm3czO+IjN98syJ04AKYjTZKm7lHtW49fqG0ZQ5pZokBFLr6qU0owfvJWbGSQSGjUAoJUV58koidqCo1RHuOYhKXhIdKAZSOeecc9wl4TIL+WLDc6TRby/6dS+/MCHpQCA8nmH2WxzZBprxZN4JAmtXbJV/Uo7GdZL5pBkBBFLr6qUQYqCKRcYyXPXCKOMkAouOQKgXoXl4cpYL/Somj8rsa7hFl6tvCfpZMFccu37P+OrQgEsl7Fez/b81gRiA1x6GW6kyZKIQcBZkovKTmRk3BFLr6qXEqoGqsexifOolfsZJBIaNAAWLCJXOtcrlofHLpNVKYrhhS7eg9K0nuhqAvvX0pz/dFi4nMatsNnTK+mJiUTFT61oQ3OMWOWr+uEmd8k4OAql1TU5ZZk4Sgc4RiHtQK11kdaV+TZLmYT3RLy1SsKwqUiLlLp6tebS/x97qsr26c/SScnwRUOjjK3xKPgEIpNY1AYWYWUgEukbA5VXiNGxAi7HDvWv5FhbBj9Z3ziCXnDrHaqwp1Xby55HVsS7ECRC+u7t2JiDDC8lCNNqFcMi4icDQEQhNy9gzo3Kttrw4gYpX5zjXlx07j5WUY4qAFcYs8TEtu8kQO21dk1GOmYtEoFME4saH2O1U7eJab0r3JsayI+0zx+BOq85E0PnNK0UfU46oAxORrczE2CCQtq4uiiptXV2AlaSjikB1ZHHpErfM2+BiqxM3nWdCIu9KiWdUyyrl6j8C9GzmLp15HKfofwLJMRGYF4HsbuaFZ96PMws0ed3LvCjlx9FEIDYzmeuHG00hF0cqCCxOQpnKKCBA2aJn5xR6FMpiOmVIrav3co/ZEktB7ywyZiKw6AiEkmGFUcqGn1xfywF40evgMBOM3+IkQZb7MIthitNOrauLwm+aE2u02W67gC9JRwkB1yW4k12Vdj/qKMm12LLAIa8SWGzQh5resmXLwtxlvsEzVFky8WlEYKo73G4LvEnr8toU0i3DpE8EhoWAX4aWtAq83vpT3QlA4NZbbh1WKWS6i4/AVlttJdGw8qbWtfj4Z4p5hrH3OmCWnDf99A5fxhwqAnbTS7+aN0zrrqaS8TtX5bWZQ62Li5s4W1fU/PVNONZbf3ETz9QSgSVTPc1dYPnnnpgFApjRh4iAWb718YbSVW1MnNq1cgjkCuMQ6+HiJx3zDcuL62+w/rTOOBYf9UxxDQKpda3Boluf/cibbrppt7GSPhEYLgKhYMU6S2hdETK1itdwiyNTX2QEdtxxRylSuuxrzBXGRQY/k4NAal29VINcnekFtYwzAghQrWJljdYVQ47XsHuNgHQpQiIwcATUdipXtALrFQNPLxNIBNZGIOvc2nh09rb11lsXwrQQFCjSMxYIRI0NM22xdYVnLOTvl5CBgzE4f/26X5COBZ9NNtlE0Ufph+41FmKnkBODQGpdvRRlXevqJX7GSQSGhEDRrrbcckszfnP96dE5moZY27kMvW4q32677YZUGpnsoiIQld9KRdi6Sn1IDWxRi2HqE8szjL1UgVhhjJil6fbCKOMkAkNCYIsttqB2GH5oXdVoNJU/sQABeicFdEiFkMkOAYF6j5361hAKYOqTTFtXF1UgmqgIbNRdREvSRGD0ENhpp52oXJw9xZV00/cLC9tss418u/wlm/PoVc8BSqTOU7ziBLouva6EDTDVZJ0IzCKQWtcsEt38jRsmu4mRtInAaCFA27j99tsZurjRkmyxpKF10TiBYBherDQzneEjEMVN2Up9a/iFMZUSpNbVabEXQ5cIVmc6jZZ0icCIIVCvyWtsXSMm5CKIY3cmlSsv61oEqEcqiaJsFc9IiZfCTDwCqXV1WsTVzGj2Tr2pNQ90ClbSjTwCscLC4uUwY6nYIy91PwXceeedgQABz7Z8qafhylev5ZaN2Y9r/iJb87J6dT2W8PK6To/7a+mCXFex1sm2B4IQoJ6pufytzIMSXMVFSFtKNE1fvZbA4o+4jdcZPCNenWfwiWdruBAl7mujO1/Tpdcp058IDBSBKV1cWCCmOsQFcsjoicBwETDg0DZC34rncOVZ/NSNvhKd567jVliElMDiqUveNlB3EZpHUFYsGm5mR91s/BtvvNGBStbHK6644vrrr7/hhhuuuuqqP/7xj5dddtmtt1a/FFnXJ/gZ6rANc53n1Vdffckll9xyyy39Utfso5AKAWYF7O5v5LFotFiFFoWLjXQMjVZ4PaVii6G3Zcu223777S0jRBS5kGux4EAGsEADRAIDTEw233yLDTfcwBFUaWHriUyxevKX5EJugRzML7rwInCFeN1lKakTgX4gkFpXLyjedtttvUTLOInAyCAQA3YMYDFojYxoiyTItddeKyVqyqMf/WgjPSg6SRglVYCbi7joGQiaeM7zqS23umbQxKqJPjgHjVj1hJoo1/mKSckdoz5FsClKqS1SQYkeWQkM4mAS8jRFb/talx9BvOKJf+FcpGpli74eGIIV+pIiVhxKqjatTta8lq/pSQQWB4H2pvXFSXt8UzGtrAuvebe28DpB+hOB0UTAwGPeP5qyDU6qGGvl3fA8hdnvHFjGoUIchiK2olCJSvg4ehR61Px+2QXHEYSUeVgIpK2rF+RvuummXqJlnERgxBAw7zfwjJhQiyTOK1/5yp/97Ge77777SSedtOeee64z1WuuuQZc5leVwWTpUvvh6vs7fWICj7H8jtvvuHNVtSuLK2x9rUMtLosLPgiCkiqAhu3tuuuuY4ezoGapUVdz8cUXx8oajaeR8kwU624i4hmFyBMLkSXFzj1FzpAnImL7m9/8pvDEn/PJbYWShpsfNFygBiZHfpnKBjusli1btvVWW1th3HSzaqOhtG6++WaYyDtHGLBwsc6AYMMNNtx8i82tJ+IATEph4EmkItWafC1ZuoEIG26I5swzz/zoRz8q0R122AFlPcudI5aUiUDPCKTW1Qt0esZ6tFFot/qXURCjDkv6RxOBqCeGMeIZ1cqwOprSDk6qpz71qYZeW4uWL19OWzJsz9+Ctt122/mFMaLPTzC6X1cvqf41tkYVIWHyxje+8QMf+IAQag0d6E1vetM///M/x5zT65Oe9KS3vOUtQa86QS8A1BdF7SqvTZxLEk2eBoPmJb++92zEPvjgg20mU6AhYZMY+ZoIDBSBXGHsBV79US/RBhknu49BojuBvOlbcmVI4yYwex1kyZX0Bx544D777KPtrFPl6oDfOJP4aYKGk4dSH84555zPfe5zbEvsT4xbvr/mNa9hgTvssMPoK5dffvlb3/rWxzzmMeedd16jEs08AoXg5inUM0xKJXAeTxOIEb0pcIGvbHUHHHDAfe5zH2IskFVGTwR6QCC1rh5AyyiJwBgjYCQjfVgjqmzMKl0RPsYZ60n0yHUOwE3gUcqf+cxnXnTRRU4avuENb4ivp556Ks9HPvKRb37zm094whP4v//97z/2sY995zvfGWorGNUr9YsnNC3hPahcCiXLpalE8nViEEitq5ei7OGW1OhH4tk2SZ/0V/qsFrcmatuIjVhraObyFbI2TKwuNFwZgNvQdBBUkm5LW76OmqcFcAFrydhEsNa32ktTrPjSFopRCIw9OiRR+DLIM52ah1xPZ8bnqoTQcG/Fgx/84JUrV1ozffazn/2MZzyjAdJSNn61miK19957M4MJt6fq97///dvf/nYGsAsuuGCWZ1WjUMZr8cx+XfffSG7ddEmRCIwhAql19VJo9oKUaB0OrtGPzNOb+GRnp3lhi1sTtSRa9zRiraGZy1fI6nH76y9Jt2Vbvo6aB+B1kRr41wOa10dK7tYiqikt9fBCPDoe4hEmniGVLI+OeCnJEBEIDemDH/ygdUPa1VFHHfXhD3/YjVn8XBEMmUXGz3zmM8cdd9wuu+zCMPbpT3/6kEMOsSgZ3VdQxnQlesjgXDikJxGYWgRyN33XRe8cjR5E52Ib8k9/+lP+mNiVbqVYEe50kqlhvTJHrE/+WpM0BG7gjE11EKfq2jDHjcOqcBMuJOLyRI8Wr2hsbpUKPjh4huPHysmdIFvns+JvdWC97rY7RFqVnawRT3KRYqQ+K0s7nlVqMxkpWSMkmcXyDA7x9Fo/MoasIIC4NWvVTpW1tVg0M6I2qAt/bINDPAPb1e4HbxxDE0gANFxkrYjKE1Hw44c/RyrPGSb+NAoxXqMoqxJtnAVD2Sp2CSn5LUlgK6JX3JDxx94szwgpcdGEKyE8GHqi5Hy98MIL5QtPO3UiXGCdPv3ThoCKIctf/OIX3/zmN/Pc7373O+KII1R7laRt3XBPKXPXfvvt94IXvOCHP/zhr3/96wc84AFf+MIXnv70p4sV1bttxGkDNvObCNQRmOnB60HpnwcBtne29G9961tULoeW4/rmxkA2ow+JW0ZTHp88Y4As4a38Y0QP9cLX6KoibsSKDrFE9FoGXYEG1BhTW/s4lDrNEnEQHkmTvHCmmsiOV8IUqVoFC3riFVc4IA4nOo9neOqpIA54I6ESt+4Ry2sj9sz5cNwKAT+G5RnhXkMezDmBQoIDYvniENSZhF+gEolYPF4jeng8w4M4vvIEQWHV5KmLHZ9KRK/BTQh/a/mSWXg8I255FTFC6Gphw9h1112/9rWv3fOe9ww0Cn16phABV0U8/vGPp5HbzvWjH/3oT/7kT4DgqoV9992X5/Of/zyNqg6LOsbZa//Vr371uc99rk8ugPh//+//WaBUOaMBCkRTj5X+RGCaEUhbV3el735Ud/zoUAxRzEt0rxj5cBHiWV6Db1h9+HVAc3U91YDc8ssbMQRGFDxbR2gMQwOIr60EIUAPT4lGuqTiKV1nW1bSDVe+Gs4JFq/iRnQ0haB4BLZqDOXrXB7Mi3ho5ucQkrTShGD4yGN8RdmUkRBAeFP0iOtriBFPpcC1lTnoJTQXQdtY0lUHxArXVra2ETsJxDmYY2v7DvtEuQKgk+hJM5EIsOIfeeSRflbI6c5PfepTVC51L9oIT9ssR7iry57znOfstttuT37yk/WQr371q48//njafNsoGZgITDkCqXV1VwF0JW9729uc4vntb3+7fPlynY4x1WjqSQOjcHi6zYvjxzqeei4E86Rk8CtfHWymqzmwTasrga2e/g7DrfwjpLdUQk0x67UGYUOu7IRqEjzpE17RwAp/OY1z6b5CEj3HiOjn1YBmC50xwPEFztZdBDD35OK+RK88XguGQqgUwcR4wBPmt9BjQhJPNKyVAk3rJSSEI4Migzw/U5BXBASQkVKCQeaTRcxYVOWXKMdT/K41wopUkU35veWPt1hRLXUDQZEZT0JGEvFDcsSTdDD0FXMoecopgyuero40TPIb5+L2SELCDVAiosSNBx8OH8mRIYSXrojnnnsu+pe//OWvetWrIqF8TiECKoNaoa6+4hWvYMWHgB30brQq9VktimqjIqlUwssnxKILRPCwhz3s0EMPtQ/s9NNPf9aznvWlL35p5112RhlxpxDYzHIi0BaB1LrawtImsNHVrNYB6Vm46E10VUYyw2T0O0ETvYzwGPyCl8CrrrzKNq94DcoYdEU3XsYAaeiNT663NqILRC+kPCO6iFSN22697ZZbb6EiGMhD8wjKoCFSSBVqB85UECGFAwk5o3hEJyFKHSvKGKebEo2I5YkeZYjtiXMoMQiwjayh4XALT8QlpB/0Jba7od27HQqTpGmx+JROHJlYJTken4R4clXeGj++Nksz+7cRIeIiE8rxCOYpPHlEFwi3CPcauSZPfBXCE2n5FH5fg1UjnYonF/56eElaoChYFTKf4msIUOKG5uQ10rKxTAXghwlwEG+44UZ+v0cIhgLryfHj6XnppZeqkwrCJZAh/x/+8AefCA9t4Q15q4u/f/WrX9G32DPcC1A/HYJJuqlCQJVQH+yL/8Y3vqEjetCDHvS+971PVYlW4OmifE+Y0PtbkalX7He84x3qG9XNZvyLLr5ol1138TXitkbMkERgOhHIJtFduetBSi8TMUufUsJbaUoahbiEhKdYTaoBuaEr1MfpJuJ4xarOrWkIL1HqNEXCma+NzeyFcs3X1UtCO4yQNeGFtMnToEc2P2WRJMgq6Rtdebx6yngoCnU+dTLhEcWTn6sLQrWgoAoJKHDjD5omynos/qAM4qAM/pFWKZqmWHO9Rtz4GhyCs2d5rdMUPpGQTwWHiFLVhFmjWnAorxF3JnAWDdHlIpLgKThEoCiRR5rxlVdeaZSlckVIkSQ904OAVqPifPnLX37pS1/K/Ol3fk488UQ3iEY9iap11llnPeIRjxDyn//5n3/+538uMMILSuoPFxWP1uUqL7bY73znO3e9612FB6tCnJ5EYMoRSFvXQitAdCvBRWdUdT+z418r63k+FeJqlG24EtLW0wmNiPOl2DR6l2SWLnH4r7yt2zNLH9lvpY8+ukmSVvlDWxLeQr8mavjWvDcSC/pKOSkLfrWMNxG3ihfp1sPbplInmMsfkpSv9aTLJ4H18EIcHp9Ys/jb0nQSWGAMhvXc1aOzlt3lLndpSj1fpwqBRp1cfeGFFx199NHWqV0GYe/Efe97X+GlqvCHYRUyDGCt+BTKqGn2YDCjtpJlSCKQCAQCqXV1VxNKF9M22vxf20ZpCqyPkU2fRv91ruzPFT5Xjur0/HMrsTMM2lK0DZwrxX6Fz5PoPJ/6lXrySQS6QoBGpcNxOxcDlc2L73//+w866KCicvHgVq+3EdJVEkmcCCQCTQik1tUESL4mAolAIjD5CDRW5JecdtppH/rQh+T2IQ95iHOIRceqK1jOZwQcV1xxxeTjkjlMBAaMQO7rGjDAyT4RSAQSgZFEwDb5xz3ucT/5yU8ci3Gg9e53v3uIWVe5hFDFwgbvR6O//e1v+1onCEWtqGsjmdEUKhEYIQS62b4zQmKnKIlAIpAIJAILQsDVppQtJ2Tf/e53h8plR3xdo8K9oWKt3n///XlcVuK044KSzMiJwNQjkFrX1FeBBCARSASmEoHXvva1bk65293u9rznPS8ACJWrbrji5/zsDwIXqK5YscLrVKKVmU4E+oNAal39wTG5JAKJQCIwRghccMEFfoKTCsXW5WbmkHwujcpCpO32rho5//zz63mci75Ok/5EIBGoI5BaVx2N9CcCiUAiMBUIuDPZciFbl9VD/shz0aJ4ip8BzPqje3fdknrCCSegLJ8qf/WW1q+pqDOZyb4gkLvp+wJjMkkEEoFEYJwQoHKdffbZftnaDwGtU26Kl4tSf/zjH9O9rDOKG7fKrTNiEiQCiUATAnlzRBMg+ZoIJAKJwFQgsPfee/v9n3VmlcrFmrXLLrug9FtenmN9reA685sEicBAEcgVxoHCm8wTgUQgERhFBGhO4dYpXGyx33fffXm4+OnSdcZKgkQgEWiLQGpdbWHJwEQgEUgEJhmB2IzV+ZascldqgBIa2CQDlHlLBAaDQGpdg8E1uSYCiUAiMBEIhGbmhxojN/GzjJ2raxOBQWYiEegbArmvq29QJqNEIBFIBCYVgV//+teusJc765KRx1S8JrWsM18DRSC1roHCm8wTgUQgEZgEBC6++GKripOQk8xDIjBUBHKFcajwZ+KJQCKQCIw2AqFs3XrrrXfcccdmm2022sKmdInAqCOQWteol1DKlwgkAonAEBGwkugXGG+++WYyHHzwwUOUJJNOBCYAgdS6JqAQMwuJQCKQCAwGgcai4uWXX37ttddK4PGPf/xgkkmuicC0IJBa17SUdOYzEUgEEoFuEVi9pLoj4oYbbvBzQE4vxl2p3TJJ+kQgESgI5G76AkV6EoFEIBFIBNZCwPIid9NNN9nXtckmm+S+rrXQyZdEoHsE0tbVPWYZIxFIBBKBaUKAynX77be7OaL8TvY05T7zmgj0E4HUuvqJZvJKBBKBRGDyEGDr8kNAVK6mG+onL6eZo0Rg0Aik1jVohJN/IpAIJALjjcC5557r2ggrjKl1jXdBpvQjgEBqXSNQCClCIpAIJAIjjMCZZ55Jui233HK77bYbYTFTtERgDBDI3fRjUEgpYiKQCCQCQ0Egrkhl65L6xhtvnLvph1IKmegkIZC2rkkqzcxLIpAIJAL9R+CSSy7B1C8wlh9h7H8ayTERmA4EUuuajnLOXCYCiUAi0CsCV1xxRa9RM14ikAishUBqXWvBkS+JQCKQCCQC8yAQa47zEOSnRCARmAeB3Nc1Dzj5KRFIBBKBqUZg6ZKl8u9W+qlGITOfCPQPgWxL/cMyOSUCiUAiMGEIVErXjNt2223T0DULRv5NBHpEILWuHoHLaIlAIpAITAMCd95556pVq+R0+fLltC4/EDQNuc48JgIDQiD3dQ0I2GSbCCQCicAkIHDZZZdFNh7wgAekyjUJJZp5GCoCaesaKvyZeCKQCCQCo43AD3/4w1C29t1339S6RrusUroxQCC1rjEopBQxEUgEEoFhIfDTn/40Vhj33HPPVatWr7derjAOqygy3UlAIFcYJ6EUMw+JQCKQCAwIgZUrVwZnv36de7oGBHKynR4EUuuanrLOnCYCiUAi0DUCResSc/Vq/1d3zSIjJAKJwCwCucI4i0T+TQQSgUQgEWiHQO2HgKhcucLYDqMMSwQ6QyBtXZ3hlFSJQCKQCEw3Amnlmu7yz9z3B4HUuvqDY3JJBBKBRCARSAQSgURgfgRS65ofn/yaCCQCiUAikAgkAolAfxBIras/OCaXRCARSAQSgUQgEUgE5kcgd9PPj09+TQQSgURg2hHIHV3TXgMy//1DIG1d/cMyOSUCiUAikAgkAolAIjA3Amnrmhub/JIIJAKJQCKwZEncTZ9IJAKJwMIRSFvXwjFMDolAIpAIJAKJQCKQCKwbgdS61o1RUiQCiUAiMFUI2MjVtJdru+22y5++nqo6kJkdEAKpdQ0I2GSbCCQCicDYI3Bnw7mb/n73u18jM3kx/diXaWZguAik1jVc/DP1RCARSARGEYH4ucVrr732pptuIt/ee+/t6dev0+I1iqWVMo0PAql1jU9ZpaSJQCKQCCwWAqtXr5LUBRdccPnll6+//vqPe9zjvKbKtVjwZzoTi0BqXRNbtJmxRCARSAR6Q6BoV1deeeX111+/1VZb7bTTTk4y5mHG3vDMWIlAQSC1rgJFehKBRCARSARmEGDf4jvhhBPuuOOO7bfffrfddqOKpdaV9SMRWCACqXUtEMCMnggkAonAxCLwuc99Tt623nrrHXbYwalG2+onNquZsURgURDIJrQoMGciiUAikAiMGwInn3yy5UX2rWc84xn0rTR0jVsBpryjiMDSpktZRlHGlCkRSAQSgURg0RE46KCDTjrpJMneeOONm2++Oa0rbV2LXgiZ4KQhkL8INGklmvlJBBKBRGDhCFx22WUOMG6wwQZOL1K5MCxb7BfOPDkkAlOLQK4wTm3RZ8YTgUQgEWiDQCyAnHfeeZdccgmt6+Uvf3kQpdbVBqwMSgS6RCC1ri4BS/JEIBFIBCYXASpX7N8644wz3I+67bbb7rXXXpOb3cxZIrDYCOS+rsVGPNNLBBKBRGBkEaB1uSpiww033HHHHa+++uoHPehBp512mlcCp61rZEstBRsjBHJf1xgVVoqaCCQCicBgEaBa0bGOOeYY96NKyenFjTbaaMnqJatWr0qta7DQJ/fpQCBtXdNRzpnLRCARSAQ6Q+DWW2/db7/9zjrrrF133fX8888PQ5eoqXV1hl9SJQLzIZD7uuZDJ78lAolAIjBVCFhh/OUvf7ly5Up30x911FGVoavhUuWaqmqQmR0cAql1DQ7b5JwIJAKJwJghQLs6/fTTr7322m222ebAAw8cM+lT3ERg5BHIFcaRL6IUMBFIBBKBRUTgrne968UXX/zABz7w1FNP3WyzzcLKlbauRSyBTGqSEUhb1ySXbuYtEUgEEoEOEYgLI7773e9SuUR52tOetskmm6Sy1SF6SZYIdIhA2ro6BGrsyeLmQ9nIbnTsyzIzkAgMDAHK1oknnoi9HiNc2roGBnYynkYE0tY1daWuJ+1LnvvFpy/CJJNEIBFYOAJXXXXV7373O3we9ahHRQOPH17MqdrCsU0OiUAgkPd1Lagm6Jg67I/moYzebS4+8bWtlHNFaSUuTIoHTefRWxkuPHpbntMTWC+I3nK9wOLrLdGMNakIqJBq1KWXXnrFFVf4FaDDD3/x0iVL71x1p8D8xetJLfTM11AQSK2ra9h1T5yeyDaITka+oEd5551VFxZu1Sp9XEdJl+giihDPuWIiLp/qlJV/dfWvHlgnrseSL59ksJU4QuoR6zTBpP5VSCGI8PJaUhQen0pIk0eU1lhNNAt8JYAk5Fumm1jNL1sT8Tyv9Sy05VknmIdP+RS7cMRS5q1iF7L0JAKdIBDVj9Z1zTXXbLHFFve+9710Fy6P0GukSwQSgT4ikFpX12DqnqKH6nAKGMQmjlIKhSaeZej1+xvF3yqNiOtvsD4m8yQneuEQnvKKIW3Pq0R5gn+VgQbD8AiM10jCTDfIqj531iEIL1YN1W5NZ1w+BYHXyGA9uk9NZLOMZ8JFKSGFzzxZbiJe4GvI1qS7yKdwmZ3N+oISCdSwwJNbEK9GZOAYI/1M3sYbbxzM+8J24YIlh7FEoNGg/fjP7bffvvPOO++yyy4zuehDVR1LPFLoRGBACKTW1TWwP/zhD1esWOF3YY12IlMXLr/8chNEN9x43njjjZ5liA3u8eoZLpSSknBoRYZMX0tg8Qg3vnqGK+HFE7HqcZv8odB4hkfEWWZVh1rYRipCQlsS3qQ2RYpNyZXo8TWekVC/dKYddtjBUXbXZC9btmzjjTeRxJ133iGJW2655Y9//KNBwvPmhrvhhhtcq10kDGBd87j11ltvu+12O+98FzrK5ptvvv3222+55ZY8nu7d5pHT2267LYrv+uuvv+P2O/z+SSiphVskJHUFTVHmIQMaTznFSohj9uwE2223neemm24qaSqsRPkBhYDDRyUhryokLR7y8xDeJ5xJEpLX6RFfd911yHwlLW5yqh5K921ve9shhxwSxPlMBHpEoFE9Tz75ZHVPA9Hcosaq/6Xq9sg5oyUCiUANgdS6amDM7Y2hV+/zrW996ylPeYoBz8gXozJP0VcMmcZgA3mMx/iF5uF1bt6D+lKUnpJ6jNZeS0hT2j1LW9IKhsG/bWBTivE6f7pgRxBo83NNTEp2ytdSXoUYTQSKi1uJUlihFO7pExcilehBRoYIL7FQFn/dI2KJW2hK3PhKHo4fAU9EDxn4S/QGVWWqFBIc6vQoDz300G984xsPfehD6wKkPxHoAYGf//znYukoisG71MMeuGWURCARaEUgta5WTNqENHU99CqOlaIN6QgHheIywgKmaN0hYHQUoahlRavrjktSJwKNWgQGxtQEIxFIBAaKQGpd3cH7yEc+8owzzthnn32Yu44//ng/mmHph9/i1NVXX22p0fKT3TYWvxgkWrWcYtIITzFaNL0WmYQbSsNGRfNrUv7qZE2c45PACPeUFhfhwafBb2aRUbiEuAgsn0oSi+AxvSZAJNQQvMq7NTvLi7vttpu9Jne5y13iV+HiayzMWa2z6MbKqBTCH189Yx1QFOt9nEWT7bZbttlmm/JbtfTcaqutgqFEgSO60lSOWCm74BMb8uwsVqbCURqZfA0wV69a7ZyXAtp6620seKoPBMZWXiThkknL0L5iJWLAHhkk/KWXXGodU4r8klaFqhJq2L0q+tnV5j/e8keVKlYkrULKFObE/vKXvxy3WZ500kkPfvCDg20+E4HeEIh6Xq+ivfHJWIlAIjA/Aql1zY/PWl+PPPJIu00//OEPxyB6wAEH7LjjjgZgw6rBsoyqDX+lxLR2YY2BHM9qROWvhliLSw1rhRCvXD1JNPiwq+kT11u/0kjm4FkxDp5roq9egrtXPCOtogVi0uSQhW4nOS6+rmG1KL5G7meyX2QQGMLIAvnLwkdIFLkOP7L5xUSMJqCQ2cIhMPeJtsRR7+bnM9fXwqculRKLV09OvkTnUaa77b6b7PBTpLzyBOd5MgKBICP/L37xiwsvvFAUcwAbwrCaJ+JcMmd4IjCDQKP1RP1MTBKBRGBwCKTW1Sm2bBJ+FPbss8/+3ve+F+Mry5Ztp/opA+FMb1VZKBrHrefgalxs6AYz+kHEWudgib8RmS40B9cFBVesG65JjNZwIYWm9WsPQhQmERcaAUi8+krJuPOOO6mboREWVQlBxPWdvxGriBaxm59B74muzqfptXBuyy6iB+vip9OGGi0KF+GlvLwGfWStvJIhvogSKlfol4h5CpnXCpRZE2Aj1kwpOAQQZDjYh+MZCeUzEegZgaxFPUOXEROBDhFIratDoJYY5I455hg/UnbQQQe98Y1vFM2Sk+da/VRlpu9i8Fsr7tyCIBvckDoX69bwekjdP7fg6/gyPxNfKRlc4VKnD3+T6atQtnrqcVu/1kPmoax/Kv6GNrym0CO8lFchiyTqr4XGJ+H1nNblafIHB/qWBdOijdVZNdHnayKQCCQCicDoIJBaVxdlYSmHO++88yJObBvqIn6SJgL9Q8D9FKxidqdhWVfm+pdCcppSBEwdqfVZqaa0+DPbA0Ygta7uADbOhYlLNP5ibOiOS1InAgtGIM4BlNMAC+aXDBKBqk+Dgm0SqXJlbUgEBoRAal3dAaszKqta61C5Gnu8mrhnX9YESL72jIADkuLaE9Yzh4yYCDQhEFpXU2C+JgKJQB8RSK2rIzDLtuW61tW0ESdoCjuUXe3xKhHTkwh0gsCGG1T6VpkDdBIlaRKBRCARSASGi0BqXR3hHzaq2Ovg7qiI43KmeuSgqYekPxEYHAIbbFg13rR1DQ7h5JwIJAKJQN8RSK2rC0jpVRSvsrBYPF2wSNJEoE8IxM+A5r6uPsE57WyaTPXTDkfmPxEYGAIzV4EPjH8yTgQSgYEgEAvcqfoPBNxpYkrf4kwpXUkY+c7f9Jym8s+8LjYCqXUtNuKZXiLQFwSMlPjk9ue+gDnNTBpKV1WXTjzxxMDhuc997jQDknlPBAaKQGpdXcMbo51oxdM1i4yQCPQXgZkL8PvLNLlNCwIspnqzD33oQzJsp+DDH/7w7Nympewzn4uOQGpdXUN+2WWXRRw/Wtx15IyQCPQDAetBcUlv/CaSW0pymOwHrlPKQ+X5wx/+cNVVV8n/IYcc4plng6a0KmS2B49Aal1dY1zvj/RWjZ/h65pJRkgEFojAjL41+zuPC+SW0acWAR2afswvqV955ZWOaLzsZS+bWigy44nAIiCQWlfXIMeMULTrrrtOhzWgH6XuWqyMMH0I2FBf/SLQ6urXP+uTgelDInPcOwJV1Vm69LTTTrObftmyZX7f02bBNJ32DmjGTATmRSC1rnnhafmoe7LC6Li+Ae+GG27wPbunFpAyYDEQuPXWWyVT/T6Vn95e8+vbi5F0pjFJCDQM9quOPfZY1tOdd965cR9hpYdNUh4zL4nA6CCQ93V1XRZmhOaCeqUrrrgiVa6u4csIfULg6quvNkxefvnl+EU9zJGyT9BOHZtPfOITv/nNb2T7qU99atPlz1OHRWY4ERgwAmnr6hpgti6DHHfBBReInENd1whmhH4gEKbWNLj2A8vp5aEfu+2224455hgQWF5885vfPL1YZM4TgUVBIG1dXcN8zjnnxCVJv/zlL1Pl6hq+jNAnBELfij31WQ/7BOp0saFyyfD//M//XHzxxTxHH330dOU/c5sIDAOBtHV1gXooW45YV5au1aujq+oifpImAv1DoH5xSWpd/cN1ajjN3vF2+umns9/vsMMOT3jCE6Ym85nRRGBoCKTW1QX0oWyVM4xhZugifpImAv1DwBHaYBbVsn+Mk9NUILBqdXVQkb7+lre8RYZtor/Pfe4TE8upyH9mMhEYEgKpdXUBfFgU4nbKLqIlaSIwAARuvPHGAXBNltOFwNe+9jUHMvRs+++/v8u60mg6XcWfuR0GAql1dYF6dkldgJWkA0Zggw1mNmVmtRww0pPJPqrN+973vsje29/+dp6sS5NZ2JmrUUIgta7uSoNNvrsISZ0I9AOBWEasVz/7uvx8HueW1Fgq6kc6yWNaEKBgrVy5csWKFSrPEUccsfnmm09LzjOficBQEcgzjEOFPxNPBBaOgJvpGII9MgAAJ5VJREFU85rUhcM4fRyoXJYX/bzB05/+9OnLfeY4ERgOAmnrGg7umWoikAgkAsNF4N///d/9tsGOO+641157DVeSTD0RmB4EUuuanrLOnI4xAtaDuDHOQIo+IgjYIjG7S+IrX/kKoXbaaae73vWueXpxRMonxZh4BHKFceKLODM4OQik4jU5ZTmknNgEKGVL0qeccoqtgc5kPP/5z896NaTSyGSnEYHUuqax1DPPY4pAfTe9LDS9jmmmUuzFRKAoWO9+97vjEpyXvOQliylAppUITDkCqXVNeQXI7I8xAkXrKkPpGGcmRV9EBK6//vpLL7100003fehDH+qarkVMOZNKBKYdgdS6pr0GZP7HCIHQroqyNUaSp6gjgoD9W2rRRRdddOWVV/K/7GUvK9UpdfcRKaMUY7IRyN30k12+mbtEIBFIBNYgQLXifv/7319zzTVsXcuXL1/zLX2JQCIweATS1jV4jDOFRKCvCORNvX2FcxqZnXTSSTZ1LVu2zOnFhq2LJjaNOGSeE4HFRyBtXYuPeaaYCCwQgdrp/wVyyujTh4CFRTd10brcGbHzzjs3FK7ZyySmD43McSKwyAik1rXIgGdyiUCPCMT+m7ILp0cuGW26EaBjfetb37KpCwzPetaz1l9//TBzpbFruutF5n7xEEita/GwzpQSgUEg8LWvfe26664bBOfkOXkI0Nrf8pa3yNdmm2326le/evIymDlKBEYcgdS6RryAxlW8ukkmjTR9KcVWa4QrLrlnPvOZccl4X1JJJpONwFVXXeXaCLdFPP7xj5dTbZNrrVqTDULmLhEYIgKpdQ0R/AlJWq/dmpPoxxtdevU1e/ZWiPoVctttt1kn6he35DOpCERjdHrxiiuusLXLlfRy2rbxTioCma9EYBQQyDOMo1AK4y1DmSj/9re/Pffcc0844YT//u//jizZq/u4xz3uxS9+8SabbNJtJn/961+/7W1v+/CHP+zXebuNOyX0cbf4xz/+8YMOOmhKspzZXCACdnSxdW2++eZOL2K13nrrxQ1eC2Sb0ROBRKBDBFLr6hCo6SW78847b7nllp///Oe/+MUvnvCEJ+y6665WtXTWEDHqr1y58le/+tXnPve573//+3QsgXSvhz3sYdYvfve734l13HHHUZ722muvD3zgAw9+8IMLjr7usssuG220kZAmS5hX9ptDDz0UKy61rgJaW89LX/pSA2cThm0pMzARuPDCCzUupxe33377gkaZOJWQ9CQCicCAEEita0DATg5bq1csWE972tPoWP/0T/+09dZb07psxX3Pe95z2WWXHXHEEbps/je96U177rnnBRdcwLj1zne+8+EPf3hAoItn+kLw1Kc+lXK2//77C2fHOuSQQxxff9SjHuX18ssvf8UrXnHAAQcceeSRXjGkbF188cUR95GPfKTAdIlAIrAQBEK1+s53voPJNttsQ/HiyRXGhUCacROBHhBIrasH0KYrih8PYU25//3vT2f69Kc/ffXVV1sudPjcsXO3LL7jHe847LDDCiJhdInX6NCpaA94wAPoYQceeOAb3vCG008/Xe/PYMbWxXgWWtdnP/vZb37zm+eddx5WW221leiMZBZBGMxWrFhRmKcnEUgEFoiABoiDWdOWW265QFYZPRFIBHpAIHfT9wDatERh3LIFhCZ0ww03sEuZHB999NH0JyfPf/CDH3z729+mdf3jP/5jwFGfNFOnCkaxFrnhhhvGjm8qlyXLLbbYwgLHmWeeGWTve9/7HvOYx9Dn/vCHP0TI3//939PnaGBUscK/nkThn55EIBHoHAG76TXJbbfdNkxf7U7CdM4sKROBRKBrBFLr6hqy6YnATPWThnOvjz1YkfHorPnvcY970MAuueSSj33sY0xcdVjoajSk6NDjD+Xp2muvvde97oVMp7/+eus/5znPOeecc7y6bopC9jev+RuxLDUKYQbj32OPPSxZ/uhHP2qwanNMsp5i+hOBRGAeBKIZWtkPGreNFOLSoktIehKBRGBwCKTWNThsJ4HzUUcd9cQnPvGVr3ylzIT2U++jHYNi7vrMZz5DkaqH06K8rl69KgJPOeWUl7zkJQ95yEMcSJwBZekSO+v/53/+x+sHP/jB7bbb7mEPf5g9+5wQe8VYwu52t7t5xiXaM7HyTyKQCPSKgPYb8xwMyl5JP79Yb7m98s54iUAi0CkCqXV1itQU0tkCcv755//VX/1V5L2hda2BIWbPnnQjz8rcNWuQsoYYdPaEudfghS98oTOMn/rUpywsCo9e3oFHOhZK96rbYsLdfvvtf/zjH706ZnWXu9yFdW2HHXYQsibJ9CUCiUBPCGh0nOMpEdu+rvAI7IlfRkoEEoEeEcjd9N0BN1WdlGOJbm24+93vTp2q/i3RQcdzBjTXLVoKfN3rXkflYu6qvjdcLDg6kHjSSSfZFE/f2nfffXlmPjf+ULOE4EDNespTniLsT/7kT1i/LCw6GllUvWJFw3OqwK9jlf5EoC8IzMyOliyxeaAvDJNJIpAIdItA2rq6QCxG/bDxiMZOU11TOWvg6YLROJAyMl1zzTV23VK8qFwNpWctuaFh05dt8o94xCMsKQYUsWveBV0WH+2ptwffaURHEWdULljh1djw5QYKE+7vfe97N9988+tf/3qsXfXpaKSNYnaAxRUSbvPy0yWze/Nndbq1pMiXRCARmBOB0lnxcGxdpjGcdjpnnPyQCCQCg0Qgta4u0NVtoS4WF4pI5VavWVnrgtfIk1K5brzxRr0zvSeEjezHU8g1V1/DGFbOMIKFQuUcolj3uc99TjzxRNu5KGT1jFYa15KZH32jqOn9v/71r1PXrFEis9fkjDPO+Na3Tn7Sk54UsZxhpJmdfPLJXhs7x1LxqsM5fn6VJ+pPeTYC5nuMXyZHTGLgmh/qqLRQDSqwNrEZMTFTnERgWhBIO3NHJR1dlW5L/8WVOMKLElYCJ8NjlxV9KPIbGpLMlqxde821Bz72wL3usZe99hEIB2733Xa3Gcsdp894xjMoVfbFP/CBD3Q7l9VDZAgKB2TMXe5sdN99BLqZwtjwiU8c62KwSIuFjM73pS996TWveU2JmB4I1JFsAFIBWy+gdjQNwn48IqEWGfrBupWHSrem1rR+zpC1EDALND+JIO2XdqUh2wZw0003+d1rt99F2cWxlbVi5ksikAgsCgKpdXUEswEmxpjQRegTounUvBZTUEeMxofIZnYmKFc5uCPe1i4LjptuummIL9f7PXo/atO//du/ueQ6+nGaGc9mm28GkHve857HH3+8rfQ/+9nPKEy6+912280649vf/vbgYGwIjQrz/fbbLwLttRcXW6cdA21nG23/kvStt946qTj3ViMCnxLXQBulUEJGwRMi1UUt/vCU17bSil65JavXW9oHk3zFacCuKYn5c9ehLPMzkaKJClbIwgVbPyZx7LHHnnrqqQzPuimL+FqQW/c8EbB43fve9+5QgCRLBBKB/iKQWldHeEZ/ql8L8w+PaPq7ut2rI0bjQ2Rt8d3vfvdf/MVf/J//83/+9m/+drfdd9N3u2Lxxz/+8Rvf+EZnEt1Tz4glQ8AJQHhcW28zFq10+fLl9sXTqOzQOuuss/zgzzHHHOM2VL8sxJQFP1oUSqnsvvvugYrr7/2kY/xQSbC1pYxW5/qu3/zmN74G2ZQ/G8rDWsafs88++wUveIH9cDEA1/GJcqmHLNyPp73YCpqWbPxmsKQcKybHThX6DtvvsP4G61Opqcs2BSKgrMevbUo62gsOMW+ZXxhk3Pw0rV+jqQoXt6qZS6qF71ay/oaEnE3SFkkWklYrk3oq/JB0HsUFK7YEXHnFld855TsaGuNWSVRDA7tJkZJSENrXe9/73txNX/BJTyKwyAik1tUd4OaLZWyjgdmdGt1ivSvsjuMIUz/2sY/94he++Jcv+UsXmTJBMXE5csgA5totv5loQC2yV8Nbw+nN9e9lXRKBT/vss89pp51m/m0X16WXXioQbeBmSI5D7F6NH6Fy8dMtDLjIXvWqV331q1/NQaJA3aqHKJ1y+2UhG4pH0VOjNRA6mZKleylco75ARUkkBtQ//dM/9QtRe+yxBy2NEqCQWxcQG1Vpqbgidp4R6ao3kVDECuZtEuic6dyUVR1t1GRPSYfMreRB1hq+zpCIqFFod4g1gbqqasXQ72ixKJsL8VOzmLV4wpoVzE2N/vzP/9zivjarRMxhFIqZknJZZ+pJkAgkAgNCILWujoCNrjz69GLf4qF4dRR/bIkOOPAAe0GYuEymjakWJordQp4AYrwxGMQIAaXQuqpp95VXUtR8EuirWIxVdXuVcKYvK5jxU4y4VYNKZZdAHuNZta703Oc+1xaxscWv/4LTIUDUUDBmTDgPetCD6Mdx+Vn/01sXR4VFLeDMQAz54bEoTEHnVI/CIFRnu/RKSOceP4Tg1lwWNRpD6B9qI0elo1KwsbGrUSm8cjSMeApR8ZBFPYxW3HmidUpxg4nAqoI2JgnFz9PKPEJaw+ts5/FHPxPp+lF516lYsrdj8otf/KKFexFlLaY3ACEPDZX1kS5Lr9Km2JjZIBEwOiJuiDwzNZon0fyUCCQCg0Ygta4uENYDctEbimZEWXXnmkGlC0ZjQip/kWWLgGUdMGTXiYendTx785vfLLD80BsyTEosfnHj6RKvEj7jaSwGBX2QCTe6xJjBX1gF/TQ+Ybla3atOpUX2/TyAGzeGBY6ioWxRuah97C6enDUv1hdLw9QFT4o7DSzMnL0VmV+U4qgXdAtTHbpdKx86RxCg4VQbjqdU0YVUHnHD1dOlAjLasSGZYHD0GzSlIGZjzFT+esRO/BRHapZfO2UkpnLBs+3BQ6Ysvyu/9957Uz2tIS7bbtkey/cIMaQSOyLonfxw6CTdpEkEEoGBIpBaVzfwVqNd5SIOz53Vzq5qz0Q3XMaGdp5uunTrrZk5+OCDWwMzpL8IxGgaPGNH17AqoZrAtsTVV5znySz9jMHGzw9QyKhrlLZW4ipw9ZLLr6hOcsSOpUazazS2O+/0VaKenHAaGG0PWx6w4MnSBo0yO2rl368QqWgjZAhJWtnO04JaiZtCsC0hNDDqo/VZih2crb06GvyiF73Is9AUTwOYmZXWIsA8DbZETE8ikAgsAgKpdXUBMh1Lj1YiRFdrel1C0jM/AtH1159Bv84hAUEd+flTmfivoKhrXfSSMVL92Z/u23BdFZMsy6ObTNi5+KM+hCpGzWIHommxsfGHEubeOFqdw7O0MRYjX+tKTFdJI5Yih7+9Uxy2nt0y6ZmeLc1hFAYt5jSmLP9oe9FkQjBPzIVUrvG3pOX4Z23JvkerW+GWnkQgEVg4AqkxdIphdHBVtzbr+IdlYJgVIf9OJwLVMndRI+yiq1fLEUck2lERch7Jy6fI6Qbrm+Dor2bu7K2WWV1Q3NA2bGYqDAftIX8RLNISwthmUdUmxdWrKgWosfGussyR3NfeRBLdb5Xe/e57lvu3cKNtM18VAXiKv20qlc0wXSKQCIwSAql1dVQaMVTErpFi3IrXjuIn0YIRmH90WTD7cWJg2DUAcyH0bbfepirG6D76KFVqwuzUpRONBE21TEZ5WDPfaeR76ZK+3OO18IKXHRu8OCuATdw6yWBTlNbXwkRC1hkRlJAm4q6AbYqbr4lAIrA4CKTW1R3OsT834jB0Ge0MfmXzRHe8kjoR6BUBta4MvbfedmsZbnvlN5x4XYjdpHL1Km8BrVcGVbxWJrP2rBnDknwpIM9wvadVmarmNFZh3sx5Xvpm4nxPBBKBYSCQWldHqJcOzlyTshXdLo/X8qkjRkmUCCwAARUv6pvlJy44xQUNk6r697d99ZdbKclZ/WdGDVJMpThaVbQSa4GerjgP6NKyBWYhoycCU4hAniXuqNDrHVzpuHnCdcQiiRKB/iEQti5Duxpol3e9fvYvkeTUIwIKpceYg4s2ehINLq/JOREYZQTS1tVR6UQ3mmNbR2Al0cAQUAPrIzqti/rFFcvKwFKeEMZ9bML1gmhFZ83X4a36VfatVLZayyZDEoGhIpBa11Dhz8QTgQUgEEqYpcY1Y/wCuGXUtggsFFt6z5xbs9om2J/AhYrdHymSSyKQCDQjkFpXMyLzvEdHZqjjgqx45omVnxKBfiHQNJRG9WPrqvg3bCpNBP1Kd2L4DAUfiS5mRzGUPE5MDcmMJAKDRiD3dXWKcPSbnuFspe80ZtIlAv1GQCXEsrG6WD36zT75JQKJQCKQCAwEgbR1dQSrgc04V04vdhQniRKBfiNQzBih+gd7N2dWntzF02+0+8ivFFwfeSarRCARGEcEUuvqqNRKpxnbU8vm5RLeEZckSgT6hEBd6ypXSPSJd7JJBBKBRCARGBQCqXV1imwoWOtVP3e7Xi4vdopa0g0Ggbq6X7+vvB4+mJSTayKQCCQCiUDvCKTW1RF2ZTCjcvGX144iJ1Ei0G8E1MBicN16662xzzrZb4yTXyKQCCQC/Ucgd9N3h2ll6fKrcOkSgaEioBIWNWurrbYaqiyZeCKQCCQCiUCnCKStq1Ok0NlMYzXHby/G/mW/d5sDXhfwJekCEFD3ipqFjTXuhv5fTQDC1rUA3hk1EUgEEoFEYJEQSK2rO6CdZRQhz+p3h1pS9xuButaVqn+/0U1+iUAikAgMCoFcLOsW2WHcM92tjEk/6QiE1hW53GrLXGGc9PLO/CUCicCkIJC2rkkpyczHNCEQy4thc91o441k3RKkZ30VcprwyLwmAolAIjAeCKStazzKaYhSGs4HcSNUaAkd5athXuyCviOm401Eu+JoXdzGG2883plJ6ROBRCARmBoEUuvqqKgN+WXUN9q1jVMI2n4d98AOc9dfsgCt+oHBdGsj4DxHUYU32qiydXFz1cz4ms9EIBFIBBKB4SJgiMwVxq6LoGxejtspu44/bhGM5Xkr7NALrUmjqr/W/UOXMwVIBBKBRCARaItAWCVS62oLznyB22yzTXzO0a4Vpg4x6ZCsjnNXUVoFm7AQenBdFe7QxDhhIGR2EoFEIBEYFwSil/bMFcaui2yXXXaJOEX96ppFRkgEFoZAXQflt7urHrIw3hk7EUgEEoFEoP8IhOKVWlfXyG6xxRYRZ9ttt+06ckZIBPqEQFGzbr755vy9hD6BmmwSgUQgEeg/AmU5Im1dvYBrO1es7yxbtqxA2QujjJMIdIxA1LRS3xqHF1dF7Ouuu65oYB3zS8JEIBFIBBKBxUCg3nvzp62ra9A322wzgxzHEz8NFCyEdM0rIyQCPSFw00033XLLLRH1qquu6olHRkoEEoFEIBEYIAJ0LE4C5cmTu+l7R9y+LiaH3uNnzESgSwS039Dtq6bcaMwYXH/d9Z5eU+/vEs4kTwQSgURgIAiU/rnuoTB4Ta2ra8QtLIay5Wew7afJ0a5rBDNCXxG45tpr+sovmSUC/7+9c1lyo8jCsKSSuiX1xQy0GdsTMRAQ8AKsWRC8AQsegYiZNTwBEQRbdmz8BrwBLFmwYAdshsAmCCCwMbbpi9Rq3eYrHSudXZdUldStS/efEOWskydPZn5VyjyVmVUtAiIgAnMS8N0sTHDqB5wHeV2lyb744ouWh69TRlEdiP47/KXNKYMIFCaQuYh9fHyMAU10FaYoRREQARG4FAI4WNh1RyI2R8PRfC++bi2vqzR6hjdmucjWarVqtepgcI2+nM5940Z3u7EMnxMWpOnbmZnFCipbxEyzm6UQaD5OPz/pWrXGR/wDapvVXtVWBERABDaLgA1VdqRPJhB3RxeR11X6srqZrWazSeYrO87Ff4jnmUPp2ugi3EwEd2oQ05LScJUhh4BjG3PnLRj8/enE187ODr/nahS/zEGSM+AUnEQRERABERCByyBgfa8d6ZAJTGtxypE4ERbHOOI/yOsqzd/2cpXOtnEZqpX4v5zA3ZMe1NOSnNzlXNXiZvOKuwLyNAQn0XfjrsD1VRNEQAQ2nQDDIk2YeFwjvm9gjhefmuJzB26yBgV5XaUvtBvtLGfitLS5zczgXM/r2fyVXDT7SZsz7M918S6tf7qSuqlQERABEbi2BOicrX92LhdTXAQWItJ/r1le17W9TxZtuPytRQnOl3/idtmnes3A3t4eXtd8xpRLBERABETgQgjgeNn8lh339/cze2Z5XfPTnsPtMHe4YEZTTtevYPZ0xmsi8bklWIX5h1NXTg93y3baUU/aRbCfNF7XyuumCoiACIjA9STgRhwiFlheZJYr0+UCkbyuBe4TxsCs7U0zLeII+zru2mDNlwfipsm463TsYvsSl+SECftO7jTNCPWxCHKn4yJOOTNiRVh2slhIa9q7HSanONQs7srlFKFZsyTTcZom9I+mjALhWTy1L40kP0sibhnJ69TMzuQYy5w8kXHuU7Nv2Wcbt8VFyFSqzHXxIq1l176uufkrowiIgAgsToCumOCWFxnU0guLrhR5XQ5F6YgNk7MHy5ThRBauVkJiOTKFLolcCcPoB7IklDNPnQUXyVQLCF0FLEIdJ60L+SsoTHSszPiYaT9TjvfGe3voY4EjOkR8Ny7TlCnb0SmQyyw4iZ2i5rxk05kqxDVKGJkmZf77rAWZDUlnyLM8kVd5f5Y3YiwX+7rS2SURAREQARFYGgHrsTky0XXjxo1AufK6AnBmJB3cPCg4gpqhJ4+fjMbnZrlMzqhpLzgUtNbpdJ48ecJf4nv48OGff/55dHTEZSZwOuYF1ennHlztLdWObizHgeDFCr74autTyHu9Hn9Hmb/u9+DBA47nPYz4vYz79+87/8PdYa4UInzA7ObNm7du3bp9+/bLL7/MZIwV+vjxYyqJfWrenwTkria0Gk0IUB9uVtbCdyeBU2ccZXYmdrtdGmjCaq1KFjwPAoUSDg4OqECr9SwX+rTClYIyac/yThy7BG0cuG43rh5gCbSULASqRHWgQSUTWbCWlrg6hyNUjCIIrkqU5Vvz474pJ3cR+2wvSKmhr6m4CIiACIjAcghYl864Q1dMZx4oVN10AE520ldffWVj+bvvvstg7AZOtDkFN4MfEXRwMogQJsNrhr+VXcAsKQZtxMWs1cRyICQpkNtXdlnSQmfBb5oThiNUAIMBm4HsfuXnKDpg2ZKMG5QISNL1TPBMGzQLljfTgp9le3sbRxMJxXFXYJzgivY103FDgb5LYnIL5w8HCy+QmuNr/vjjj/bbvnv37scffxyY0HZGFBEBERABEbhYAm68I0KnHXa5KFpeV2n+X3/9Nc5sZrZ4XB2NmC9JpzIoZsrTmpJcDQLmciXaUtDrSuTilHk7wqNHj9JJX3zxxX//89/XXn8tnSSJCIiACIjAZROwZ3iONtcVLu7chuWw6nVONWeWIZPIDz/88N5770Hj/fffZ04Cx5a3FZDbMhmnTEswz4H7xZLcL7/8woLd4eEhcrwuhHkYrQg/lRUxG6R9IXGGcy6tE5KRU44EX+jiLpLQcTM3TsEiVNLso+8qQNzkREglTgR9p0AEz5JmGhMiSEzHzPqriokS7RR9gtXKjHDqNK0C7pRIXv19nXQcm1ZPP8mMc4H8CvsKeXGssRLKDcDFcgujLBkjbG43+QuJfz3+i5VfbgACy6zpK5W2zDwW9w93ETNb2GTllMAUF2Y5cpuhQHEffvjhl19+SdH3frr30sFLVF7TXWmYkoiACIjApRKw0ZC+nU6Y3Sl0zuH3ys+Ni5dasytjHLjxDqrx+M6dO+vQKPyf2EsaxY6XX5/0KRJfOHGMMlYkWZh2zoHze8g4Go4Gw4EdTcEVhxo+EN4APgEByxwRejUah51OTJkR7BCcBVcEFaBQd0qkzl9WeO6V+SmXFY/xxYzPcS5YGI0qqFlQ7ffff2falV10b7/9trtMBfNKTQREQARE4EII+F4Xj9Y8crM7OWBZXlcATnYS3oO5FJZs43BaNXMgnAzb56aI0hkLSpx9s2mnTljECO4aDsSFewOZRedRylQ2Yam2kGWOIvzSyxbn511JnAVH5sNo9cbVfCW4VKgIiIAIXAYBvC4CkwL4BqxpsP7AokSgIO3rCsDJTmIdxw3wLpJQzRsIkeclJSwUObXSOVrAMhHLaKUkynKp6JDEpnz+9YV+3swKmHLCbKbmIsJ57E/anW5LqWpMv4dVKlMhZVexaSRu4jzN9Eqz9cQFjXj2FBUBERABEViIAO4X20LCJuR1hflkp9pQB9/pIJpUMwX/mNS4iPOy9k0/UXKmMKHjTkspu1xE5s7oGwnFJx7TpZcSqkEozSrG3XKBNWQRNlSk0kRABERABJZIgB6eMLNnltc1/zVhBA0PouHUdMFcsLTQScpacxmXFgnUfwmVD5RekMBlV9K3n65tWpKotp89kWR5AwoJfZ2KgAiIgAhcOIGZ3TglyutaCHseYhv/yo6F842aZUuZ2eBwo8iep+BbTrSlSJZAdj8pL54oMU9tTeT+HVKwSgGGm9X2gu2VmgiIgAhsBAE6ZxdmVlhe10xEuQoMdesw2l14HWYanKmQRjZHlrSRqyThJ5pozkxE6SzOgiXNtOD0FREBERABEVgJAXldK8GuQq87gTk8pDmyXHfKar8IiIAILJFAkW8CXPA3hJbYOhUlAiIgAiIgAiIgAmtBgDWHIs/G8rrW4mqpEiIgAiIgAiIgAptLAK+LLxvMrL+8rpmIpCACIiACIiACIiACuQTwtyzkakwT5HVNSehfERABERABERABEZiXQOCdJ2dSXpdDoYgIiIAIiIAIiIAIlCZQZEeXGZXXVRquMoiACIiACIiACIjAHATkdc0BTVlEQAREQAREQAREoDQBeV2lkSmDCIiACIiACIiACCQI9Pv9hCR9Kq8rzUQSERABERABERABEShKgH1dfCK1yO4ueV1FmUpPBERABERABERABBIEzNnC64qiKJGUPpXXlWYiiQiIgAiIgAiIgAgUJWCOl7yuorykJwIiIAIiIAIiIAJzE8DxMt8rbEFzXWE+ShUBEbg6BPiGYSBcnXaqJSIgAisi0O12wyXL6wrzUaoIiIAIiIAIiIAIhAi4Wa7T09OQXqVSDycrVQREQASuDAHXM16ZFqkhIiACKydgHQu76QkzOxl5XSu/XqqACIjAxhBggTKvrjN727yMkouACFwBAvQAeF3DwTDcls1YYQz0dOHmKVUEREAELoSAbQjLNFWt0N9WM5MkFAERuD4E8LqOT47D7d2MuS71aOGrqFQREIHLJpDRC40r/BfLc+e/LrtSsi8CIrBiAtYzcCTgdXU6nXCFNmOuK9wGpYqACIjACghM5rgoF99L8/Er4K8iRWBtCJjLVa/X6QrCrzFW1VmUumrCVQqXlEXg6hGge6Uf4EjT4kilGs95VeJVxqvXWLVIBEQgTIBOwMJwOOQFxkePHg0GgzfffDMv12asMObVfvlydazLZ64SRWDdCPj9gLlc61ZD1UcERGBpBKxDYHmRua52u/3bb7/98ccft27dyqzA2nldZ2dnP//884MHD/AW8R8zK70q4brVZ1UcVK4IiECj0djf32cp4ZVXXqF7pcMVExEQgWtIAJfLfAMieF3NZpOe4d69e0ReeOGFNJD1WmH89ddfP/nkk2+//fbk5IS/Z+Q/UKarvhLJIlUajUYrqbMVSs0XqfwKa341il4Hl321N8Bq7/8Lv4vwuuCJs3VwcPDOO+989NFHF16EDIqACGwEAeveOdLLMWF0eHj48OHDJ0+e3Llz5/XXX080YY28ru++++7TTz/96aefbGxY7QiRwGSn6zBwZlZMQhEQgSUT4LGQHhavq9frEX/jjTc+//xzFhfWsONaMhkVJwLXkADugXkI7O7q9/tPnz5lgxdHZr9effVV3C/H5JnX1RuNB2xPmM7FsCl0K6o0asvbHEp1P/jgg++//56aEU/3XCaxVrnaF4+Q3fKy9bV4Ll9Tuzd8GoovTqDe3m1sN2vbzaixhTXuz+Fp5+zw6eCst7hxWVgyAdyvzz777K233kr3XUuuiYoTARFYCQH6cAJFm+N1dHTEdBeOF1vs2Tq1vb3N4xmLj/X//d3vDKfe1vma4nS1oqhd51ht1mvtaE5/5bzV7LP79++zAc3SMrsta0xmUrbFlNQszOt0pcxJIAJzEWj946D50u3tFw/ycvePDvvHTzuP/hh0T/J0JF83Asx43b17F6+LfmaRbmrd2qX6iIAIFCfAb58ewPZH3bhxg30IzH/jfrEBlAkwZsfj2a88l4tiRuPKyWB4MnheYjOq1b23o4luR5XtWrUd1Vr16iJTY8zF4RU+Lykn9sxzykk1cZ3Jg60WGy6cVoSPud10p5kRPFRmGkb9fmYqQpZrz47+zkuVXATCBOrbrdbN262Df9a2ZtyKjb19/m/f/vfo7Ix7ctA9Ho+e/4kJNg4MOh0kuiHDwJecSm/7zTff8IxLx7q1FU9eXnboj8Znw+T3Wen2mrWFuuLLrrbsi8B6EjDvwj0ysT2LwASVk8ystrlcdmTyG5drd3fXNtfjcjHdZTbLvcN4mpoVO/K8lFZUm2yAH8/hgT3sjbZf/hctzGuYfRTH97pq261Gc4eVmajVrlSf+1iZFoqDy8zuC4fdDvvlfEn5+HjY6476vdFwOOicsLY06J/GkVTY2rvBu6gpcYag3t7hpdWMhJKi4Vmvf3Jydvy0ZL6lqte3cKPbvmNN8Tgi/e7JaODdkYUrxRpfvcWOnCgzR5WHjfbuXLdQdbKA2IxarVq9kWk8IKxtbfF/Yz/jLRg/1+RpgRtyPOqfcVOZixZv6ewcD3Daeqe+8iXF660dLgqfrHL2abKtnDpJZoSnndHZ6bCXuag6Gpx2i9e/GkXj4bCxsxfVk07P5LmrBaLaVqvR3gVVrcmDWcblxqnlBx4f+6ejXtfqHJ/2TqePZHGH02jtcqfV23sYqTW2omaTrun4+Pj7Q/OPnzWnznMpvW+t2ooq+Q+l1WZU5WkWdjuN5wDTuLrDcac/Oh2NT/rjU5y7WW940ye26skVCorZqrF7JDbfjiJKTGqkC5ZEBK4HAX7FdJw4G4PhACcJVyngk2QiSQwTbOpi3ovHMH6vFngwu4Bx2pXdnfpkR2V8EtpJRf+ubLVvv1K2ha7oZUboczN665I1aOzdKJljBep88Y2BPK/g8bDPNIylDvtnjFX+oDuRj3FWzBfkZa+otVMt5kFmlljj5m3jZM8Ok9mg48HJ0Xg0mMTjmSGXjbEZF4HZgFp9K2rtNnb3XNKGRqJmO8qfPosvTedk0DnsA2T6Cz3f0nF9Zw+8CLlKURM4M27w4tfifEELnYWfdsz1WaiASWZc+frOLtFGZb+UNTox+utEFjbLDmA+rPhPpwmdvNPYY4ui4Xh8NhqP5vqGDhtHWKzIsz+Rx6n1WjV+nPcWMVyWenXcpB6V2GuMpk+2US1e38h3Il3uODIcV075BNBUdjYanQ75rmyly0/T89En6WOKsuJwQ+3/ab6Mf2HbG4yXvP84ox4SXRUC9hNmqwCOEW4JAT8p83cxs8XkIrvLS4RnL3JNrI7/D0TfZdk9K2r5AAAAAElFTkSuQmCC;" vertex="1" parent="1">
          <mxGeometry x="860" y="1630" width="807" height="628" as="geometry" />
        </mxCell>
      </root>
    </mxGraphModel>
  </diagram>
  <diagram id="hvk6nRLKI0rSwlDT0f0Z" name="第 3 页">
    <mxGraphModel dx="786" dy="1071" grid="1" gridSize="10" guides="1" tooltips="1" connect="1" arrows="1" fold="1" page="1" pageScale="1" pageWidth="827" pageHeight="1169" math="0" shadow="0">
      <root>
        <mxCell id="0" />
        <mxCell id="1" parent="0" />
      </root>
    </mxGraphModel>
  </diagram>
</mxfile>
